<?xml version="1.0" encoding="utf-8"?>
<!-- Generator: Adobe Illustrator 19.1.0, SVG Export Plug-In . SVG Version: 6.00 Build 0)  -->
<svg version="1.1" id="Layer_1" xmlns="http://www.w3.org/2000/svg" xmlns:xlink="http://www.w3.org/1999/xlink" x="0px" y="0px"
	 viewBox="0.7 -148.6 299.6 301.3" style="enable-background:new 0.7 -148.6 299.6 301.3;" xml:space="preserve">
<g>
	<path d="M136.9-148.3c4.9-0.1,9.9-0.3,14.8-0.3c2.9,0,5.8,0.1,8.8,0.4c3,0.3,6.1,0.7,9.1,1.2c3.9,0.6,7.9,1.1,11.8,1.9
		c2.8,0.5,5.5,1.3,8.2,2.1c3.2,0.9,6.5,1.8,9.6,2.9c3.8,1.4,7.6,3,11.4,4.6c2.7,1.2,5.4,2.4,8,3.8c2.4,1.2,4.8,2.5,7.1,4
		c3.6,2.2,7.2,4.4,10.7,6.9c3.5,2.4,6.8,5,10.1,7.7c2.5,2,4.8,4.3,7.2,6.5c1.6,1.5,3.3,3,4.8,4.7c1.7,1.8,3.2,3.7,4.8,5.5
		c1.3,1.5,2.6,3,3.9,4.5c1.9,2.3,3.7,4.7,5.4,7.1c2.3,3.3,4.5,6.7,6.7,10.1c1.5,2.4,2.8,5,4.1,7.5c1.2,2.2,2.4,4.4,3.4,6.7
		c0.9,2,1.7,4.1,2.5,6.1c0.7,1.7,1.5,3.4,2.1,5.2c1,2.9,2,5.8,2.8,8.7c1.3,4.8,2.5,9.6,3.6,14.4c0.6,2.8,0.9,5.6,1.3,8.5
		c0.4,3.1,0.7,6.1,0.8,9.2c0.2,5.6,0.4,11.1,0.4,16.7c0,3.4-0.6,6.7-1,10.1c-0.4,3.2-0.7,6.5-1.2,9.7c-0.5,3.1-1.3,6.1-1.9,9.1
		c-0.4,1.6-0.6,3.3-1.1,4.9c-0.7,2.3-1.5,4.5-2.2,6.7c-0.6,1.9-1.2,3.9-1.9,5.8c-0.4,1.2-0.9,2.3-1.4,3.5c-0.4,1.1-0.8,2.2-1.2,3.2
		c-0.9,2.1-1.9,4.1-2.9,6.2c-0.9,1.8-1.7,3.6-2.7,5.3c-1,1.9-2.1,3.7-3.1,5.5c-0.9,1.6-1.8,3.2-2.7,4.8c-1.4,2.3-2.8,4.5-4.3,6.7
		c-1.4,2-3,3.9-4.5,5.8c-1.7,2.1-3.3,4.3-5,6.3c-1.5,1.7-3.1,3.3-4.7,5c-1.2,1.3-2.4,2.5-3.6,3.7c-0.9,0.9-1.9,1.7-2.9,2.5
		c-1.6,1.4-3.2,2.9-4.8,4.3c-0.6,0.5-1.3,1.1-1.9,1.6c-1.8,1.4-3.6,2.9-5.5,4.2c-3.1,2.1-6.2,4.2-9.4,6.2c-2.3,1.5-4.6,3-7,4.3
		c-3,1.7-6.1,3.3-9.2,4.7c-2.9,1.4-6,2.5-9,3.7c-2.3,0.9-4.6,1.8-7,2.6c-2.5,0.8-5.2,1.4-7.7,2.2c-3,0.9-5.9,1.9-8.9,2.6
		c-3.2,0.8-6.5,1.2-9.8,1.8c-1.1,0.2-2.1,0.4-3.2,0.6c-1,0.1-2.1,0.2-3.1,0.2c-2.5,0.1-5,0.3-7.4,0.4c-1.6,0.1-3.2,0.2-4.7,0.2
		c-4-0.1-8-0.3-12-0.6c-2.9-0.2-5.8-0.5-8.7-0.8c-3.1-0.4-6.2-0.9-9.3-1.4c-2.6-0.5-5.1-1.1-7.7-1.6c-1.4-0.3-2.9-0.6-4.3-1
		c-1.6-0.4-3.1-1-4.7-1.5c-1.9-0.6-3.9-1.1-5.8-1.8c-1.7-0.6-3.3-1.4-4.9-2.2c-0.2-0.1-0.4-0.2-0.5-0.2c-2.1-0.9-4.1-1.7-6.2-2.6
		c-2.3-1-4.5-2-6.7-3.1c-1.7-0.9-3.4-1.8-5.1-2.8c-0.5-0.3-1.1-0.6-1.6-0.9c-3.3-1.7-6.3-3.8-9.3-6c-1.5-1.1-3.1-2-4.6-3
		c-0.6-0.4-1.1-1-1.7-1.4c-1.2-1-2.5-1.8-3.7-2.8c-2.3-1.9-4.6-3.8-6.8-5.8c-1.7-1.5-3.3-3.2-5-4.7c-0.9-0.9-1.9-1.8-2.8-2.7
		c-0.5-0.5-0.9-1-1.3-1.5c-1.1-1.2-2.1-2.4-3.2-3.6c-1.9-2.2-3.7-4.3-5.5-6.6c-1.4-1.8-2.8-3.8-4.1-5.7c-1.8-2.7-3.7-5.3-5.4-8.1
		c-1.5-2.4-2.9-4.9-4.2-7.4c-0.7-1.3-1.2-2.7-1.8-4c-1.1-2.3-2.4-4.5-3.5-6.9c-0.8-1.7-1.3-3.5-2-5.3c-0.6-1.7-1.3-3.5-1.9-5.2
		c-0.5-1.4-1-2.9-1.4-4.3c-0.6-2.1-1.3-4.2-1.8-6.3c-0.4-1.5-0.6-3.1-1-4.7C4.5,34.6,4,33,3.7,31.3c-0.5-2.7-1-5.3-1.4-8
		c-0.3-2.2-0.4-4.5-0.6-6.8s-0.6-4.7-0.8-7C0.8,8.3,0.7,7.2,0.7,6c0-2.9-0.1-5.8,0-8.6C0.9-6.3,1.1-10,1.5-13.7
		c0.4-3.6,0.9-7.3,1.4-10.9c0.4-2.3,0.6-4.6,1.5-6.7c1.8-4.6,2.5-9.4,4.2-14c1.3-3.5,2.6-7,4-10.5c0.8-2.1,1.7-4.3,2.7-6.3
		c1.5-3.1,3.2-6.1,4.9-9.2c0.6-1.1,1.1-2.2,1.7-3.2c1.8-2.9,3.5-5.9,5.5-8.7c2.4-3.5,5.1-6.8,7.7-10.2c1.4-1.8,2.9-3.7,4.4-5.4
		c1.6-1.8,3.3-3.5,5-5.3c1.5-1.5,3-3.1,4.6-4.6c1.1-1,2.3-2,3.4-2.9c2-1.7,3.9-3.4,6-5c2.5-2,5-4.1,7.6-6c2.5-1.8,5.1-3.4,7.8-5
		c3.2-1.9,6.4-3.7,9.7-5.3c3.5-1.8,7.2-3.3,10.8-4.9c2.5-1.1,5-2,7.6-2.9c3.7-1.3,7.5-2.5,11.3-3.5c2.8-0.8,5.6-1.4,8.5-1.9
		c2.7-0.5,5.4-0.9,8.1-1.2c2.4-0.3,4.9-0.7,7.3-1c0.2,0,0.3,0,0.5,0C136.9-148.2,136.9-148.3,136.9-148.3z M4.5,8.8
		c0.1,0,0.3,0,0.4,0c0,2.6-0.2,5.2,0,7.8c0.2,2.7,0.8,5.3,1.2,8c0.5,3,0.8,6.1,1.5,9c1,4.2,2.2,8.3,3.4,12.4
		c0.7,2.5,1.7,4.9,2.6,7.4c0.6,1.5,1.2,2.9,1.8,4.4c0.6,1.5,1.1,3.1,1.8,4.6c1.2,2.5,2.4,4.9,3.8,7.3c2.2,4,4.4,8,6.8,11.9
		c1.5,2.5,3.3,4.8,5,7.1c1,1.4,2.1,2.8,3.2,4.2c0.7,0.9,1.5,1.8,2.2,2.7s1.2,2,1.9,2.9c1,1.2,2,2.3,3.1,3.5c1.5,1.6,2.9,3.3,4.6,4.7
		c2.7,2.5,5.6,4.9,8.3,7.4c1.3,1.2,2.5,2.4,3.9,3.5c3.5,2.6,7,5.2,10.7,7.6c3.1,2,6.3,3.8,9.6,5.5c2.3,1.2,4.6,2.3,6.9,3.4
		c2.7,1.2,5.3,2.4,8.1,3.5c2,0.9,4.1,1.6,6.2,2.4c1.8,0.7,3.5,1.5,5.4,2c2.8,0.8,5.7,1.5,8.6,2.2c2.3,0.5,4.5,0.9,6.8,1.3
		c3.2,0.5,6.4,1,9.5,1.4c3.1,0.4,6.3,0.8,9.4,1c2.3,0.2,4.7,0.4,7,0.2c2.3-0.2,4.6,0.5,6.9-0.1c2.2-0.5,4.6-0.2,6.9-0.3
		c1.6-0.1,3.2-0.2,4.8-0.4c2.4-0.3,4.8-0.7,7.3-1.2c3.7-0.7,7.4-1.3,11-2.1c2-0.4,3.9-1.1,5.8-1.7c1.3-0.4,2.5-0.7,3.8-1.1
		s2.5-0.9,3.7-1.3c1.6-0.6,3.3-1,4.9-1.7c3.5-1.5,7-3,10.5-4.6c2.8-1.3,5.6-2.8,8.4-4.3c1.5-0.8,2.9-1.7,4.3-2.5
		c0.8-0.5,1.6-0.9,2.4-1.4c2.7-1.9,5.3-3.8,7.9-5.7c0.6-0.4,1.4-0.7,2-1.2c1.8-1.4,3.5-2.9,5.2-4.4c1.8-1.6,3.6-3.2,5.4-4.8
		c1-0.9,2-1.9,2.9-2.8c1.8-1.8,3.7-3.6,5.5-5.6c1.7-1.9,3.3-3.9,4.9-5.9c1.5-1.9,3.1-3.9,4.5-5.9c2-2.8,4-5.6,5.9-8.4
		c1.6-2.5,3-5.1,4.5-7.7c0.5-0.9,1-1.7,1.4-2.6c0.7-1.4,1.3-2.8,2-4.2s1.4-2.9,2.1-4.3c0.8-1.8,1.5-3.6,2.2-5.4
		c0.5-1.3,1.2-2.5,1.6-3.8c0.6-1.6,1-3.3,1.6-4.9c0.6-2,1.4-3.9,1.9-5.9c0.8-3.1,1.5-6.3,2.2-9.4c0.4-1.8,0.9-3.6,1.2-5.4
		c0.3-1.7,0.4-3.5,0.6-5.3c0.1-1,0.1-2.1,0.3-3.1c0.3-2.5,0.7-5.1,0.9-7.6c0.1-1,0-2.1,0.1-3.2c0.1-1.9,0.2-3.9,0.2-5.8
		c0-2.7-0.1-5.4-0.2-8.1c0-1.4,0-2.8-0.1-4.2c-0.2-1.8-0.5-3.7-0.8-5.5c-0.4-2.8-0.7-5.6-1.2-8.4c-0.4-2.3-1-4.6-1.5-7
		c-0.4-1.8-0.7-3.6-1.2-5.4c-0.4-1.6-1-3.1-1.5-4.7c-0.5-1.5-1-3.1-1.5-4.6s-1-3-1.7-4.4c-0.8-1.9-1.7-3.8-2.6-5.7
		c-0.9-2-1.7-4.1-2.7-6c-1.6-3.2-3.3-6.3-5.1-9.4c-1.4-2.5-2.8-5-4.4-7.4c-1.7-2.6-3.6-5-5.4-7.5c-1.9-2.5-4-4.9-6-7.3
		c-1-1.2-2.1-2.4-3.2-3.6c-0.7-0.8-1.5-1.7-2.2-2.4c-1.4-1.4-2.8-2.8-4.2-4.1c-1.4-1.3-2.7-2.6-4.1-3.8c-0.9-0.8-1.9-1.4-2.8-2.2
		c-1.1-0.9-2.1-2-3.3-2.8c-3.1-2.3-6.3-4.6-9.5-6.9c-2.4-1.6-4.7-3.3-7.2-4.7c-2.2-1.3-4.6-2.3-6.9-3.5c-1.9-1-3.9-2-5.8-2.9
		c-3.5-1.6-7-3.1-10.6-4.5c-1.9-0.8-3.9-1.3-5.9-2c-2.6-0.8-5.2-1.7-7.9-2.3c-3.8-0.9-7.6-1.7-11.4-2.5c-3.9-0.7-7.7-1.3-11.6-1.8
		c-2.3-0.3-4.5-0.5-6.8-0.6c-3.4-0.1-6.8-0.1-10.2,0c-3.2,0.1-6.4,0.2-9.6,0.4c-2.7,0.2-5.4,0.6-8.1,1c-3.8,0.6-7.6,1.2-11.3,2.1
		c-4.1,1-8.1,2.3-12.1,3.6c-6,1.9-11.9,4.2-17.6,7c-3.4,1.7-6.9,3.5-10.3,5.2c-1.5,0.8-3.1,1.7-4.5,2.6c-2,1.4-4,2.8-6,4.3
		c-2.5,1.9-5,3.9-7.4,5.8c-2,1.6-4.1,3.1-6,4.9c-2.6,2.4-5,5-7.5,7.5c-1.8,1.9-3.6,3.9-5.3,5.9c-1.8,2-3.5,4-5.1,6.2
		c-2.1,2.8-4.2,5.6-6.1,8.6c-2,2.9-3.8,6-5.5,9c-2,3.6-3.9,7.3-5.7,11.1C16.5-55,14.9-51,13.4-47c-1.2,3.1-2.2,6.2-3,9.4
		c-1.2,4.9-2.1,9.9-3.3,14.8c-1,4.2-1.2,8.5-1.8,12.7C5-7.3,4.9-4.5,4.9-1.7C4.5,1.8,4.5,5.3,4.5,8.8z"/>
	<path d="M230.5-80.3c0.1,1.4,1.4,2,2.2,2.9c1.6,1.9,3.3,3.6,5,5.5c1.5,1.7,2.9,3.5,4.3,5.3c1,1.3,2,2.7,2.9,4.1c1.3,2,2.5,4,3.7,6
		c1.4,2.4,2.8,4.9,4.1,7.4s2.5,4.9,3.6,7.5c1,2.5,1.9,5,2.7,7.5c0.6,1.7,1.2,3.3,1.6,5c0.8,3,1.5,6,2,9c0.6,3.1,1.1,6.3,1.4,9.4
		c0.4,3.6,0.5,7.2,0.6,10.7c0.1,2.6-0.1,5.2-0.1,7.8c0,0.8,0.4,1.6,0.3,2.5c-0.1,1.5-0.4,3-0.7,4.5c-0.2,1.6-0.4,3.3-0.7,4.9
		c-0.3,1.9-0.6,3.9-1.1,5.8c-0.8,3.4-1.6,6.9-2.6,10.3c-0.8,2.7-1.7,5.3-2.7,7.9c-0.9,2.4-1.9,4.7-2.9,7c-1.1,2.3-2.4,4.6-3.7,6.9
		c-2.1,3.7-4.3,7.4-6.6,10.9c-1.5,2.4-3.3,4.7-5.1,6.9c-1.3,1.6-2.7,3.1-4.1,4.6c-1.8,2-3.5,4-5.5,5.8c-2.7,2.5-5.3,5.1-8.5,7.2
		c-3.3,2.2-6.4,4.6-9.6,6.9c-1.7,1.2-3.5,2.2-5.4,3.1c-2.5,1.4-5.1,2.7-7.7,3.9c-2.6,1.2-5.3,2.1-8,3.1c-2.4,0.9-4.7,1.8-7.1,2.5
		c-2.6,0.8-5.2,1.4-7.8,2c-2.4,0.5-4.8,1-7.2,1.4c-1.7,0.3-3.5,0.5-5.2,0.7c-2.5,0.3-5,0.6-7.4,0.8c-0.8,0.1-1.6-0.1-2.4-0.1
		c-0.8,0-1.7,0.2-2.5,0.1c-1.4-0.1-2.7-0.2-4.1-0.3c-0.7,0-1.5,0-2.2,0c-3-0.3-6-0.6-9-1c-2.8-0.4-5.6-0.8-8.4-1.2
		c-1.2-0.2-2.4-0.5-3.6-0.8c-3.4-0.9-6.8-1.8-10.2-2.9c-1.6-0.5-3.2-1.2-4.8-1.8c-1.8-0.7-3.7-1.3-5.5-2.1c-1-0.4-1.8-1.1-2.8-1.5
		c-2.2-1.1-4.4-2.1-6.5-3.4c-2.8-1.7-5.5-3.6-8.2-5.4c-1.3-0.8-2.6-1.6-3.8-2.5c-1.2-0.9-2.3-1.8-3.4-2.8c-2.1-1.8-4.1-3.6-6.2-5.5
		c-1.2-1.2-2.3-2.5-3.5-3.7s-2.4-2.4-3.5-3.6c-0.8-0.9-1.6-1.8-2.4-2.8c-1.3-1.6-2.6-3.2-3.9-4.9c-1-1.3-1.8-2.6-2.7-3.9
		c-1.5-2.3-3.1-4.6-4.4-7c-1.5-2.7-2.8-5.6-4.1-8.4c-1.1-2.4-2.4-4.7-3.4-7.2c-1-2.6-1.9-5.2-2.7-7.8c-1-3.3-2-6.6-2.8-10
		c-0.7-3.1-1.1-6.2-1.5-9.3c-0.4-2.8-0.6-5.6-0.8-8.5C35.7,7,35.7,5,35.7,2.9c0-1.9-0.1-3.7,0-5.6c0.1-1.5,0.2-3,0.4-4.5
		c0.7-5,1.4-10.1,2.2-15.1c0.4-2.1,1.1-4.1,1.7-6.2c0.3-1.1,0.6-2.2,1-3.3c0.5-1.6,0.9-3.2,1.5-4.8c0.8-2.2,1.7-4.3,2.6-6.4
		c0.2-0.6,0.5-1.1,0.8-1.7c1.1-2.3,2.2-4.6,3.4-6.9c1.4-2.5,2.8-5,4.4-7.4c1.8-2.8,3.6-5.5,5.5-8.2c1.5-2.1,3-4.1,4.6-6
		c1.8-2.1,3.8-4.1,5.8-6c2.4-2.4,4.8-4.7,7.4-7c1.5-1.3,3.2-2.4,4.8-3.6c1.9-1.5,3.8-3,5.8-4.3c2.4-1.5,4.9-2.9,7.4-4.2
		c2.2-1.1,4.4-2.1,6.6-3.2c1.5-0.7,3-1.6,4.6-2.3c1.9-0.8,3.9-1.5,5.8-2.2c2-0.7,4.1-1.5,6.2-2.1c2.2-0.6,4.4-1.1,6.5-1.5
		c2.5-0.5,4.9-1,7.4-1.5c1.7-0.3,3.5-0.6,5.2-0.7c5-0.3,9.9-0.6,14.9-0.6c3.6,0,7.2,0.6,10.9,0.9c1.9,0.2,3.8,0.3,5.7,0.6
		c1.2,0.2,2.4,0.6,3.6,0.9c2.2,0.5,4.3,0.9,6.5,1.3c1.2,0.3,2.3,0.5,3.4,0.9c4.1,1.5,8.2,2.9,12.2,4.6c3.3,1.4,6.7,2.8,9.9,4.5
		c3.6,2,7.1,4.2,10.5,6.5c3,2,5.9,4.3,8.8,6.5c1.9,1.5,3.7,3.3,5.6,4.9C229.5-80.8,230-80.6,230.5-80.3z M142.5-109.2
		c-2.6,0.3-4.9,0.5-7.2,0.8c-3.1,0.4-6.2,0.8-9.2,1.5c-4.2,1-8.3,2.2-12.3,3.6c-3.9,1.4-7.8,3-11.6,4.8c-3.4,1.6-6.8,3.3-10.1,5.3
		c-3,1.8-5.9,3.7-8.6,5.8c-2.9,2.3-5.6,4.8-8.4,7.3c-1.7,1.5-3.4,3.1-5,4.8c-2,2.1-3.9,4.3-5.8,6.6c-2.4,3-5,5.9-6.8,9.3
		c-1.4,2.8-3.3,5.4-4.8,8.1c-1.3,2.4-2.4,4.9-3.6,7.4c-0.6,1.3-1.1,2.7-1.7,4c-0.7,1.7-1.6,3.3-2.1,5c-1.1,3.4-2.2,6.8-3.1,10.2
		c-0.8,3.1-1.3,6.2-1.8,9.3c-0.5,2.8-1,5.6-1.2,8.4c-0.3,3.7-0.4,7.5-0.4,11.2c0,1.8,0.2,3.5,0.4,5.3c0.4,3.7,0.7,7.5,1.3,11.2
		c0.5,2.9,1.2,5.8,1.9,8.7c0.4,1.8,0.9,3.5,1.5,5.2c0.9,2.8,1.8,5.7,2.9,8.4c1.4,3.3,3,6.5,4.6,9.7c1,2.1,2.2,4.2,3.3,6.2
		c1.1,1.9,2.3,3.8,3.6,5.6c1.4,1.9,2.8,3.8,4.2,5.7c1.5,1.9,3.1,3.8,4.7,5.7c0.9,1.1,1.8,2.2,2.8,3.2c1.6,1.6,3.3,3.3,5,4.8
		c3,2.6,6,5.1,9,7.5c1.5,1.2,3.2,2.1,4.8,3.1c2.5,1.6,5.1,3.1,7.6,4.6c1.4,0.8,2.9,1.6,4.3,2.4c1.5,0.8,3,1.8,4.7,2.5
		c3.1,1.3,6.2,2.6,9.4,3.6c3.8,1.2,7.7,2.1,11.6,3.1c2,0.5,4.1,0.7,6.1,1c1.6,0.2,3.2,0.4,4.7,0.6c1.7,0.2,3.5,0.3,5.2,0.4
		c1.4,0.1,2.7,0.4,4.1,0.4c3.6,0,7.2-0.1,10.9-0.2c2.3-0.1,4.5-0.3,6.8-0.6c2.9-0.4,5.9-1,8.8-1.6c2.9-0.6,5.7-1.4,8.5-2.2
		c1.6-0.5,3.2-1.1,4.8-1.6c1.3-0.4,2.7-0.6,3.9-1.2c3.7-1.7,7.3-3.4,10.9-5.2c1.5-0.7,2.9-1.5,4.3-2.3c2.5-1.5,5.1-2.8,7.5-4.5
		c3.5-2.5,6.9-5.1,10.3-7.9c1.8-1.5,3.3-3.2,5-4.9c1.1-1.2,2.2-2.4,3.3-3.7c0.8-0.9,1.7-1.8,2.5-2.8c1-1.2,2-2.5,3-3.8
		c1.8-2.4,3.7-4.7,5.4-7.2c1.7-2.6,3.2-5.4,4.7-8.2c0.9-1.6,1.7-3.3,2.5-5c0.6-1.3,1.2-2.6,1.7-3.9c0.4-0.9,0.7-1.9,1.1-2.8
		c0.6-1.4,1.3-2.7,1.8-4.1c0.7-2,1.3-4,1.9-5.9c0.5-1.6,1-3.1,1.4-4.7c0.6-2.6,1-5.2,1.5-7.8c0.6-3.6,1.2-7.2,1.6-10.8
		c0.3-2.6,0.2-5.3,0.2-8c0-2.4-0.1-4.8-0.2-7.2c-0.1-2-0.3-4-0.6-6c-0.4-3.1-0.8-6.1-1.4-9.1c-0.7-3.3-1.4-6.6-2.3-9.8
		c-0.7-2.4-1.7-4.7-2.5-7c-0.5-1.4-1-2.9-1.6-4.2c-1.3-2.8-2.7-5.5-4.1-8.2c-1.1-2.1-2.3-4.1-3.4-6.1c-0.9-1.5-1.7-3.1-2.7-4.5
		c-1.5-2.2-3.2-4.3-4.8-6.4c-1-1.3-2.1-2.6-3.2-3.9c-0.8-1-1.7-1.9-2.6-2.8c-1-1.1-1.9-2.3-3-3.4c-2.3-2.1-4.6-4.2-6.9-6.1
		c-2.1-1.7-4.2-3.4-6.4-5.1c-1.2-0.9-2.5-1.7-3.7-2.6c-1.4-0.9-2.7-1.9-4.2-2.7c-2.2-1.2-4.5-2.3-6.8-3.5c-1.6-0.8-3.1-1.7-4.7-2.4
		c-3.3-1.4-6.6-2.6-9.9-3.9c-0.6-0.2-1.2-0.6-1.9-0.8c-1.2-0.4-2.3-0.7-3.5-1.1c-2.2-0.6-4.4-1.3-6.6-1.8c-3-0.6-6-1.1-8.9-1.5
		c-2.2-0.3-4.3-0.7-6.5-0.9c-2.7-0.2-5.4-0.2-8.1-0.2C147.6-109.2,144.9-109.2,142.5-109.2z"/>
	<path d="M171.1-125.2c2.1-1.7,4.1-3.2,5.3-5.5c0.5-0.9,1.6-1.1,2.5-1.1c1,0,2,0.2,3.1,0.4c0.3,0.1,0.6,0.3,0.8,0.4
		c-1,2.1-1.6,4.1-1.9,6.3c-0.2,2-0.8,3.9-1.2,5.9c-0.2,1.2-0.1,2.5-0.3,3.7c0,0.2-0.4,0.6-0.6,0.6c-0.6,0-1.2-0.2-1.7-0.4
		c-0.5-0.1-1-0.3-1.5-0.4c-0.8-0.2-1-0.6-0.5-1.1c0.8-0.9,1-2,1.2-3.1c0.2-1.3,0.5-2.6,0.7-3.9c0.2-1,0.3-2.1,0.2-3.2
		c-0.5,0.5-0.9,1-1.4,1.5c-1.4,1.6-2.7,3.3-4.1,4.9c-0.9,1-1.9,1.4-2.6-0.4c-0.4-1.1-0.7-2.3-1.1-3.4c-0.5-1.1-1.1-2.1-1.6-3.1
		c-0.1,0-0.2,0.1-0.3,0.1c-0.1,0.2-0.2,0.4-0.3,0.6c-0.3,2.7-0.5,5.4-0.8,8c0,0.5-0.1,1-0.1,1.5c-0.5-0.1-1-0.1-1.5-0.2
		c-2.6-0.6-2.5-0.6-1.9-3.1c0.4-1.5,0.5-3.1,0.6-4.6c0.3-2.3,0.6-4.6,0.8-6.9c0.1-0.6-0.1-1.2-0.2-1.8c-0.1-0.5,0.2-0.9,0.7-0.8
		c1.3,0.2,2.7,0.4,4,0.7c0.2,0,0.4,0.5,0.6,0.8C169-130.3,170.1-127.8,171.1-125.2z"/>
	<path d="M101.4-107.3c-1.2,0.6-2.5,1.1-3.7,1.7c-1,0.5-1.8,0.4-2.8-0.1c-1.9-1-4-1.7-6.1-2.3c-0.6-0.2-1.3,0-1.9,0.2
		c-0.9,0.4-1.8,0.9-2.7,1.5c-0.3,0.2-0.5,0.7-0.4,0.9c0.7,1.3,1.4,2.5,2.2,3.6c0.3,0.4,0.8,0.6,1.2,0.8c0.2,0.1,0.5,0.3,0.5,0.5
		c0,0.2-0.2,0.6-0.4,0.7c-0.9,0.6-1.8,1.1-2.7,1.6c-0.6,0.3-1.1,0.3-1.1-0.6c0-0.2,0-0.5-0.2-0.6c-2.4-2.9-4.1-6.3-6.1-9.4
		c-0.7-1.1-1.4-2.2-2.8-2.6c-0.6-0.2-0.9-0.6-0.1-1.1c1.1-0.6,2.2-1.3,3.3-2c0.8-0.5,1.6-1.1,2.4-1.6c0.5-0.3,1.1-0.7,1.6-1
		c0.5-0.4,1-0.8,1.6-1.1s1.3-0.5,1.9-0.8c1.8-0.7,3.6-0.9,5.3,0.2c1.3,0.8,1.7,2.2,2,3.5c0.2,1.1,0,2.3-0.1,3.4
		c-0.1,0.7,0.2,1.1,0.8,1.3c2,0.7,3.9,1.3,5.9,1.9c0.8,0.3,1.6,0.5,2.4,0.7C101.4-107.6,101.4-107.4,101.4-107.3z M81.8-108.8
		c2.3-0.8,4.3-2.1,6.1-3.7c1-0.9,0.8-2.5-0.2-2.9c-0.8-0.3-1.6-0.5-2.5,0c-0.7,0.4-1.4,0.7-2.1,1.1c-1.2,0.8-2.7,1.5-3.4,2.9
		C80.4-110.6,81-109.7,81.8-108.8z"/>
	<path d="M43.2,56.5c2,1.8,2.7,3.4,1.4,5.9c-0.8,1.5-1.3,3.1-1.9,4.6c-0.1,0.3,0,0.9,0.2,1.2c0.8,1.2,1.6,2.4,2.5,3.5
		c0.6,0.8,1.4,0.2,2.1-0.1c0.7-0.4,1.4-0.9,2-1.4c0.1-0.1,0.2-0.1,0.2-0.2c0.5-1.7,0.9-0.5,1.4,0c0.6,0.8,1.3,1.6,1.8,2.5
		c0.1,0.2,0.1,0.5,0.2,0.8c-1.7-0.2-2.8,0.6-3.9,1.5c-1.5,1.3-3.2,2.3-4.8,3.5c-1.1,0.8-2.2,1.6-3.2,2.5c-0.5,0.4-0.6,1.1-1,1.9
		c-0.3-0.3-0.5-0.5-0.7-0.7s-0.2-0.4-0.4-0.6c-1.9-1.5-2.9-3.8-4.4-5.7c-1-1.2-1.8-2.6-2.4-4c-0.5-1.1-1.1-2.3-0.6-3.7
		c0.2-0.4,0-0.9,0.1-1.4c0.4-1.9,2-2.3,3.5-3c1.3-0.6,2.7-0.3,4-0.2c1.4,0.1,1.9-0.8,2.2-1.8c0.3-1.1,0.8-2.2,1.2-3.3
		C42.9,57.9,43,57.2,43.2,56.5z M37.5,67.8c-0.7,0.2-1.2,0.3-1.7,0.5s-0.9,0.6-0.7,1.2c0.6,1.5,1,3.1,2.3,4.3
		c0.3,0.3,0.5,0.8,0.7,1.2c0.6,1.3,1.6,1.8,2.6,1.1c0.6-0.4,1.2-0.8,1.8-1.2c0.5-0.3,0.7-0.7,0.3-1.3c-1-1.4-2-2.9-3.1-4.2
		C39.2,68.7,38.2,68.3,37.5,67.8z"/>
	<path d="M139.1,139.4c-2.8,0-5-0.4-7.1-1.3c-1.7-0.8-2.5-2.5-2.7-4.4c-0.1-1.9,0.4-3.5,2.1-4.6c1.1-0.7,0.2-1.5-0.1-2.1
		c-0.6-1.2-0.5-3.9,0.6-4.8c1-0.8,2.3-1.2,3.6-1.4c1.3-0.2,2.6-0.2,3.8-0.2c2.6,0.1,5.1,2,6,4.4c0.5,1.2,0.1,2.3-0.4,3.3
		c-0.3,0.7-0.2,1.2,0.2,1.6c1.1,1.1,1.5,2.5,1.7,3.9c0.2,1.6-0.5,2.9-1.7,3.8C143.9,138.6,140.9,139.4,139.1,139.4z M138.3,130.9
		c-1.2,0.2-2.5,0.4-3.7,0.6c-1,0.1-1.6,0.8-1.9,1.6c-0.2,0.9,0.5,1.4,1.2,1.9c1.7,1.1,3.6,1.1,5.6,1.2c0.6,0,1.2-0.4,1.9-0.6
		c1.1-0.2,2-0.9,2-1.7c0-1-0.6-2.1-1.6-2.4C140.6,131.2,139.4,131.1,138.3,130.9z M137.8,123.5c-0.7,0.3-1.8,0.5-2.8,1
		c-0.9,0.5-1.1,1.3-0.5,2.1c0.4,0.5,1,0.9,1.5,1c1.4,0.5,2.9,0.3,4.4,0.2c1.2-0.1,1.9-0.7,2.2-1.7c0.1-0.3,0-0.7-0.2-0.9
		C141.2,124.1,139.7,123.7,137.8,123.5z"/>
	<path d="M260-47.3c0.4-1.3,0.8-2.8,1.3-4.2c0.1-0.3,0.9-0.5,1.3-0.4c1,0.2,1.9,0.6,2.9,1c0.6,0.2,0.3,0.8,0,0.9
		c-2.1,1.2-1.8,3.2-1.7,5.1c0.1,1.9,0.9,3.5,2.5,4.6c0.7,0.5,1.3,0.6,2,0.2s0.7-1.1,0.6-1.9c-0.2-2.1-1.4-3.7-2.1-5.5
		c-0.9-2.3-0.3-5.2,1.7-6.5c1.7-1.1,3.6-1.1,5.4-0.2c2.4,1.2,3.8,3.2,4.6,5.7c0.7,2,0.9,4,0.4,6c-0.2,0.6-0.5,1.2-0.9,1.7
		c-0.2,0.2-0.9,0.3-1.1,0.1c-0.8-0.6-1.5-1.3-2.1-2c-0.2-0.2,0-0.9,0.2-1c0.9-0.7,1-1.3,0.5-2.3c-0.6-1.3-1.1-2.8-1.9-4
		c-0.3-0.5-1.3-0.9-2-0.9c-1.2,0-1.7,1.5-1.3,2.6c0.6,1.7,1.3,3.4,2,5.1c0.6,1.5,0.5,3,0.1,4.5c-0.6,2-3.3,3.3-5.4,3.1
		c-2.9-0.3-3.9-2.4-5-4.6c-0.5-1-1.1-2-1.4-3C260.5-44.4,260.3-45.7,260-47.3z"/>
	<path d="M122.2-125.8c0.2,0.7,0.3,1.3,0.5,2c0.5,2,1,4.1,1.6,6.1c0.2,0.7,0.6,1.5,1.1,2.1s0.4,1-0.3,1.2c-1.3,0.4-2.6,0.7-3.9,0.9
		c-0.9,0.1-1.2-0.3-0.7-1.1c0.7-1.2,0.4-2.2,0-3.3c-0.3-0.9-0.3-2-0.6-2.9c-0.8-2.9-1.1-6-2.9-8.7c-0.1-0.2-0.3-0.4-0.4-0.5
		c-0.6-0.5-0.6-0.9,0.1-1.2c1.5-0.5,3-1.2,4.6-0.6c0.3,0.1,0.5,0.2,0.8,0.4c1.3,1.1,2.7,2.2,3.9,3.4c1.4,1.4,2.8,2.9,4.1,4.3
		c0.3,0.3,0.7,0.6,1.2,1c0-0.6,0.1-0.9,0.1-1.3c-0.2-1.4-0.5-2.9-0.8-4.3c-0.2-1.2-0.5-2.4-0.9-3.5c-0.1-0.3-0.6-0.5-0.9-0.8
		c-0.4-0.4-0.5-0.8,0.1-1c1.3-0.3,2.6-0.6,3.9-0.8c0.4-0.1,1,0.3,0.6,0.9c-0.6,0.8-0.4,1.7-0.2,2.6c0.6,2.8,1.2,5.5,1.8,8.3
		c0.4,1.6,0.9,3.2,1.3,4.8c0.1,0.5,0.1,0.9-0.5,1c-0.6,0.1-1.2,0.3-1.7,0.4c-1.1,0.1-2,0.2-2.8-1.2c-1-1.7-2.7-2.9-4.2-4.3
		c-1.1-1.1-2.3-2.1-3.5-3.1c-0.3-0.3-0.8-0.5-1.1-0.7C122.4-125.9,122.3-125.8,122.2-125.8z"/>
	<path d="M31.2,62.3c-1.8-0.5-3.6-0.8-5.3-1.6c-0.9-0.4-1.5-1.5-2.1-2.4c-1-1.5-2-3.1-2.1-4.9c0-0.8,0-1.6,0.2-2.4
		c0.5-2.6,2-4.6,4.1-6.2c0.7-0.6,1.8-0.9,2.7-1.1c1.4-0.4,2.8-0.7,4.2-0.8c2.7-0.1,4.8,1.2,6.4,3.4c1.1,1.6,1.8,3.4,1.7,5.4
		c-0.1,2.3-0.6,4.4-2.2,6.3c-1.6,1.9-3.5,3.2-5.7,4c-0.5,0.2-1.2,0.2-1.8,0.3C31.3,62.1,31.3,62.2,31.2,62.3z M31.2,57.9
		c2.5,0,5.3-2,5.9-4.3c0.5-1.7,0.3-3.4-0.5-5c-0.7-1.3-1.7-2.1-3.2-2c-0.6,0-1.3,0.1-1.9,0.2c-2.6,0.2-5.2,2.1-5.8,4.8
		c-0.3,1.6-0.2,3.2,0.9,4.4C27.7,57.3,29.4,58,31.2,57.9z"/>
	<path d="M275.9-34.3c3.1,0,5.8,1,7.6,3.6c1.3,1.8,2.2,3.8,1.8,6.3c-0.3,2.4-1.3,4.3-2.6,6.1c-1.2,1.6-3,2.6-5.1,2.9
		c-2.6,0.4-5.2,0-7.4-1.6c-1.7-1.2-2.5-3.1-3.1-5.2c-0.9-3.1-0.4-6,1.4-8.6c0.8-1.1,1.7-2.1,3.1-2.3c0.1,0,0.2-0.1,0.4-0.1
		C274-34.3,274-34.3,275.9-34.3z M275.5-19.4c1-0.1,1.8,0,2.6-0.3c0.9-0.3,2.1-0.6,2.6-1.3c1.4-2,2-4.1,0.7-6.5
		c-0.8-1.5-2.8-3-4.4-2.9c-2.2,0.2-4.1,0.8-5.6,2.6c-1.6,1.9-2,4.4-0.4,6.3C272.1-20.2,273.7-19.5,275.5-19.4z"/>
	<path d="M158.9,128.9c-1.5,0.8-2.8,1.2-4.3,1.1c-0.4,0-0.8-0.6-1-1c-0.9-1.6-0.4-3.9,0.7-5.3c1.5-1.9,3.5-2.3,5.8-2.4
		c1.6-0.1,3.2,0.2,4.7,0.7c1.2,0.4,2.8,2.8,3,4.2c0.5,3.3-2.2,5.3-4.3,6.5c-1.3,0.7-2.6,1.4-3.9,2.1c-0.3,0.2-0.5,0.6-0.6,1
		c3.5-0.1,6.9,0.4,10.2-1.7c0.2,1.2,0.4,2.3,0.7,3.3c0.1,0.7-0.3,1-0.8,1.1c-2.1,0.3-4.2,0.7-6.3,0.8c-2.2,0.2-4.3,0.2-6.5,0.2
		c-1.9,0-2.4-0.7-2-2.5c0.3-1.2,0.8-2.4,1.4-3.5c0.8-1.4,2.1-2.2,3.7-2.5c2.1-0.5,3.4-1.8,4.5-3.5c0.5-0.8-0.1-2.4-1-2.7
		c-1.8-0.4-3.6-0.3-5.2,0.6c-1,0.5-0.9,1.6,0.2,2.5C158.1,128.2,158.4,128.5,158.9,128.9z"/>
	<path d="M46.9-85.9c0.2-3.6,2-6.2,4.8-8.1c1.2-0.8,2.5-1.6,4-1.8c1.4-0.2,2,0.4,1.7,1.7c-0.1,0.3-0.1,0.5-0.2,0.8
		c-0.4,1.7-0.5,1.7-2.2,1.8c-1.2,0-2.2,0.5-2.9,1.5s-1.7,2-1.7,3.4c0,0.9,0.6,1.4,1.4,1.4c1.8,0,2.7-1.1,3.6-2.4
		c1.3-1.8,3.1-3,5.1-3.6c1.9-0.6,4,0,5.5,1.5c0.3,0.3,0.4,0.9,0.4,1.4c0.1,1.1,0.1,2.3,0.2,3.4c0,0.5,0,1-0.2,1.5
		c-0.4,0.8-0.8,1.5-1.3,2.2c-0.8,1.2-1.5,2.3-2.8,3c-2,1.1-4.2,1.8-6.6,1.7c-0.3,0-0.6-0.4-0.7-0.7c-0.6-1.4,0.5-2.9,2.3-2.9
		s3.2-0.8,4.5-1.8c1.5-1.2,1.9-3.3,0.9-4.6c-1.2-1.5-2.2-1-3.5,0.1c-2,1.8-3.5,4.1-6.4,4.7c-2.5,0.5-3.9-0.4-5.1-2
		C47.4-84.4,47.2-85.2,46.9-85.9z"/>
	<path d="M180.1,117.5c5.7,0.1,9.3,3.7,9.2,9.5c0,5-3.9,9.6-8.5,9.3c-6.1-0.5-9.6-3.2-9.9-9.2C170.6,121.6,175.1,118,180.1,117.5z
		 M180.3,132.1c3.6,0.1,5.4-2.1,5.5-4.8c0.2-3.8-1.8-6.2-5.1-6.2c-3.4,0-6.1,2.1-6.2,4.8C174.5,129.7,176.7,132.1,180.3,132.1z"/>
	<path d="M280.9,38c-0.5,0-0.9,0-1.4,0c-0.8,0-1-0.4-0.7-1c1.4-2.6,1.8-5.6,2.5-8.4c0.1-0.6,0.1-1.1-0.8-1.1c-0.3,0-0.5-0.1-0.8-0.2
		c-1.4-0.3-1.9,0.2-2,1.6c-0.2,1.3-0.5,2.6-0.2,3.9c0.2,0.8-0.5,1.3-1.3,1.2c-0.4-0.1-0.8-0.2-1.3-0.3c-1.4-0.4-1.5-0.7-1.1-2.1
		c0.5-1.4,0.9-2.8,1.4-4.1c0.3-0.8-0.4-0.9-0.8-1c-0.9-0.2-1.8-0.2-2.7-0.2c-0.2,0-0.6,0.4-0.6,0.6c-0.4,1.4-0.8,2.8-1,4.3
		c-0.2,1.7-1.1,3.3-0.6,5.1c0.1,0.6-0.4,0.9-1.1,0.7c-0.5-0.1-0.9-0.3-1.4-0.4c-0.9-0.2-1.2-0.9-1-1.9c0.4-1.7,0.8-3.4,1.1-5.1
		c0.4-2.6,0.8-5.2,1.2-7.8c0.1-0.9,0.2-0.9,1-0.5c0.6,0.3,1.3,0.5,2,0.7c1.7,0.4,3.4,0.8,5.1,1c1.4,0.2,2.9,0.3,4.4,0.4
		c1.3,0.1,2.7,0.2,4,0.2c0.6,0,0.8,0.1,0.7,0.8c-0.5,2.3-0.9,4.5-1.3,6.8c-0.3,1.6-0.7,3.2-1,4.9c-0.1,0.6,0.2,1.6-0.1,1.7
		C282.5,38.1,281.7,38,280.9,38C280.9,38.1,280.9,38.1,280.9,38z"/>
	<path d="M147.1-117.1c-4.6,0.5-9.5-4.8-9.2-9.6c0.4-4.8,3.3-9.1,10-9c4.8,0.1,8.5,4.2,8.4,8.8C156.3-122.4,152-117,147.1-117.1z
		 M152.6-127c-0.3-1-0.5-1.9-0.9-2.8c-0.9-2-3.5-3.2-5.6-2.7c-1.6,0.4-2.7,1.3-3.6,2.8c-1.2,2.2-1,4.2,0.1,6.3
		c0.8,1.5,2.3,2,3.8,2.3c2,0.4,4.2,0,5.3-2.4C152.1-124.6,152.3-125.8,152.6-127z"/>
	<path d="M105.4-109.2c-5.1-0.3-9.3-3.7-9.1-10c0.1-5.3,4.5-8.3,9.8-8.6c4.3-0.3,8.9,4.6,8.7,9C114.5-112.9,111.7-109.8,105.4-109.2
		z M111.1-118.4c0-0.2,0-0.4,0-0.6c-0.4-2.1-1-4.1-3.2-5c-1.5-0.6-2.9-0.4-4.3,0.2c-2.8,1.1-3.9,3.2-3.5,6.1
		c0.2,1.6,0.9,2.7,2.1,3.7c1.2,1.1,2.7,1.5,4.3,1.3C108.5-113,111.6-115.8,111.1-118.4z"/>
	<path d="M35.7-73.2c1-1.8,2.2-3.7,3.4-5.2c3.6,0.9,7,1.8,10.5,2.6c1.8,0.4,3.6,0.9,5.4,1.1c0.8,0.1,1.7-0.1,2.6-0.2
		c0.5-0.1,0.8,0.1,0.5,0.6c-0.7,1.1-1.3,2.3-2.1,3.4c-0.3,0.4-0.9,0.7-1.6,0.4c-1-0.4-2.2-0.6-3.3-0.8c-0.2,0-0.6,0.2-0.8,0.4
		c-1.2,1.8-2.4,3.7-3.6,5.6c-0.1,0.2-0.1,0.8,0.1,1c0.7,0.8,1.5,1.4,2.2,2.2c0.2,0.2,0.4,0.6,0.3,0.8c-0.5,1.1-1.1,2.1-1.7,3.1
		c-0.2,0.3-0.7,0.5-0.9,0.5c-0.3-0.1-0.5-0.6-0.7-0.9c-0.4-0.7-0.6-1.4-1-2.1c-1.2-2.1-2.4-4.1-3.7-6.1c-1.2-1.9-2.4-3.8-3.7-5.6
		C37.3-72.8,36.5-72.9,35.7-73.2z M47.4-72.5c-2-0.5-3.9-0.9-5.9-1.3c-0.5-0.1-0.9,0-0.5,0.7c0.1,0.3,0.3,0.5,0.4,0.8
		c0.7,1.1,1.4,2.1,2.1,3.2c0.4,0.6,1,0.7,1.5,0.2c0.8-0.8,1.5-1.8,2.3-2.7C47.4-71.8,47.3-72.1,47.4-72.5z"/>
	<path d="M207.7-103.9c1.5-1.1,3-2.1,4.4-3.1c3-2,6-4,9-5.9c0.2-0.1,0.4-0.3,0.6-0.6c0.8-1,1.7-1.2,2.7-0.5c0.7,0.4,1.3,0.8,2,1.2
		c0.5,0.4,0.7,0.8,0.6,1.5c-0.3,1.3-0.5,2.6-0.6,4c-0.2,1.9-0.4,3.7-0.8,5.6c-0.3,1.1-0.2,2.3-0.4,3.5c-0.2,1.3-0.3,2.6-0.7,3.9
		c-0.1,0.3-0.9,0.6-1.2,0.5c-0.8-0.3-1.5-0.9-2.1-1.4c-0.9-0.8-0.1-1.8,0-2.7c0.2-1.7,0.3-2-1.1-2.8c-1.6-1-3.2-1.9-4.9-2.8
		c-0.5-0.3-1-0.5-1.5,0.2c-0.4,0.6-1.2,1-1.8,1.4c-0.2,0.1-0.5,0.3-0.7,0.2C209.9-102.1,208.5-102.3,207.7-103.9z M217.6-106.3
		c1.3,1,2.2,1.8,3.2,2.4c0.2,0.1,0.8-0.1,1-0.3c0.9-1.1,0.8-2.6,0.8-3.9c0-1-0.3-1.2-1.1-0.7C220.3-108.1,219.1-107.2,217.6-106.3z"
		/>
	<path d="M30.2,19.1c1.2-0.4,1.5,0.2,1.6,0.9c0.2,0.9,0.2,1.8,0.3,2.7c0.1,0.5-0.2,0.7-0.7,0.6c-0.7-0.2-1.3-0.2-2-0.5
		c-1-0.3-1.9-0.8-2.8-1.2c-2.6-0.9-5.2-1.9-7.8-2.7c-1.2-0.4-2.6-0.4-3.8-0.7c-0.3-0.1-0.6-0.5-0.7-0.9c-0.3-1.1-0.4-2.1-0.6-3.2
		c-0.1-0.6,0-1,0.8-1.2c1-0.3,2-1,2.9-1.6c1.2-0.7,2.5-1.5,3.7-2.3c2.2-1.5,4.4-3,6.6-4.5c0.5-0.3,0.9-0.8,1.3-1.1
		c0.5-0.4,0.7-0.1,0.9,0.3c1,2,0.1,4.2-2,5c-1.7,0.6-2.2,1.5-1.9,3.3c0.2,1.6,0.4,3.3,0.6,4.9c0.1,0.4,0.4,0.8,0.8,1
		C28.4,18.5,29.4,18.8,30.2,19.1z M21.4,16.1c1.2,0,1.8-0.8,1.5-1.8c-0.1-0.4-0.2-0.8-0.4-1.1c-0.2-0.2-0.7-0.5-0.8-0.4
		c-0.9,0.5-1.8,1-2.6,1.6c-0.1,0.1-0.1,0.8,0.1,0.8C20,15.6,20.8,15.9,21.4,16.1z"/>
	<path d="M203.4-105.4c-2.8-0.5-4.8-1.2-6.7-2.9c-2.5-2.3-2.6-5.1-2.4-8c0-0.8,0.7-1.5,1-2.2c0.7-1.8,1.6-3.4,3.3-4.4
		c3.4-2,7.2-1.9,10.7,0.4c2,1.4,3.1,3.1,3.2,5.5c0,0.8-0.2,2-0.8,2.4c-0.6,0.5-1.7,0.5-2.6,0.6c-0.1,0-0.3-0.7-0.3-1
		c0.4-1.6-0.4-4.1-1.9-4.9c-1.7-0.9-3.4-1.7-5.3-0.6c-1,0.6-1.8,1.4-2.3,2.5c-0.6,1.4-1.4,2.7-1.4,4.3c0.1,1.8,0.8,3.1,2.5,4
		c1.9,0.9,3.6,0.7,5.3-0.4c1-0.6,1.9-0.6,2.3,0.3c0.7,1.5,1.1,2.2-0.3,2.9C206.2-106.3,204.6-105.8,203.4-105.4z"/>
	<path d="M281,2.1c0.7-0.4,1.1-0.7,1.5-0.8c1.6-0.5,2.2-1.9,2.3-3.4c0.1-1.9-0.3-3.6-2-4.7c-0.6-0.4-1.3-0.7-1.9-0.7
		c-1.5,0-3.1,0.1-4.6,0.4c-1.8,0.4-3.4,2.2-3.3,4.4c0.1,1.7,0.5,3.2,1.9,4.1c0.6,0.4,1.5,0.6,2.2,0.7c0.6,0.1,0.8,0.6,0.5,0.9
		c-0.8,0.8-1.1,2.3-2.7,2.2c-0.4,0-1,0-1.2-0.3c-1.3-1.4-2.8-2.8-3.8-4.5c-0.6-1-0.6-2.5-0.5-3.7c0.2-2.2,1.1-4.3,2.7-5.8
		c1.1-1,2.6-1.9,4.1-2.4c2-0.6,4.1-0.6,6.1,0c1.6,0.5,3.1,1.4,4.1,2.8c2.3,3.2,2.6,7.5,0.4,10.9c-0.4,0.6-1,1-1.6,1.5
		c-0.2,0.1-0.5,0.2-0.7,0.1C283.4,3.5,282.3,2.9,281,2.1z"/>
	<path d="M264.6,78c-0.8-2-1.5-3.7-2.2-5.6c-0.7-2.1-1.4-4.2-2-6.3c-0.3-1.1-0.8-2-2-2.2c-0.5-0.1-1-0.5-1.5-0.7
		c-1.1-0.4-2.3-0.7-3.6-1.1c0,0.1,0-0.2,0-0.3c0.6-1.1,1.3-2.1,2-3.2c0.3-0.5,0.5-0.7,0.9-0.1c0.1,0.2,0.3,0.3,0.5,0.4
		c0.9,0.4,1.8,0.8,2.6,1.3c1.9,1.1,3.8,0.7,5.8,0.3c2.9-0.6,5.8-1.3,8.7-1.9c0.7-0.1,1.1,0.4,0.9,1.1c-0.3,0.9-0.6,1.8-1.1,2.6
		c-0.2,0.4-0.8,0.6-1.3,0.7c-2.4,0.5-4.8,0.9-7.2,1.4c-0.6,0.1-1.5,0.3-1.7,0.7s0.3,1.1,0.5,1.7c0.6,1.6,1.2,3.2,1.9,4.8
		c0.3,0.6,0.8,1,1.2,1.6c0.2,0.3,0.3,0.8,0.2,1.1c-0.6,1.2-1.4,2.3-2.1,3.5C265.1,78,264.7,78,264.6,78z"/>
	<path d="M20.6,45.9c-0.6-1.4-1.1-2.6-1.6-3.8c-0.1-0.2,0.1-0.5,0.2-0.6c0.9-1.2,1.9-2.4,2.9-3.6c0.9-1.1,1.7-2.3,2.6-3.5
		c0.7-0.9,0.7-1.2-0.3-1.6c-1.9-0.8-3.7-1.5-5.6-2.2c-0.5-0.2-1.1,0-1.6,0c-0.2,0-0.7-0.1-0.7-0.2c-0.3-1.3-0.6-2.7-0.8-4.1
		c0-0.1,0.1-0.3,0.2-0.7c1.9,0.7,3.7,1.4,5.4,2.1c1.9,0.8,3.7,1.6,5.6,2.3c0.6,0.2,1.3,0.3,2,0.3c1,0,2.1-0.1,3.1-0.2
		c0.6-0.1,1.1-0.4,1.7-0.7c0.5,0.5,1.2,2.9,0.9,3.6c-0.1,0.2-0.3,0.3-0.5,0.4c-1.5,0.4-3.3,0.4-4.6,1.2c-1.4,0.9-2.3,2.5-3.4,3.8
		c-1.2,1.6-2.3,3.2-3.5,4.8C22,44,21.4,44.8,20.6,45.9z"/>
	<path d="M73.2-106.7c-0.3,0.2-0.5,0.5-0.8,0.5c-1.6,0.4-2.7,1.5-3.5,2.9c-0.2,0.4-0.1,1.3,0.2,1.7c1,1.4,2.2,2.7,3.3,4
		c0.5,0.6,0.8,1.4,1.3,2c0.7,0.8,1.5,1.6,2.4,2.2c0.6,0.4,0.7,0.8,0.2,1.2c-1.1,0.8-2.2,1.5-3.2,2.1c-2-2.8-3.9-5.5-5.9-8.2
		c-0.5-0.6-1.1-1.1-1.8-1.5c-0.8-0.5-1.4,0.2-1.9,0.7c-0.8,0.8-1.4,1.7-2.2,2.5c-0.2,0.2-0.8,0.2-0.9,0.1c-0.6-0.7-1.2-1.5-1.7-2.3
		c-0.1-0.2,0.1-0.5,0.2-0.8c0,0,0.1-0.1,0.2-0.1c2.1-1.9,4.2-3.9,6.4-5.7c1.5-1.3,3.1-2.4,4.5-3.6c0.8-0.7,1.3-0.1,1.7,0.3
		C72.4-108.2,72.7-107.5,73.2-106.7z"/>
	<path d="M226.5,104.7c-1.3-0.2-2.9-1.5-2.8-2.5c0.4-2.3,1.7-3.4,3.8-3.2c0.9,0.1,2.1,2.4,2.2,3.7c0.2-0.3,0.4-0.5,0.5-0.8
		c0.5-1.7,1.6-3,3.3-3.4c0.6-0.1,1.5,0.1,2,0.5c0.6,0.5,0.9,1.2,0.6,2.1c-0.6,1.5-1.5,2.6-3.2,3c-0.2,0-0.3,0.2-0.6,0.4
		c0.3,0.2,0.5,0.4,0.7,0.5c1.2,0.7,1.6,2.2,1.2,3.4c-0.5,1.2-1.7,1.8-3.1,1.5c-1.3-0.2-2.2-1.1-2.3-2.5c0-0.2-0.2-0.4-0.3-0.6
		c-0.1,0.2-0.2,0.4-0.3,0.6c-0.4,2.2-1.3,3.1-3.7,3.1c-0.9,0-2.2-0.9-2.4-1.6c-0.2-0.8,0.2-2.2,1.1-2.7
		C224.3,105.7,225.5,105.2,226.5,104.7z"/>
	<path d="M277.3,43.8c0-0.4,0-0.6,0-0.8c-0.3-1.6-0.2-1.7,1.5-1.3c0.4,0.1,0.7,0.2,1.1,0.2c1,0.1,1.4,0.8,1,1.8
		c-0.8,2-1.6,4-2.4,5.9c-0.5,1.2-1,2.4-1.4,3.6c-0.3,0.8-0.4,1.7-0.6,2.5c-0.5,1.3-0.9,1.5-2.2,1.2c-0.1,0-0.2,0-0.3,0
		c-2-0.7-2.1-0.7-0.9-2.6c0.5-0.8,0.8-1.6,1.3-2.4c0.3-0.6,0-0.8-0.5-1c-2.9-1-5.8-2.1-8.7-3c-0.9-0.3-1.9-0.5-2.9-0.6
		c-0.5-0.1-0.7-0.3-0.5-0.8c0.4-0.8,0.7-1.7,1.1-2.5c0.4-1,0.8-0.9,2.4-0.3c2.7,0.9,5.4,1.9,8.1,2.9c0.4,0.2,0.9,0.3,1.3,0.4
		c1.4,0.4,2.4-0.3,2.4-1.7C277.1,44.6,277.2,44,277.3,43.8z"/>
	<path d="M13.7-1c0-1.5,0-2.9,0-4.2C15.5-5.1,17.3-5,19-5c2.4,0,4.7-0.1,7.1-0.2c1.1,0,1.6-0.9,1.5-2.2c-0.1-1.9,0-3.9,0-5.8
		c0-0.6-0.2-1.2-0.4-1.7c-0.3-0.6,0-0.8,0.5-0.8c1,0,1.9,0.1,2.9,0.2c0.2,0,0.6,0.6,0.6,1c0,1.5-0.2,3-0.3,4.5c-0.1,2.2,0,4.3,0,6.5
		c0,0.8-0.1,1.6-0.1,2.4c-0.1,0.6-0.3,1-1,0.5c-0.6-0.3-1.3-0.5-1.9-0.6c-2.6-0.1-5.3-0.2-7.9-0.2C17.8-1.3,15.8-1.1,13.7-1z"/>
	<path d="M236.2-104.1c0.9,0,2.5,1.1,2.6,1.8c0.1,0.3-0.1,0.6-0.3,0.9c-1.9,2.5-3.9,5.1-5.8,7.6c-0.4,0.5-0.8,1.1-0.9,1.7
		c-0.1,0.4,0,1,0.2,1.3c0.6,0.6,1.3,1.1,1.9,1.7c1.6,1.4,3.3,2.8,4.8,4.3c0.7,0.8,0.6,1.3-0.5,2c-0.6,0.4-1.3,0.9-2.1,0.1
		c-0.9-0.8-1.9-1.4-2.8-2.2c-1-0.8-1.9-1.7-2.8-2.5c-1-0.9-2.1-1.8-3.2-2.6c-1.1-0.9-1.1-1.5-0.2-2.6c1.6-2,3.1-4,4.6-6
		c1.3-1.7,2.6-3.5,3.9-5.2C235.8-104,236.1-104.1,236.2-104.1z"/>
	<path d="M78.6,108c0.1-2,0.6-2.8,1.8-3.1c0.9-0.2,2-0.2,2.6,0.6c0.9,1.1,0.6,2.9-0.5,4.4c1,0.4,2.1,0.7,3.1,1.2
		c1.1,0.5,1.5,1.7,1,2.8c-0.5,1.1-1.7,1.5-2.8,1.2c-1.6-0.4-2.6-1.4-3.4-3c-0.3,1.8-1.2,2.9-3,2.7c-1.1-0.1-2.1-0.8-2.4-1.9
		c-0.3-1.3,0.9-1.8,1.6-2.3c-1.2-0.6-2.5-1-3.6-1.8s-1.2-2.4-0.4-3.8c0.5-0.8,1.5-1,2.1-0.6c1.1,0.6,2,1.6,2.9,2.4
		C78.1,107,78.3,107.4,78.6,108z"/>
	<path d="M190.1-129.4c0.9,0.2,1.8,0.3,2.6,0.5c0.5,0.1,0.7,0.2,0.5,0.8c-0.7,2-1.4,4.1-2,6.2c-0.5,1.7-1.1,3.5-1.5,5.2
		c-0.4,1.5-0.5,3.1-0.9,4.6c0,0.2-0.4,0.5-0.6,0.5c-1.1-0.2-2.1-0.5-3.1-0.8c-0.1,0-0.3-0.4-0.3-0.6c0.4-1.3,0.8-2.5,1.2-3.7
		c0.2-0.7,0.4-1.3,0.6-2c0.3-1.3,0.6-2.6,0.8-3.9c0.4-2,1.7-3.9,1.1-6.2c0-0.1,0.3-0.4,0.5-0.4c0.3-0.1,0.7,0,1,0
		C190.1-129.4,190.1-129.4,190.1-129.4z"/>
	<path d="M126.7,119.6c-0.2,0.3-0.3,0.5-0.3,0.5c-2.4,0.6-1.8,2.7-2.2,4.3c-0.2,0.9-0.3,1.9-0.5,2.8c-0.4,2-0.8,4-1.1,5.9
		c-0.1,0.9,0,1.8,0.1,2.6c0.1,0.9-0.1,1.2-1,1c-1.4-0.3-2.8-0.6-4.3-1c0.2-0.4,0.3-0.7,0.6-0.9c1-0.7,1.4-1.8,1.3-2.9
		c0-2.3,0.9-4.3,1.2-6.4c0.2-1.3,0.6-2.6,0.6-3.9c0-0.8-0.4-1.7-0.6-2.7C122.3,118.6,124.4,119.5,126.7,119.6z"/>
	<path d="M269.8,14.3c0.1-1.6,0.2-3.1,0.2-4.8c2.1,1.3,4.2,0.9,6.2,1.1c2.3,0.2,4.5,0.4,6.8,0.5c1.1,0.1,2.2,0,3.3-0.1
		c0.8-0.1,1.2,0.2,1.1,1.1c-0.1,0.7-0.1,1.4-0.3,2.1c-0.2,1-1,1.1-2.4,0.9c-1.7-0.3-3.4-0.4-5.1-0.6c-1.4-0.1-2.8-0.3-4.3-0.4
		c-0.6,0-1.3,0.1-1.9,0.2C272.2,14.3,271,14.3,269.8,14.3z"/>
	<path d="M141.2-82.8c0.9-0.1,1.7-0.4,2.5-0.4s1.2,0.6,1.3,1.5c0.2,1.7,1.8,1.5,2.9,2c1.5,0.7,2.9,1.4,4.4,2
		c1.6,0.7,1.5,1.9,1.3,3.4c-0.2,1.4-0.3,2.7-1.7,3.5v0.1c1.7-0.1,3.4-0.2,5.1-0.2c0.1-0.1,0.2-0.3,0.3-0.4c-2.7-0.5-2.1-2.3-1.9-4
		c0.1-0.9,0.5-1.2,1.4-0.9c1,0.3,2,0.7,3,0.9c0.4,0.1,1-0.1,1.3-0.3c1.7-1.2,2.6-1.1,3.9,0.7c0,0,0.1,0.1,0.2,0.1
		c2-0.9,3.2,0,3.9,1.9c1.2-1.1,2.1-1.2,3.4-0.2c0.2,0.2,0.3,0.6,0.3,0.9c-0.3,1.3-0.3,1.3,1,1.7c0.9,0.3,1.8,0.8,2.7,1.2
		c1,0.6,0.9,2.6-0.2,3.6c-0.5,0.5-0.8,1.1-0.5,1.9c0.6,1.5,1.2,3.1,1.7,4.6c0.9,2.8,1.8,5.6,2.7,8.3c0.4,1.2,1,2.3,1.4,3.4
		c0.8,2.2,1.6,4.5,2.4,6.7c1.1,3.1,2.3,6.2,3.5,9.3c0.7,1.8,1.3,3.7,2,5.5c0.8,2,1.6,4,2.3,6c0.6,1.7,1.2,3.4,1.7,5.1
		c0.3,0.9,1,1.1,1.8,1.2c2.1,0.1,4.2,0,6.2,0.4c1.3,0.2,2.4,1.2,3.6,1.8c0.2,0.1,0.3,0.4,0.5,0.5c2.7,1.2,4.1,3.5,5.2,5.9
		c0.7,1.5,0.7,3.3,1,4.9c0.4,2.2-0.7,3.8-1.8,5.4c-0.6,0.9-1.5,1.6-2.2,2.4c-0.3,0.3-0.5,0.7-0.6,1.1c-0.2,1.2,0,1.4,1.2,1.4
		c2.1,0,4.2,0,6.3,0c2,0,4-0.2,6-0.2c2.1,0,3.2,1.3,2.6,3.3c-0.3,1.3-0.5,2.4-0.3,3.8c0.3,1.7-0.1,3.5-0.2,5.3c0,0.5,0,0.9,0,1.4
		c0,0.8,0.1,1.7,0,2.5c-0.2,1.2-1.2,1.9-2.2,2c-1.4,0.1-2,1-2.5,2c-1.1,2-2,4-3,6c-0.5,1.1-1.1,2.1-1.4,3.3c-0.2,0.7,0,1.6,0.3,2.3
		c0.7,1.9,1.7,3.7,2.4,5.5c0.4,0.9,0.5,2,0.8,2.9c0.5,1.8,1,3.7,1.6,5.5c0.6,1.7,1.3,3.3,1.9,5c0.7,1.8,1.8,3.5,2,5.3
		c0.2,1.6,1.2,2.7,1.5,4.2c0.1,0.4,0,0.8,0,1.2c0.1,0.7,0.1,1.5,0.3,2.2c0.3,0.9,0.4,1.6-0.2,2.6c-0.8,1-1,2.4-1.6,3.6
		c-0.4,0.8-0.9,1.5-1.4,2.2c-1.1,1.3-2.2,2.7-3.5,3.8c-1,1-2.3,1.7-3.4,2.5c-1.5,1-3,2.1-4.6,2.9c-1.7,0.8-3.5,1.3-5.3,1.9
		c-1.8,0.6-3.5,1.3-5.3,1.8c-1.9,0.5-3.8,1-5.7,1.4c-2,0.4-4,0.8-5.9,1.1c-1.1,0.2-2.3,0.4-3.5,0.5c-2,0.2-4,0.4-6,0.6
		c-1.6,0.2-3.2,0.4-4.8,0.6c-2.6,0.3-5.3,0.7-7.9,1c-1.4,0.1-2.7,0.2-4.1,0.2c-2.3,0-4.6,0-6.9,0c-3.9,0-7.9,0-11.8-0.2
		c-2.7-0.1-5.4-0.5-8.1-0.8c-2-0.2-4-0.2-6-0.4c-3-0.4-5.9-0.4-8.8-1.3c-2-0.6-4.2-0.7-6.2-1.3c-3.4-1-6.9-2-10.2-3.4
		c-2.9-1.2-5.5-3-8.3-4.6c-3.6-2-6.3-5.1-9.2-7.9c-1.3-1.2-2.2-2.8-3.1-4.4c-0.3-0.5,0-1.5,0.3-2.2c1.2-2.2,1.4-4.7,1.8-7.1
		c0.1-0.6,0.3-1.2,0.5-1.8c0.1-0.3,0.4-0.8,0.7-0.8c1.5,0,1.7-1.3,2-2.2c0.8-2.4,1.5-4.8,2.2-7.2c0.9-2.9,1.8-5.9,2.7-8.8
		c0.6-1.9,1.2-3.8,1.7-5.7s1-3.7,1.6-5.6c0.4-1.3,0.9-2.5,1.2-3.7c0.7-2.5,1.5-4.9,2.2-7.4c0.8-2.8,1.6-5.7,2.4-8.6
		c0.8-2.6,1.7-5.2,2.5-7.8c0.5-1.7,1-3.4,1.5-5.1c0-0.1,0.1-0.3,0.1-0.4c-0.4-0.8,0.1-1.4,0.4-2.1c0.7-1.5,1.2-3.1,1.7-4.6
		c0.4-1.4,0.6-2.8,1.1-4.2c0.4-1.3,1.1-2.4,1.5-3.7c0.7-2.1,1.2-4.3,1.9-6.4c0.4-1.4,1-2.8,1.5-4.2c0.2-0.7,0.2-1.4,0.4-2
		c0.9-2.9,1.8-5.8,2.8-8.8c0.2-0.6,0.3-1.2,0.5-1.8c0.4-1.4,0.9-2.8,1.4-4.2c1.2-3.8,2.4-7.7,3.6-11.5c0.7-2.5,1.3-5,2.1-7.4
		c0.6-2.1,1.5-4.2,2.2-6.3c0.7-2.2,1.2-4.4,1.9-6.6c0.3-0.9,0.7-1.7,1-2.6s0.5-1.8,0.8-2.7c0.2-0.7,0.6-1.4,0.8-2.1
		c0.2-0.6,0-1-0.6-1.3c-1-0.5-1.3-1.7-0.8-2.8c0.6-1.4,1.3-1.8,2.5-1.5c0.7,0.2,1.3,0.1,1.7-0.6c0.4-0.7,1.3-0.7,1.9-0.1
		c0.2,0.2,0.3,0.4,0.4,0.6c0.6,1,1,1.8,2.4,0.9C139.7-85.1,140.8-84.1,141.2-82.8z M134.2,1.8c-0.1,1.1,0.3,2.6,1,2.8
		C134.8,3.6,134.5,2.7,134.2,1.8c-0.4-3-0.5-3.2-1.3-3.2c0.2,0.7,0.4,1.5,0.6,2.2C133.6,1.1,134,1.4,134.2,1.8z M168.1,55.5
		c0.3-0.1,0.5-0.2,0.8-0.4c1.1-0.7,2.2-1.8,3.4-2.2c1.4-0.4,3-0.3,4.6-0.3c1.9,0,3.9,0.2,5.8,0.3c0.2,0,0.4-0.2,0.7-0.3
		c0-0.1-0.1-0.2-0.1-0.2c-1.6,0-3.1,0-4.7,0c-1.1,0-2.3,0.2-3.4,0c-1.6-0.3-3.1,0-4.4,1C169.8,54,169,54.8,168.1,55.5
		c-1.6,0.3-2.9,1.1-4,2.4C165.4,57.2,166.8,56.4,168.1,55.5z M164.7-2.9c0-0.3,0.1-0.6,0-0.9c-0.3-1.2-0.6-2.4-1-3.6
		c-1-3.5-2.1-7-3.2-10.5c-1-3.2-2-6.4-3.1-9.6c-0.4-1.1-0.8-2.2-1.3-3.2c-0.1,0-0.2,0.1-0.2,0.1c0.3,1.1,0.6,2.1,0.9,3.2
		c0.5,1.8,1.1,3.5,1.6,5.3c0.6,1.9,1.3,3.8,1.9,5.7c0.2,0.6,0.4,1.1,0.5,1.7c0.1,0.4,0.2,0.9,0.3,1.3c0.7,2.1,1.4,4.2,2.1,6.3
		C163.8-5.7,164.2-4.3,164.7-2.9c0.1,0.6,0.2,1.2,0.3,1.8c0.7,2.1,1.5,4.2,2.1,6.4c0.8,2.5,1.4,5.1,2.2,7.6c0.9,2.9,1.8,5.7,2.7,8.6
		c0.8,2.4,1.6,4.9,2.4,7.3c0.2,0.5,0.3,0.9,0.5,1.4c0-0.9-0.1-1.7-0.3-2.5c-0.7-2.3-1.5-4.6-2.3-7c-0.7-2.1-1.3-4.1-1.9-6.2
		c-0.5-1.6-0.9-3.2-1.4-4.7c-0.3-1-0.7-2-1-3c-0.1-0.3-0.1-0.6-0.2-0.9c-0.7-2-1.3-4-2-6.1C165.4-1,165-2,164.7-2.9z M163.1-25.2
		c-0.2-0.9-0.3-1.9-0.5-2.8c-0.4-1.4-0.9-2.7-1.4-4.1c-0.1,0-0.2,0.1-0.3,0.1C161.3-29.7,161.9-27.4,163.1-25.2
		c0.5,1.8,0.8,3.7,1.4,5.6c0.8,2.6,1.7,5.2,2.5,7.8c0.9,2.8,1.7,5.6,2.6,8.4c1.2,3.6,2.3,7.3,3.5,10.9c0.8,2.5,1.6,4.9,2.4,7.3
		c0.1,0,0.2,0,0.2-0.1c-0.3-1-0.5-2-0.8-3c-0.5-1.6-1.1-3.2-1.7-4.7c-0.7-2.1-1.4-4.2-2-6.3c-0.6-1.9-1-3.8-1.6-5.6
		c-0.9-2.7-1.9-5.4-2.7-8.1c-1-3.3-1.9-6.6-3-9.9C163.8-23.8,163.4-24.5,163.1-25.2z M114.6,43.5L114.6,43.5c0,0.1,0,0.3,0.1,0.3
		c1,1,2,2,3.1,2.9c0.2,0.1,0.4,0.2,0.6,0.2c1.1,0,2.1-0.1,3.2-0.2c0.6,0,1.3,0,1.4,0.7c0,0.2-0.6,0.6-1,0.7
		c-0.8,0.3-1.6,0.4-2.6,0.6c0.7,0.7,1.3,0.9,2.2,0.7c0.9-0.2,2-0.1,2.9-0.1c0.6,0,0.9-0.1,0.7-0.8c-0.2-0.4-0.2-0.9-0.3-1.3
		c-0.1-1.3-0.7-1.6-1.9-1.5c-1.3,0.1-2.7,0-4.1,0c-0.2,0-0.3-0.2-0.6-0.4c1.8-1.3,3.7-0.9,5.8-0.8c-0.5-1-0.6-2.2-1.3-2.6
		c-0.7-0.4-1.9-0.1-2.9-0.1c0,0.1,0,0.2,0,0.3c2.2,0.1,2.2,0.1,2.1,1.2c-1.5,0.2-3.1,0.6-4.6-0.2c0-0.1-0.1-0.3-0.1-0.4
		c0.6-0.3,1.2-0.5,1.8-0.8c-1.5,0-2.9,0-4.4,0c-0.3,0-0.7,0.2-1.1,0.3C114.1,42.8,114.3,43.1,114.6,43.5z M217,78.7
		c0-0.1-0.1-0.2-0.1-0.3c-0.6,0.1-1.2,0.1-1.8,0.3c-1.4,0.5-2.8,1.1-4.3,1.4c-2.3,0.6-4.6,0.9-6.9,1.4c-1.3,0.3-2.6,0.6-4,0.8
		c-2.3,0.3-4.5,0.5-6.8,0.8c-2.7,0.4-5.5,0.8-8.2,1.2c-2.1,0.3-4.3,0.4-6.5,0.6c-0.6,0.1-1.2,0-1.9,0c-2.3,0.2-4.6,0.6-6.8,0.8
		c-1.1,0.1-2.2,0-3.2,0.1c-3.2,0.1-6.4,0.3-9.6,0.3c-1.7,0-3.3-0.2-5-0.2c-2.2,0-4.5,0.2-6.7,0.2c-1.8,0-3.7-0.1-5.5-0.2
		c-0.5,0-1,0.1-1.6,0.1c-2.7-0.2-5.5-0.5-8.2-0.7s-5.4-0.4-8.1-0.6c-1-0.1-1.9-0.1-2.9-0.2c-2.8-0.4-5.6-0.9-8.3-1.4
		c-3.5-0.6-7-1.2-10.5-1.8c-1.4-0.2-2.8-0.4-4.2-0.6c-1.5-0.3-3-0.7-4.6-1c0,0.1-0.1,0.2-0.1,0.4c0.5,0.2,0.9,0.3,1.4,0.5
		s1,0.4,1.6,0.6c-0.4,0.2-0.5,0.2-0.9,0.4c0.3,0.2,0.6,0.3,0.8,0.4c0.6,0.6,2.1,0.3,2,1.8c0,0.1,0.3,0.2,0.5,0.2
		c0.3,0.1,0.6,0.1,0.7,0.1c0.3-0.3,0.6-0.8,0.9-0.8c0.5,0,0.9,0.2,1.4,0.3c-0.1,0.3-0.2,0.6-0.3,1.1c0.4,0.1,0.8,0.2,1.2,0.4
		c0.5,0.2,1.1,0.4,1.5,0.8c0.1,0.1-0.3,0.7-0.4,1.2c0.1,0,0.2,0.2,0.4,0.2c1.2,0.2,2.3,0.3,3.5,0.4c1.1,0.1,2.3,0.2,3.3,0.5
		c0.8,0.2,1,0.9,0.6,1.7c-0.2,0.3-0.2,0.8-0.4,1.1c-0.2,0.4-0.2,0.8,0.3,0.7c0.3,0,0.6-0.4,0.7-0.7c0.2-1.3,0.5-1.5,1.8-1.2
		c0.7,0.2,1.5,0.5,2,0.3c1.3-0.5,2.6-0.2,3.8-0.1c0.8,0,1.7,0.1,2.5,0.2c1,0.2,2,0.5,3,0.6c1.7,0.1,3.4,0.1,5,0.2
		c0.7,0,1.3,0.3,1.9,0.4c0.7,0.1,0.7,0.5,0.5,1c-0.1,0.3-0.2,0.6-0.4,1.1c1-0.2,1.7-0.4,2.5-0.6c-0.2-0.2-0.3-0.2-0.4-0.3
		c-0.2-0.3-0.5-0.5-0.7-0.8c0.3-0.2,0.6-0.5,1-0.7c0.2-0.1,0.5,0,0.8,0c2.1,0.2,4.1,0.4,6.2,0.6c2.1,0.1,4.2,0.1,6.3,0.2
		c0.7,0,1.5,0.1,2.2,0.2c0.3,0.1,0.6,0.5,0.8,0.9c0.2,0.2,0.2,0.5,0.2,0.5c0.5-0.5,0.9-1.1,1.5-1.4c0.5-0.2,1.3,0,1.9,0
		c1.4,0,2.9,0,4.3,0c-0.6-0.3-1.3-0.3-1.8-0.5c-0.3-0.1-0.5-0.4-0.8-0.7c0.3-0.2,0.5-0.4,0.8-0.5c0.7-0.1,1.5-0.2,2.2-0.2
		c0.6,0,1.2,0,1.8,0.2c1,0.3,1.1,0.6,0.6,1.6c0.2,0.1,0.3,0.1,0.5,0.1c1,0,2.1-0.1,3.1-0.1c1.3,0.1,2.7,0,3.1,1.7c0,0,0.1,0,0.2,0
		c0-0.3,0.1-0.5,0-0.8c0-0.2-0.1-0.5-0.2-0.7c0.4-0.2,0.7-0.4,1-0.6c-1.4-1-1.4-1.1,0-1.9c-0.2-0.3-0.4-0.5-0.7-1
		c1.4-0.3,2.6-0.5,3.7-0.8c-0.1-0.3-0.4-0.7-0.3-0.8c0.1-0.3,0.5-0.5,0.9-0.5c1.1-0.1,2.2-0.2,3.3-0.2c0.6,0,1.2-0.1,1.5,0.7
		c-0.4,0.2-0.7,0.4-1.4,0.7c1.3-0.1,2.2,0.2,2.1,1.5c0.4,0,0.7,0,1-0.1c1.6-0.1,3.3-0.4,4.9-0.4c1.7,0,3.3-1.1,5-0.3
		c0.1,0,0.2,0,0.3,0c1.8-0.4,3.6-0.8,5.4-1.2c0.7-0.2,1.4-0.3,1.4-1.2c0-0.3,0.3-0.7,0.6-0.8c0.7-0.3,1.5-0.5,2.3-0.6
		c2.4-0.5,4.8-1.1,7.2-1.5c2.1-0.4,4.1-1.2,6.3-0.9c0.8,0.1,1.7-0.1,2.8-0.2c-1-0.3-1.8-0.6-2.5-0.8c0-0.1,0-0.2,0-0.3
		C212.9,80.5,215,79.6,217,78.7z M206.5,67.6c-0.4-1-0.7-1.7-0.9-2.4c-0.7-1.9-1.5-3.8-2.2-5.7s-1.3-3.7-1.9-5.6
		c-0.7-2.3-1.4-4.5-2.2-6.8c-0.3-0.8-0.8-1.4-1-2.2c-0.3-0.7-0.3-1.5-0.5-2.2c-0.4-1.3-0.8-2.5-1.3-3.7c-0.3-0.8-0.7-1.6-1-2.4
		c-0.3-0.6-0.6-0.5-0.9-0.1c-0.3,0.5-0.6,1-0.9,1.5c-1.1,2.3-2.1,4.6-3.8,6.6c-1.1,1.4-1.7,3-0.6,4.7c0.2,0.3,0.4,0.7,0.4,1
		c0,1.9,1.1,3.5,1.6,5.3c0.5,1.6,1,3.2,1.6,4.8c0.4,1.1,0.7,2.2,1.1,3.3c0.5,1.5,1.2,2.9,1.7,4.4c0.3,0.8,0.6,1.2,1.4,1.1
		c2.1-0.2,4.2-0.5,6.2-0.8C204.3,68.2,205.4,67.9,206.5,67.6z M179.4,71.4c-0.1-0.3-0.1-0.7-0.2-1c-0.6-2-1.2-3.9-1.7-5.9
		c-0.6-2.3-1.2-4.6-1.8-6.9c-0.4-1.4-1.1-2-2.4-1.5c-1.3,0.5-2.5,1.2-3.6,1.9c-1.4,0.9-2.6,1.9-4,2.7c-1.8,1.1-3.6,2.1-5.4,3.2
		c-2.4,1.5-4.7,2.9-7,4.4c-1.4,0.9-2.7,1.8-4,2.7c-0.4,0.3-0.6,0.7-0.9,1.1C152.9,73.5,174.3,72.6,179.4,71.4z M191.6,4.9
		c0.6,0.1,1.3,0.2,1.9,0.3c0.3,0,0.5,0,0.8,0c0-0.3,0-0.6-0.1-0.8c-0.5-0.7-1.3-1.3-1.5-2c-0.6-2.3-2.5-4-2-6.7
		c0.3-1.5,0.1-3.2,0.9-4.6c0.1-0.3,0.1-0.6,0.2-1.1c-0.6,0.2-0.9,0.2-1.2,0.4c-1.1,0.7-2.1,1.4-3.2,2.1c-1.4,0.9-2.9,1.6-4.3,2.5
		c-2.2,1.4-4.5,2.8-6.7,4.2c-0.7,0.5-1.5,1-2,1.7c-0.3,0.4-0.4,1.2-0.3,1.8c0.2,1,0.7,2,1.1,3c0.3,0.9,0.5,1.8,0.9,2.7
		c0.1,0.4,0.5,0.9,0.8,0.9c2.4,0.6,4.5,0.1,6.5-1.3c1.3-0.9,2.5-1.8,3.9-2.6s2.9-1.5,4.3-2.3c0.5-0.3,0.9-0.3,1.7,0.7
		C192.6,4.3,192,4.6,191.6,4.9z M185.7,81.1c-1.4,0-2.8,0-4.2,0c-2.2,0.1-4.3,0.2-6.5,0.4c-0.2,0-0.5,0.1-0.7,0.1
		c-0.9,0-1.9,0.1-2.8,0.1c-0.3,0-0.6-0.4-0.8-0.7c0,0,0.2-0.4,0.3-0.5c0.4-0.2,0.9-0.4,1.3-0.4c2.2-0.2,4.3-0.4,6.5-0.6
		c0.6,0,1-0.1,0.9-0.8c0-0.7-0.3-1-1-1c-1.1,0.1-2.3,0.1-3.4,0.2c-3.4,0.3-6.8,0.6-10.2,0.8c-2.1,0.1-4.3,0.2-6.5,0.2
		c-1.3,0-2.6,0-4,0c-1.3,0-2.5,0.2-3.8,0.2c-2.7,0-5.4,0-8,0c-0.7,0-1.2,0.3-1.3,0.9c0,0.2,0.7,0.7,1.1,0.7c2.9,0.1,5.7,0.1,8.6,0
		c1.8,0,3.6-0.1,5.4-0.1c1.4,0,2.9,0.1,4.3,0c2.7,0,5.3-0.1,8-0.2c0.2,0,0.5,0.4,0.7,0.6c-0.2,0.2-0.3,0.6-0.6,0.7
		c-0.6,0.2-1.2,0.3-1.7,0.3c-2.2,0.1-4.4,0.1-6.7,0.2c-1.7,0.1-3.3,0.3-5,0.4c-0.9,0.1-1.9,0-2.8,0c-1.3,0-2.7,0-4,0
		c-1.3-0.1-2.5-0.3-3.8-0.4c-2-0.1-4,0-6,0c-0.8,0-1.5,0-2.3-0.1c-0.9-0.1-1.8-0.3-2.7-0.3c-1.8-0.2-3.5-0.3-5.3-0.4
		c-1.1-0.1-2.2,0-3.4,0c-0.5,0-1.1,0-1.6-0.1c-2.1-0.3-4.1-0.6-6.2-0.9c-1.9-0.2-3.9-0.3-5.8-0.7c-3.8-0.7-7.6-1.6-11.4-2.4
		c-2.7-0.6-5.4-1.1-8.1-1.6c-2-0.4-4-0.8-6-1.2c-0.5-0.1-1.1-0.2-1.6-0.2c-0.1,0-0.3,0.2-0.4,0.3c0.2,0.1,0.3,0.4,0.5,0.4
		c2,0.5,3.9,1.1,5.9,1.6c1.6,0.4,3.3,0.8,4.9,1.1c1.3,0.3,2.6,0.5,3.9,0.7c1.9,0.4,3.8,0.8,5.7,1.1c1.6,0.3,3.2,0.6,4.8,0.8
		c2.7,0.4,5.3,0.7,8,1c1.6,0.2,3.1,0.3,4.7,0.4c2.4,0.2,4.8,0.5,7.1,0.8c0.8,0.1,1.6,0,2.4,0c2.5,0.1,5,0.3,7.4,0.4
		c2.4,0.1,4.7,0.1,7.1,0.2c2.1,0.1,4.2,0.2,6.3,0.2c2.2,0,4.5-0.1,6.7-0.2c1.8,0,3.7,0.1,5.5,0c1.9-0.1,3.7-0.4,5.6-0.6
		c3.1-0.2,6.3-0.5,9.4-0.6C182.3,82,184.1,82.2,185.7,81.1z M200.6,4.5c0.1,0.1,0.2,0.2,0.3,0.2c2,0,4.1,0,6.1-0.1
		c0.4,0,1-0.2,1.2-0.5c0.6-0.8,1.1-1.7,1.3-2.8c0.6-3.1-0.7-5.7-2.1-8.2c-0.7-1.2-2.1-2.1-3.2-3.1c-1.4-1.3-3.3-1.5-5-1.8
		c-1.3-0.2-2.3,0.1-2.8,1.4c0.5,0.2,1.3,0.1,0.9,1.1c0,0.1,0.3,0.3,0.5,0.4c0.3,0.1,0.6,0.2,0.9,0.3c-0.1,0.3-0.2,0.5-0.4,0.8
		c-0.2,0.2-0.4,0.3-0.6,0.5c-0.5,0.3-0.9,0.6-1.7,1.1c1.4,0.1,1.6,0.7,1.1,1.5c-0.1,0.1,0,0.4,0.1,0.5c1,0.4,0.7,1.1,0.3,1.9
		c0.7-0.1,1.3-0.1,1.9-0.1c0,0.1,0.1,0.2,0.1,0.3c-0.4,0.5-0.8,1-1.4,1.6c0.6-0.2,1-0.4,1.5-0.5c0.3,0,0.6,0.2,1,0.3
		c-0.1,0.2-0.3,0.5-0.4,0.7c-0.4,0.4-0.8,0.7-1.2,1c0.5,0.1,0.9-0.1,1.3-0.1c0.2,0,0.6,0.1,0.7,0.2c0.1,0.1-0.1,0.5-0.2,0.7
		c-0.2,0.3-0.4,0.4-0.7,0.8c1,0,1.8-0.9,2.4,0C201.8,3.2,201.2,3.8,200.6,4.5z M219.9,66.8c0-0.1-0.1-0.2-0.1-0.3
		c-1.8,0.4-3.6,0.9-5.3,1.3c-2.5,0.6-5,1.3-7.6,1.8c-2.4,0.5-4.8,0.8-7.1,1.2c-2,0.3-4,0.6-6,0.8c-1.8,0.2-3.6,0.4-5.4,0.6
		c-2,0.3-4,0.7-6,1c-2.5,0.3-5.1,0.6-7.6,0.8c-3.6,0.3-7.2,0.5-10.8,0.6c-2.5,0.1-5,0-7.5,0c-0.6,0-1.2-0.2-1.8-0.2
		c-1.5,0-3,0.2-4.5,0.2c-1.9,0-3.9-0.2-5.8-0.1c-1.3,0-2.6,0.4-3.9,0.3c-3.1-0.2-6.1-0.5-9.2-0.8c-0.8-0.1-1.5-0.1-2.3-0.2
		c-1.7-0.2-3.4-0.4-5.2-0.6c-1.1-0.2-2.2-0.5-3.3-0.6c-2.6-0.3-5.2-0.5-7.7-0.9c-2.7-0.4-5.4-1.1-8.1-1.6c-0.9-0.2-1.8-0.2-2.7-0.4
		c-2-0.4-4-0.9-6-1.3c-2.4-0.5-4.7-1-7.1-1.5c-0.6-0.1-1.1-0.2-1.9-0.4c0.2,0.5,0.3,0.8,0.5,0.9c1,0.4,2,0.8,3,1c2,0.5,4,0.8,6,1.3
		c1.1,0.3,2.2,0.9,3.3,1.1c2,0.4,4,0.6,6,0.9c3.7,0.6,7.5,1.2,11.2,1.8c3.5,0.5,7,0.6,10.5,1.4c0.9,0.2,2,0,3,0.1
		c2.2,0.2,4.3,0.4,6.5,0.6c1.1,0.1,2.3,0,3.4,0c1.3,0.1,2.5,0.4,3.8,0.4c3.4,0.1,6.9,0,10.3,0c2.3,0,4.6-0.1,6.9-0.2
		c3.5-0.1,7.1-0.3,10.6-0.4c1.4-0.1,2.8-0.1,4.2-0.2c3.3-0.4,6.6-0.8,9.9-1.2c1.9-0.2,3.8-0.4,5.7-0.6c2-0.3,4.1-0.6,6.1-1
		c2.5-0.4,5-0.8,7.5-1.4c2.6-0.6,5.2-1.4,7.8-2c1.8-0.5,3.5-0.8,5.3-1.3C218.8,67.5,219.4,67.1,219.9,66.8z M128.5-26
		c0.1,0.6,0.2,1.1,0.3,1.5c1.1,3.7,2.7,7.3,3.3,11.2c0,0.3,0.8,0.8,0.9,0.7c0.5-0.3,1-0.7,1.3-1.1c1.1-2.1,2.1-4.2,3.1-6.3
		c0.2-0.5,0.2-1.1,0.2-1.7c0-0.8-0.2-1.7-0.3-2.5c-0.1-1.2-0.3-2.4-0.4-3.6c-0.1-1.3-0.1-2.6-0.2-3.9c0-0.7-0.1-1.4-0.3-2.1
		c-0.1-0.6-0.5-1-1.2-0.9c-1.1,0.1-2.2,0-3.3,0c-0.7,0-1,0.3-1.2,0.9c-0.4,1.5-0.9,2.9-1.4,4.4C129.1-28.2,128.8-27,128.5-26z
		 M150.6,51.5c1.7-0.9,3.2-1.5,4.6-2.3c1.5-0.9,2.9-1.9,4.3-2.8c1.8-1.1,3.6-2.2,5.4-3.3c1.5-1,3.1-2,4.5-3c0.3-0.2,0.6-0.8,0.5-1
		c-0.4-1.3-0.8-2.6-1.3-3.8c-0.1-0.3-0.7-0.6-1-0.5c-1.1,0.5-2.1,1-3.1,1.6c-3.4,2.1-6.7,4.1-10,6.3c-0.8,0.5-1.8,1.2-2.2,2.1
		c-0.8,1.9-1.2,4-1.8,6C150.6,50.9,150.6,51.1,150.6,51.5z M145.4-75.2c-0.2,0.1-0.3,0.2-0.5,0.2c0.3,1.2,0.6,2.3,0.9,3.5
		c1,3.5,2,7,3.1,10.5c1.2,4,2.4,8,3.7,12c0.6,1.9,1.1,3.8,1.7,5.6c0.7,2.3,1.5,4.5,2.2,6.8c0.8,2.6,1.5,5.3,2.3,7.9
		c0.7,2.3,1.4,4.5,2.2,6.8c0.6,1.9,1.3,3.9,1.9,5.8c1,3.2,1.9,6.4,2.9,9.6c0.3,1.1,0.9,2.2,1.2,3.3c0.5,1.5,0.8,3.1,1.3,4.7
		c0.8,2.5,1.6,4.9,2.4,7.3c0.7,2.1,1.4,4.3,2,6.4c0.5,1.4,1,2.9,1.4,4.3c0.5,1.6,0.9,3.2,1.4,4.8c1.2,3.8,2.4,7.6,3.7,11.4
		c0.2,0.7,0.4,1.6,1.5,1.9c-0.1-0.3-0.1-0.6-0.2-0.8c-0.6-2-1.2-4.1-1.8-6.1c-0.2-0.7-0.3-1.5-0.6-2.2c-1.1-3-2.3-6-3.3-9.1
		c-0.7-2-1.2-4.1-1.9-6.2c-1.3-4.3-2.6-8.5-3.9-12.8c-1-3.2-1.9-6.5-2.8-9.7c-0.5-1.6-0.9-3.2-1.5-4.8c-0.9-2.1-1.4-4.4-2.1-6.6
		c-0.6-2-1.2-4.1-1.8-6.1c-0.7-2.2-1.4-4.5-2.1-6.7c-0.3-1.1-0.6-2.1-1-3.2c-0.2-0.7-0.6-1.3-0.8-2c-0.9-3.1-1.8-6.2-2.8-9.3
		c-1.1-3.6-2.4-7.2-3.5-10.8c-0.9-2.8-1.7-5.7-2.5-8.5c-0.6-2.3-1.2-4.5-1.8-6.8C146.1-74.5,145.7-74.8,145.4-75.2z M143.4,9.6
		C143.5,9.6,143.5,9.6,143.4,9.6c0,0.1,0,0.3,0,0.4c0.2,2.4,0.4,4.7,0.6,7.1c0.1,0.7,0.6,0.8,1.3,0.5c0.5-0.3,0.9-0.7,1.4-0.8
		c2.6-0.9,3.5-3.2,4.3-5.5c0.6-1.9,0.9-3.8,1.5-5.7c0.5-1.8,0.6-1.7-1.3-1.6c-0.1,0-0.2,0-0.3,0c-2,0.4-4,0.8-6,1.3
		c-0.9,0.2-1.4,0.9-1.4,2C143.5,8,143.4,8.8,143.4,9.6z M164.7,15.2c0.1,0,0.2-0.1,0.3-0.1c0-0.4-0.1-0.7-0.2-1.1
		c-0.7-2.5-1.4-5-2.1-7.5c-0.6-2-1.2-4-1.8-6.1c-0.7-2.3-1.5-4.6-2.2-6.9c-0.8-2.5-1.4-5-2.2-7.5c-0.6-2-1.3-4-1.9-6
		c-0.4-1.3-0.7-2.6-1.1-3.9c-1-3.4-2.2-6.8-3.2-10.3c-0.6-2.1-1.1-4.3-1.7-6.4c-0.6-2.1-1.3-4.1-2-6.2c-0.2-0.6-0.4-1.2-0.6-1.9
		c-0.7-2.6-1.2-5.1-1.9-7.7c-0.7-2.5-1.7-4.9-2.5-7.4c-0.8-2.6-1.6-5.2-2.3-7.8c-0.5-1.7-1.2-3.3-1.5-5c-0.3-1.4-1.5-2.5-1.1-4.1
		c0.1-0.4,0.1-0.8,0.1-1.3c-0.9,0.1-1.3,1.2-1,2.2c0.6,1.8,1.2,3.6,1.7,5.3c1,3,1.9,6,2.9,9c0.2,0.7,0.5,1.3,0.7,2
		c0.6,1.9,1.1,3.9,1.6,5.8c0.5,1.7,1,3.5,1.5,5.2c0.3,1.1,0.6,2.2,0.9,3.3c0.2,0.7,0.5,1.3,0.7,1.9c0.7,2.5,1.3,5,2.1,7.5
		c0.8,2.8,1.8,5.5,2.6,8.3c0.8,2.6,1.4,5.3,2.3,7.9c0.7,2.2,1.6,4.4,2.1,6.7c0.2,1.1,0.5,2.2,0.9,3.3c0.5,1.7,1.2,3.3,1.7,4.9
		c0.8,2.4,1.5,4.9,2.3,7.4c0.7,2.1,1.4,4.2,2,6.3s1.2,4.3,1.8,6.4C163.9,13,164.4,14.1,164.7,15.2z M118.3-1.4c-0.1,0-0.1,0-0.2,0
		c-0.1,0.2-0.2,0.5-0.3,0.7c-0.8,3.3-1.6,6.7-2.4,10c-0.6,2.6-1.3,5.3-1.9,7.9c-0.1,0.4-0.3,0.7-0.3,1c-0.5,2.6-1,5.2-1.6,7.8
		c-0.4,2-0.8,3.9-1.3,5.9c-0.2,0.8-0.4,1.6-0.7,2.3c-0.1,0.3-0.3,0.5-0.3,0.8c-0.5,2.5-0.9,4.9-1.4,7.4c-0.3,1.3-0.8,2.6-1,3.9
		c-0.5,2.3-0.9,4.7-1.4,7c-0.3,1.4-0.6,2.7-0.9,4.1c-0.4,1.8-0.9,3.6-1.3,5.5c-0.3,1.3-0.5,2.7-0.7,4c0,0.2,0.4,0.5,0.7,0.8
		c0.2-0.2,0.4-0.3,0.5-0.5c0.5-2.5,0.9-5,1.4-7.5c0.6-2.8,1.3-5.5,1.8-8.3c0.3-1.4,0.4-2.8,0.7-4.1c0.4-1.7,0.8-3.4,1.2-5.1
		c0.3-1.2,0.7-2.4,1-3.7c0.3-1.6,0.5-3.1,0.7-4.7c0-0.3,0-0.7,0.1-1c0.6-2.1,1.2-4.3,1.7-6.4c0.6-2.7,1.1-5.4,1.6-8.1
		c0.6-2.8,1.2-5.6,1.8-8.4c0.2-0.8,0.4-1.5,0.6-2.3c0.2-1.2,0.3-2.4,0.6-3.5c0.2-1.1,0.6-2.2,0.8-3.4C118.2,0.2,118.2-0.6,118.3-1.4
		z M164.3-59.9c-0.1,0-0.2,0-0.3,0c-0.1,0.4-0.4,0.8-0.3,1.1c0.8,2.6,1.7,5.3,2.5,7.9c0.9,2.9,1.8,5.7,2.7,8.6
		c1.2,3.8,2.5,7.6,3.8,11.4c1.2,3.8,2.4,7.6,3.6,11.4c0.8,2.5,1.5,4.9,2.3,7.4c0.2,0.6,0.2,1.5,0.6,1.7c1.2,0.6,1.4,1.7,1.7,2.7
		c0.2,0.5,0.5,0.8,1.1,0.7c-0.3-0.7-0.7-1.2-0.9-1.8c-0.4-1.1-0.6-2.2-0.9-3.2c-1.2-3.6-2.3-7.1-3.5-10.7c-1-2.9-2-5.7-2.9-8.6
		c-0.6-1.7-1.1-3.3-1.6-5c-0.7-2.4-1.5-4.7-2.2-7.1c-1-3-2-6-3-9c-0.5-1.6-1-3.1-1.5-4.7C165.1-58,164.7-59,164.3-59.9z M144.7-44.2
		c-0.1-0.4-0.2-0.7-0.2-0.9c-0.5-1.5-0.9-3.1-1.4-4.6c-0.3-1.1-0.6-2.2-0.9-3.3c-0.6-2.1-1.2-4.2-1.8-6.4c-0.3-0.9-0.6-1.9-1.7-2.7
		c-0.3,1.6-0.7,3-0.6,4.3c0.1,2.2,0.5,4.4,0.8,6.5c0.3,2,0.6,3.9,0.8,5.9c0.1,0.7,0.3,1.2,1.1,1.2C141.9-44.2,143.3-44.2,144.7-44.2
		z M135.1,78.5c-3-0.3-5.9-0.6-8.8-0.9c-1.6-0.2-3.3-0.4-4.9-0.6c-2.8-0.4-5.6-0.8-8.4-1.2c-2-0.3-3.9-0.5-5.9-0.7
		c-0.3,0-0.6,0.2-0.9,0.3c0.1,0.3,0.2,0.8,0.4,0.9c0.7,0.3,1.4,0.6,2.1,0.7c2,0.4,4.1,0.6,6.2,0.9c2.2,0.3,4.4,0.6,6.6,0.9
		c1.5,0.2,2.9,0.3,4.4,0.4c2.7,0.3,5.3,0.6,8,0.8C134.9,80.1,135.1,79.8,135.1,78.5z M172.6-2.2c0.1,0,0.3-0.1,0.4-0.1
		c-0.2-0.6-0.4-1.1-0.5-1.7c-0.5-2.1-0.8-4.2-1.4-6.2c-1.4-4.7-2.9-9.3-4.3-14c-1.2-3.7-2.5-7.5-3.6-11.2c-0.6-1.8-1-3.7-1.6-5.5
		c-0.5-1.8-1.1-3.5-1.7-5.3c-0.1-0.4-0.4-0.9-0.6-1.3c0.7,5.3,2.4,10.2,4,15.2s3,10.1,4.6,15C169.5-12.2,170.8-7.1,172.6-2.2z
		 M167,30.6c0-0.1,0-0.3,0-0.4c-0.3-0.1-0.6-0.2-1-0.2c-1.8,0-3.7,0-5.5,0c-1.6,0-3.3,0.1-4.9,0.2c-0.5,0-1,0-1.5,0
		c-0.6,0-1.2,0-1.8,0c-2,0-4,0.1-6,0.1c-1,0-2.1-0.3-3.1-0.3c-3.2,0-6.5,0-9.8,0c-0.6,0-1.1-0.2-1.7-0.2c-1.7,0-3.4,0.1-5.1,0.2
		c-1.8,0.1-3.6,0.1-5.5,0.2c-0.7,0-1.3,0-2,0c-1.6,0-3.1,0-4.7,0c0,0.1-0.1,0.2-0.1,0.3c0.5,0.1,0.9,0.4,1.4,0.4c2.2,0,4.4,0,6.6,0
		c1.6,0,3.2,0,4.8,0c2,0,4,0,6,0c10.8,0,21.6,0,32.4,0C166,30.7,166.5,30.6,167,30.6z M147.5-6.8c0-0.1,0-0.1,0-0.2
		c-0.4,0-0.8,0-1.2,0c-1.5,0-2.9,0-4.4,0.1c-1.9,0.2-3.8,0.7-5.7,0.9c-2.5,0.4-5,0.7-7.5,1c-1.8,0.2-3.6,0.5-5.4,0.7
		c-1.6,0.2-2.2,0.9-2.2,2.6c0,0.7,0.3,1,1,0.8c0.3-0.1,0.7-0.1,1.1,0c1,0.3,2.1,0.6,3.1,0.9c1.6,0.4,3.3,0.8,4.9,1.2
		c0.3,0.1,0.7-0.2,1.1-0.4c-0.3-0.2-0.6-0.5-1-0.6c-1.3-0.3-2.7-0.4-4-0.7c-1.2-0.2-2.3-0.5-3.4-0.7c-0.3-0.1-0.7,0-1-0.2
		s-0.5-0.5-0.7-0.8c0.3-0.2,0.5-0.5,0.9-0.6c0.8-0.2,1.6-0.2,2.5-0.4c1.2-0.2,2.4-0.5,3.6-0.7c2.2-0.3,4.5-0.6,6.7-0.9
		c1.9-0.3,3.7-0.7,5.6-0.8c1-0.1,1.9-0.2,2.9-0.5C145.3-6.3,146.4-6.5,147.5-6.8z M120,65c0.6-1.1,0.4-1.6-1-1.6c-1.6,0-3.3,0-4.9,0
		c-0.9,0-1.8-0.2-2.7-0.2c-1.1,0-2.1,0.1-3.2,0.2c-0.7,0-1.2,0.2-1.3,1c-0.1,0.6-0.1,1.2-0.3,1.8c-0.3,1.2,0,1.7,1.3,1.7
		c1.9,0,3.8,0.1,5.7,0c1.7-0.1,3.2,0.2,4.8,0.4c0.6,0.1,1.3-0.2,1.8-0.6c0.2-0.2,0-1,0-1.5c-0.5,0.3-0.9,0.6-1.3,0.6
		c-2,0.1-4.1,0.2-6.1,0.2c-1.4,0-2.8-0.1-4.1-0.2c-0.4,0-0.7-0.3-1-0.5c0.3-0.4,0.5-1,0.9-1.1c1.3-0.2,2.6-0.4,3.9-0.4
		s2.5,0.3,3.8,0.3C117.4,65.1,118.6,65,120,65z M144.3,33.1c-2-0.1-3.7-0.3-5.5-0.3c-2,0-4,0.1-6,0.2c-1.3,0-1.7,0.4-1.4,1.6
		c0.2,0.8,0.1,2,1.4,2c1.8,0.1,3.5,0.2,5.3,0.1c0.7,0,1.4-0.4,2-0.8c0.9-0.6,1.8-1.3,2.6-1.9C143.2,33.7,143.6,33.5,144.3,33.1z
		 M155.2-9.5c0-0.1,0-0.3,0-0.4c-0.4-0.1-0.8-0.3-1.2-0.4c-0.6,0-1.2,0.2-1.8,0.2c-1.4,0-2.8-0.1-4.2-0.2c-1,0-2,0-3,0
		c-2.6-0.1-5.3-0.2-7.9-0.2c-1.8,0-3.6,0.1-5.3,0.2c-0.7,0-1.3-0.2-2-0.2c-1.9,0-3.9,0.1-5.8,0.2c-0.4,0-0.9,0.2-1.3,0.3
		c0.3,1.2,1.2,0.9,1.9,0.9c2.7,0,5.5-0.2,8.2-0.2c2.3,0,4.6,0.2,7,0.2c3.3,0,6.7-0.1,10-0.2c1.4,0,2.8,0,4.2,0
		C154.4-9.3,154.8-9.4,155.2-9.5z M154.2-5.6c-1.5,0.3-3.4,0.6-5.2,1c-0.4,0.1-0.9,0.6-1.1,1c-0.4,0.6-0.6,1.3-0.8,1.9
		c-0.1,0.4-0.2,1-0.1,1.1c0.4,0.2,0.9,0.3,1.3,0.2c1.2-0.1,2.4-0.4,3.6-0.5c0.8-0.1,1.5-0.1,2.3-0.2c0.3-0.1,0.6-0.4,0.6-0.7
		c0.3-0.8,0.4-1.7,0.6-2.5C155.6-5.3,155.4-5.6,154.2-5.6z M127.4,17.9c1-2.2,2-4.4,3-6.6c0.5-1.3,0.9-2.6,1.3-3.9
		c0.3-0.8,0.4-1.7,1.2-2.3c0.6-0.5,0.4-1.1-0.3-1.4c-0.9-0.3-1.7,0-2.1,1.1c-0.4,1.1-0.6,2.2-1.1,3.3c-1,2.4-2.2,4.8-3.3,7.2
		C125.8,16.1,126.4,17.6,127.4,17.9z M163-48.6c-0.1,0-0.2,0.1-0.3,0.1c3.8,13.5,8.2,26.8,12.7,40.2c0.3-0.3,0.4-0.5,0.4-0.5
		c-3.6-11.7-7.3-23.3-11-35C164.2-45.5,163.6-47,163-48.6z M221.3,73.9c-0.5,0.1-1,0.1-1.6,0.3c-1.3,0.3-2.6,0.7-3.9,1.1
		c-0.9,0.2-1.8,0.5-2.7,0.6c-1.9,0.3-3.5,1.3-5.4,1.5c-2.9,0.2-5.8,0.7-8.6,1.4s-5.6,1.4-8.5,1.4c-1.2,0-2.3,0.5-3.5,0.7
		C194.6,81.5,217.6,76.4,221.3,73.9z M117,18.1c-0.1,0-0.2,0-0.2,0c-0.2,0.4-0.4,0.8-0.5,1.2c-0.5,2.4-1,4.9-1.4,7.3
		c-0.1,0.7,0.2,1.1,0.9,1.2c1.1,0.1,2.2,0.1,3.2,0c0.7-0.1,1-0.4,0.7-1.2c-0.4-1-0.7-2-1-3C118.1,21.8,117.6,19.9,117,18.1z
		 M142.2-76.7c0.1,0.5,0,0.8,0.1,1.2c0.3,1.1,0.6,2.2,0.8,3.3c0.4,1.7,1,3.4,1.6,5c1.1,3,2,6.1,2.9,9.2c0.9,3,1.6,6,2.5,9
		c0.4,1.3,1,2.5,1.3,3.8c1,3.3,2,6.7,3,10.1c0.2,0.7,0.5,1.3,0.7,2c0.1,0,0.2-0.1,0.2-0.1c-0.3-1.1-0.6-2.2-0.9-3.2
		c-0.6-2.1-1.2-4.2-1.8-6.3c-0.4-1.3-1-2.6-1.4-3.9c-1.1-3.6-2.1-7.3-3.1-10.9c-0.3-1-0.7-2-1-3c-0.5-1.8-1-3.6-1.5-5.3
		c-0.4-1.5-1-2.9-1.4-4.3C143.9-72.4,143.7-74.6,142.2-76.7z M148.3,18.3c-1.7,1-3.3,1.9-4.9,2.8c-0.2,0.1-0.3,0.6-0.4,0.9
		c-0.1,2,1.1,3.5,1.9,5.3c0.1,0.1,0.7,0.2,0.9,0.1c0.3-0.2,0.5-0.7,0.6-1.1c0.3-1,0.5-2,0.8-3C147.8,21.6,148.5,20.1,148.3,18.3z
		 M124.2,9.7c0.1,0,0.2,0,0.3,0c0.6-1,1.1-2,1.7-3.1c0.6-1,0.3-2.4,1.3-3.3c0.1-0.1-0.2-0.9-0.5-1c-1.4-0.4-2.9-0.6-4.4-0.9
		c-0.6-0.1-0.8,0.1-0.7,0.8c0.3,1.9,0.7,3.7,1.3,5.4C123.6,8.4,123.9,9,124.2,9.7z M206.9,75.3c0.8-0.2,1.6-0.4,2.4-0.5
		c2.9-0.3,5.7-1.2,8.4-2.1c0.3-0.1,0.9-0.6,0.8-0.8c-0.1-0.7-0.6-1-1.3-0.9c-0.8,0.1-1.6,0.3-2.3,0.4c-2.7,0.6-5.5,1.2-8.2,1.8
		c-0.6,0.1-1.2,0.3-1.1,1.2C205.7,75.3,206.2,75.3,206.9,75.3z M145.9,37.2c0-0.1-0.1-0.1-0.1-0.2c-0.2,0.3-0.6,0.5-0.7,0.8
		c-0.8,3-1.7,6-2.4,9c-0.5,2.1-1.7,3.8-2.1,5.9c-0.5,3-1.8,5.9-2.7,8.8c-0.1,0.4-0.1,0.8-0.2,1.2c-0.5,1.6-0.9,3.2-1.4,4.8
		c-0.4,1.3-0.9,2.5-1.3,3.8c-0.1,0.2,0.1,0.4,0.2,0.6c0.1,0,0.3,0,0.4,0c0.5-1.5,1.1-3,1.5-4.5c0.4-1.6,0.6-3.3,1.1-4.9
		c0.4-1.3,1.1-2.5,1.6-3.8c0.6-1.7,1.1-3.5,1.7-5.2c0.1-0.4,0.2-0.7,0.4-1.1c0.1-0.4,0.2-0.8,0.3-1.2c0.2-0.7,0.4-1.4,0.5-2.1
		c0.1-0.4,0.3-0.7,0.4-1.1c0.2-1.1,0.4-2.2,0.7-3.2c0.2-0.8,0.5-1.5,0.8-2.2c0.3-0.9,0.7-1.9,1-2.9C145.7,38.9,145.8,38,145.9,37.2z
		 M152.4,36.3c-0.2,0-0.3-0.1-0.5-0.1c-3.8,12-7.5,23.9-11.3,35.9c0.4-0.1,0.7-0.3,0.8-0.5s0-0.6,0-0.8c0.5-1.3,1.1-2.6,1.6-3.9
		c0.5-1.1,1.1-2.2,1.2-3.4c0.1-2.4,1.3-4.4,1.9-6.5c0.5-1.7,1.2-3.4,1.7-5.2c0.5-1.7,0.5-3.5,1.6-5.1c0.1-0.1,0.1-0.2,0.1-0.3
		c0.4-1.4,0.8-2.9,1.2-4.3C151.3,40.2,151.8,38.3,152.4,36.3z M112.9,61.3c0.3,0.1,0.7,0.3,1.1,0.3c1.9,0,3.7,0,5.6,0
		c0.6,0,1-0.2,0.8-0.8c-0.1-0.5-0.1-1.2-1.1-1.1c-1,0.2-2,0.3-3,0.2c-0.4,0-1.1-0.6-1.2-1c-0.1-0.7,0.5-1,1.2-1c0.3,0,0.5,0,0.8-0.1
		c1-0.2,2-0.1,2.7,0.7c0.9-0.7,0.8-1.3,0.2-1.9c-0.3-0.2-0.9-0.1-1.4-0.1c-1.7,0-3.4,0-5.1,0.1c-0.3,0-0.7,0.4-0.8,0.6
		c0,0.3,0.3,0.6,0.6,0.8c0.1,0.1,0.4,0,0.5,0.1c0.2,0.2,0.5,0.4,0.5,0.6c0,0.2-0.3,0.6-0.4,0.6C113,59.5,112.9,60.3,112.9,61.3z
		 M149.8-25c-0.5,1.6-0.9,3.2-1.5,4.7c-0.9,2.4-2,4.9-3,7.3c-0.1,0.2,0.1,0.6,0.2,0.7c0.7,0.2,1.4,0.1,1.8-0.7
		c1.6-3,2.6-6.2,3.6-9.4C151.2-23.5,150.9-24.3,149.8-25z M220,12.4c0-0.1,0-0.2,0-0.3c-2.3-0.1-4.6-0.2-6.9-0.2
		c-1.4,0-2.8,0.3-4.1,0.1c-1.3-0.1-2.5,0.4-3.8,0.2c-1.8-0.2-3.6-0.1-5.5-0.1c-2.3,0-4.6,0-6.9,0c-2.1,0-4.3,0.1-6.4,0
		c-2.8-0.1-5.6-0.3-8.4-0.5c-0.1,0-0.1,0.1-0.2,0.3c0.9,0.2,1.7,0.4,2.6,0.4c3.8,0.2,7.7,0.5,11.6,0.6c1.7,0.1,3.4-0.2,5.1-0.2
		c2.7,0,5.3,0.1,8,0.2c0.5,0,1-0.1,1.5-0.2c0.9-0.1,1.9-0.2,2.8-0.2c0.7,0,1.4,0.2,2.1,0.2c2.7,0,5.5-0.1,8.2-0.2
		C219.7,12.4,219.8,12.4,220,12.4z M158.8,24.3c0.1,0.1,0.1,0.1,0.2,0.2c0.3-0.2,0.7-0.3,1-0.5c1.2-0.8,2.5-1.6,3.6-2.4
		c0.4-0.3,0.7-1,0.6-1.4c-0.4-1.5-1-2.9-1.5-4.4c-0.1-0.2-0.4-0.4-0.5-0.6c-0.2,0.2-0.4,0.4-0.5,0.7c-0.4,1.1-0.9,2.2-1.2,3.3
		C159.9,20.8,159.4,22.5,158.8,24.3z M186.5,76.6c-0.1,0.8-0.2,1.6,0.8,1.6c1,0.1,2,0.1,3,0c2-0.3,4.1-0.6,6.1-1
		c1.1-0.2,2.2-0.4,3.3-0.7c0-0.1,0.1-0.3,0.1-0.4c-0.3-0.3-0.7-0.9-1-0.9c-1.7,0.1-3.4,0.2-5.1,0.4c-1.8,0.2-3.6,0.5-5.3,0.7
		C187.8,76.5,187.2,76.5,186.5,76.6z M220.3,24.7c0-0.1,0-0.2,0-0.2c-0.2,0-0.3,0-0.5,0c-3.9,0.1-7.9,0.3-11.8,0.4
		c-3.5,0.1-7.1,0-10.6,0c-0.9,0-1.8-0.2-2.6,0c-2.7,0.7-5.4-0.3-8.1-0.1c-1.3,0.1-2.6-0.1-3.8-0.2c-0.3,0-0.6,0.1-1.2,0.2
		c0.9,0.8,1.7,0.4,2.4,0.5c0.3,0.1,0.9,0.1,0.9,0.1c0.1,0.7,0.4,0.4,0.8,0.3c1.2-0.4,2.4-0.6,3.6-0.1c0.5,0.2,1,0.3,1.4,0.3
		c1.1-0.1,2.2-0.3,3.4-0.4c6.5-0.2,13.1-0.3,19.6-0.4c1.6,0,3.1,0,4.7,0C219,25,219.7,24.8,220.3,24.7z M99.3,30
		c1,0.3,1.1-0.4,1.2-0.9c0.7-2.2,1.3-4.4,1.9-6.6c0.2-0.6,0.5-1.3,0.5-1.9c0-2,1-3.8,1.4-5.7c0.4-1.5,1.3-2.9,1-4.5
		c-0.1-0.3,0.2-0.7,0.3-1c0.8-1.9,1.7-3.8,2.3-5.8c0.6-1.9,1.1-3.9,1.6-5.8c0-0.1,0-0.3,0-0.5c-1.5,3.6-2.7,7.2-4,10.7
		c-1.3,3.6-1.6,7.4-3,10.9C101.1,22.5,100.4,26.3,99.3,30z M157.2,57.8c0-0.7,0-1.4-0.2-2.1c-0.1-0.4-0.2-1.2-0.9-0.9
		c-0.8,0.3-1.5,0.6-2.2,1c-0.9,0.4-0.8,1.3-0.8,2c0,0.9,0.3,1.8,0.3,2.6c0.1,1.2,0.5,1.5,1.6,1C156.8,60.6,157.3,59.7,157.2,57.8z
		 M168,50.2c0,0.4-0.1,0.9,0,1.2c0.2,0.3,0.6,0.8,0.9,0.8c1.4-0.1,2.7-1.7,2.7-3.1c0-0.4,0.2-0.9,0.1-1.3c-0.1-0.9-0.2-1.9-0.4-2.8
		c-0.8,0.3-1.6,0.5-2.4,0.8c-0.2,0.1-0.4,0.2-0.5,0.3c-0.1,0.2-0.3,0.4-0.3,0.6C168.1,47.9,168.1,49.1,168,50.2z M120.6,33.4
		c-0.1-0.1-0.1-0.3-0.2-0.4c-1.6,0-3.3,0-4.9,0c-1.9,0-2.2,0.2-2.7,1.9c-0.1,0.3,0,0.5-0.1,0.8c-0.2,0.9,0,1.3,0.9,1.1
		c1.2-0.2,2.5-0.6,3.7-1.1c1-0.4,1.8-1,2.7-1.6C120.3,34,120.4,33.6,120.6,33.4z M160.4-32.9c0.2-0.1,0.3-0.1,0.5-0.2
		c-2.1-6.7-4.3-13.3-6.4-20c-2.1-6.7-4-13.4-6-20.3c-0.2,0.4-0.4,0.7-0.4,0.8C152.2-59.4,156.3-46.2,160.4-32.9z M126.5-52.4
		c1-0.8,1.3-1.9,1-3.1c-1.1-0.1-1.5-0.5-1.3-1.2c0.4-1.1,0.8-2.3,1.2-3.4c0.6-1.8,1.3-3.5,2-5.2c0.3-0.7,0.8-1.3,0.9-2.2
		c0.3-2,0.9-3.9,1.4-5.8c0.1-0.2,0-0.5,0-0.8c-0.1,0-0.2,0-0.4-0.1c-1.3,4.1-2.5,8.3-3.8,12.4c-1.3,4.2-2.7,8.3-4.1,12.4
		c0.1,0,0.2,0.1,0.3,0.1c0.5-0.9,1-1.8,1.3-2.7C125.5-53.2,125.5-53.2,126.5-52.4z M126.4-18.7c-0.3,0.1-0.4,0.1-0.4,0.2
		c-0.8,1.7-1.6,3.3-2.2,5c-0.4,1,0,1.4,1.2,1.4c0.8,0,1.7,0.1,2.5,0.2c0.8,0.1,1.2-0.3,0.9-1.1c-0.4-1.2-0.8-2.4-1.2-3.7
		C126.9-17.3,126.7-18,126.4-18.7z M97.7,36c-3.3,9.4-6.3,18.7-8.5,28.2c0.4-0.3,0.7-0.6,0.8-0.9c0.5-1.6,1-3.1,1.4-4.7
		c0.3-1,0.6-2,0.8-2.9c0.6-2.4,0.7-4.8,1.8-7.1c0.5-1,0.9-2,1.2-3c0.5-1.7,1-3.5,1.5-5.2c0.2-0.8,0.4-1.6,0.9-2.2
		C98.2,37.4,98.2,36.9,97.7,36z M99.8,73.5c-1.6-0.4-3.2-0.8-4.7-1.1c-1.2-0.2-2.4-0.3-3.7-0.4c-0.3,0-0.6,0.2-0.8,0.4
		c-0.5,0.7-0.2,1.1,1,1.4c1.8,0.4,3.6,0.7,5.4,1.1C99.2,75.4,99.2,75.4,99.8,73.5z M111.5-9.6c0.1,0,0.2,0,0.4,0.1
		c0.2-0.4,0.4-0.8,0.6-1.2c0.6-2.3,1.1-4.5,1.7-6.8s2.1-4.3,2.5-6.7c0.4-2.3,1.2-4.6,1.9-6.8c0.6-1.7,1.3-3.4,2-5
		c0.1-0.3,0.1-0.6,0.1-0.9c-0.3,0.1-0.4,0.1-0.5,0.3c-0.3,0.9-0.6,1.9-0.9,2.8c-0.7,1.8-1.5,3.5-2.1,5.3c-0.8,2.4-1.1,5-2,7.4
		c-1,2.6-2.1,5.2-2.7,8C112.1-12.2,111.7-10.9,111.5-9.6z M135.8,14.9c-1.2,3.4-2.4,6.6-3.5,9.8c1.1,0.3,2.4-0.6,2.8-1.9
		c0.4-1.2,0.8-2.5,1.3-3.7C137,17.7,136.9,16,135.8,14.9z M161,52.7c0.1,0.8,0.2,1.5,0.3,2.3c0.2,1.8,0.2,1.8,1.8,1.2
		c0.8-0.3,0.9-0.8,0.9-1.6c-0.1-1.1,0-2.1,0.1-3.2c0.1-1.1-0.5-1.7-1.5-1.4C161.1,50.5,161.1,50.5,161,52.7z M171.4,41.5
		c-0.1-0.1-0.2-0.2-0.2-0.3c-7.2,4.7-14.5,9.3-21.7,14c0.3,0.3,0.5,0.4,0.7,0.3c7-4.5,14-9,21-13.5
		C171.2,41.8,171.3,41.7,171.4,41.5z M116-10.8L116-10.8c0.3-0.5,0.6-1,0.7-1.5c1-3.9,1.9-7.8,3.2-11.6c0.9-2.7,1.1-5.5,2.6-8
		c0.8-1.3,0.6-2.9,0.7-4.4c-0.6,1.5-1.1,3-1.5,4.5c-0.3,1.1-0.5,2.2-0.9,3.2c-0.3,0.8-0.3,1.8-1.4,1.8c0.1,0.4,0.3,0.8,0.2,1.1
		c-0.4,1.8-0.8,3.7-1.3,5.4c-0.7,2.7-1.6,5.3-2.3,8C115.9-11.7,116-11.3,116-10.8z M137.9-66.5c-0.1,0-0.2,0-0.4,0
		c-0.1,0.2-0.3,0.4-0.4,0.6c-0.5,1.8-1,3.6-1.5,5.4s-0.9,3.6-1.4,5.4c-0.8,2.8-1.8,5.6-2.6,8.4c-0.2,0.6-0.2,1.3-0.3,2.1
		c1.1-0.2,1.1-0.2,1.3-1c0.2-1.1,0.1-2.2,0.3-3.2c0.5-2,1.2-4,1.8-5.9c1-3.4,2.1-6.8,3.1-10.1C138.1-65.4,137.9-66,137.9-66.5z
		 M123.1,34.6c-0.1,0-0.2,0-0.2,0c0.1,0.6,0.1,1.3,0.3,1.9c0.6,2.2,1.4,4.4,2,6.6c0.4,1.5,0.6,3.1,1.1,4.6c0.4,1.3,1.1,2.6,1.6,3.9
		c0.9,2.8,1.8,5.7,2.6,8.5c0.4,1.2,0.7,2.5,1,3.7c0.4,1.7,0.8,3.4,1.3,5.1c0.1,0,0.2,0,0.3,0c0-0.2,0.1-0.4,0.1-0.6
		c-0.2-1.1-0.4-2.1-0.7-3.2c-0.5-1.7-1.1-3.4-1.7-5.2c-0.3-1-0.4-2.1-0.7-3.2c-0.1-0.4-0.3-0.8-0.5-1.1c-0.2-0.4-0.6-0.7-0.7-1.1
		c-0.7-2.6-1.4-5.1-2.1-7.7c-0.3-1.1-0.8-2.1-1.1-3.2c-0.4-1.3-0.5-2.7-0.9-4C124.3,38,123.6,36.3,123.1,34.6z M133.5,27.5
		c0.4,0.2,0.5,0.3,0.6,0.3c1.8,0,3.7,0,5.5,0c0.2,0,0.6-0.6,0.6-0.8c-0.1-0.7-0.4-1.4-0.7-2c-0.3-0.7-0.8-1-1.4-0.6
		C136.7,25.3,135.3,26.3,133.5,27.5z M151.3,14.9c0.1,0.1,0.3,0.1,0.4,0.2c0.2-0.5,0.5-1,0.7-1.5c0.3-1.1,0.5-2.2,0.9-3.3
		c0.8-2.2,1.8-4.4,2.3-6.7c0.3-1.5,0.6-3,1.2-4.5c0.3-0.6,0-1.5,0-2.2c-0.1,0-0.3,0-0.4,0C154.7,2.9,153,8.9,151.3,14.9z M112.9,3.1
		c-0.4,0.2-0.6,0.3-0.6,0.4c-0.6,1.9-1.2,3.8-1.8,5.7c-0.4,1.2-0.7,2.3-1.1,3.5c-0.3,1-0.7,2-0.9,3c-0.3,1.5-0.5,3-0.7,4.5
		c-0.1,0.7-0.2,1.3-0.4,1.9c-0.3,1-0.9,2-1.1,3.1c-0.3,1-0.4,2.1-0.6,3.2c0,0.2,0,0.5,0,0.7c1-2.8,1.8-5.6,2.6-8.4
		c0.2-0.8,0.5-1.7,0.6-2.5c0.2-1.1,0.3-2.2,0.5-3.3c0.5-2,1.2-4,1.8-6c0.4-1.4,0.8-2.8,1.2-4.2C112.5,4.2,112.6,3.8,112.9,3.1z
		 M148.9,59.1c-1.2,0.4-3.5,6.7-3,7.9c0.8-0.5,1.6-1,2.3-1.5c0.8-0.5,1.2-1.2,0.9-2.1c-0.1-0.3-0.2-0.6-0.2-0.9
		C148.9,61.5,148.9,60.4,148.9,59.1z M175.5-2.6c1.3-0.9,2.4-1.8,3.5-2.4c0.8-0.5,0.7-1,0.4-1.6s-0.7-1.2-1.5-0.6
		c-1.1,0.7-2.1,1.4-3.2,2.2c-0.2,0.2-0.4,0.7-0.2,1C174.6-3.5,175-3.1,175.5-2.6z M94.9,65.8c0.1,0,0.2-0.1,0.3-0.1
		c0.6-1.9,1.2-3.7,1.7-5.6c0.5-1.8,0.9-3.7,1.3-5.6c0.4-1.6,0.8-3.2,1.3-4.8c0.8-2.2,1.9-4.3,2.6-6.5c0.4-1.4,0.4-2.9,0.5-4.4
		c-0.1,0-0.2-0.1-0.3-0.1c-0.1,0.3-0.3,0.5-0.3,0.8c-0.1,0.8,0,1.6-0.2,2.3c-0.2,0.8-0.6,1.6-0.9,2.4c-0.5,1.4-0.9,2.9-1.4,4.3
		c-0.4,1.3-1,2.5-1.4,3.8c-0.5,1.9-0.9,3.9-1.4,5.8c-0.6,2.3-1.3,4.5-1.9,6.8C94.8,65.2,94.9,65.5,94.9,65.8z M165.4,15.9
		c-0.1,0-0.3,0.1-0.4,0.1c0.1,0.5,0.1,1.1,0.3,1.6c1.1,3.6,2.2,7.2,3.2,10.8c0.6,2,1.2,4,1.9,5.9c0.2,0.7,0.5,1.4,0.7,2.1
		c0.1,0,0.2-0.1,0.3-0.1c0-0.2,0.1-0.4,0-0.6c-1-3.2-1.9-6.4-2.9-9.7c-0.7-2.4-1.4-4.8-2.2-7.2C166.1,17.9,165.7,16.9,165.4,15.9z
		 M192.6,28.7c-0.1,0-0.2,0-0.3,0c-0.5,0.8-1.1,1.6-1.6,2.4c-1,1.7-2,3.5-3,5.3c-0.5,0.9-1,1.9-1.4,2.8c-0.1,0.2,0.2,0.6,0.3,0.9
		c0.2-0.2,0.5-0.3,0.6-0.5c0.8-1.5,1.6-3,2.5-4.5c0.4-0.8,0.9-1.7,1.3-2.5c0.5-1,1.1-2.1,1.5-3.1C192.7,29.2,192.6,28.9,192.6,28.7z
		 M127.9,21.8c0.1,0,0.2,0,0.3,0.1c0.1-0.1,0.2-0.2,0.2-0.3c0.4-1.1,0.8-2.1,1.3-3.2c0.8-1.8,1.6-3.7,2.4-5.5
		c0.4-1.1,0.8-2.2,1.1-3.3c0.3-0.8,0.5-1.7,0.7-2.6c0-0.1-0.1-0.3-0.2-0.5c-0.1,0.1-0.3,0.2-0.4,0.3c-0.5,1.2-0.9,2.5-1.3,3.7
		c-0.6,1.6-1.3,3.2-1.9,4.8c-0.5,1.2-0.8,2.4-1.2,3.6C128.5,19.9,128.2,20.9,127.9,21.8z M129,25.8c0.1,0.1,0.2,0.1,0.3,0.2
		c0.4-0.6,1-1.2,1.3-1.9c0.6-1.5,0.9-3.1,1.5-4.6c0.9-2.5,1.9-4.9,2.8-7.4c0.1-0.3,0-0.7,0-1.1c-0.1,0-0.2,0-0.4,0
		C132.6,15.9,130.8,20.8,129,25.8z M108.7,30.8c0-0.1-0.1-0.2-0.1-0.3c-3.6-0.3-6.7,1.5-10,2.3c0.5,1.2,1.7,1.5,2.4,1
		c0.7-0.5,1.5-0.8,2.3-1.1c0.6-0.3,1.2-0.4,1.9-0.6c0.5-0.2,0.9-0.5,1.4-0.6C107.3,31.3,108,31.1,108.7,30.8z M127.3-43.1
		c0.1,0,0.2,0.1,0.3,0.1c1.5-6.8,3.1-13.7,4.6-20.5c0.1-0.3,0-0.7,0-1c-0.1,0-0.2,0-0.4,0c-0.4,1.1-0.8,2.2-1,3.3
		c-0.3,1.6-0.4,3.3-0.7,4.9c-0.7,3.4-1.6,6.7-2.3,10C127.6-45.2,127.5-44.1,127.3-43.1z M184,32.6c0.2,0,0.3,0.1,0.5,0.1
		c0.8-1.4,1.7-2.8,2.7-4.4c-1.6,0-2.9,0-4.5,0C183.1,29.7,183.6,31.1,184,32.6z M130.1-41.8c0.6,0,1.2,0,1.7,0
		c3.8,0.1,7.6,0.1,11.5,0.2c0.6,0,1.2-0.1,1.8-0.2c0-0.1,0-0.2,0-0.3c-0.3-0.1-0.6-0.2-0.9-0.3c-1.9-0.2-3.8,0.1-5.7-0.2
		c-2.4-0.3-4.9-0.2-7.3-0.3C130.6-42.8,130-42.7,130.1-41.8z M151.3,15.8c-0.2,0.5-0.5,0.9-0.7,1.3c-0.6,2-1.2,4-1.8,5.9
		c-0.3,1.1-0.8,2.2-1,3.4c-0.1,0.4,0.2,0.9,0.3,1.3c0.3-0.3,0.6-0.7,0.9-1c0,0,0-0.1,0-0.2c0.7-2.7,1.5-5.4,2.1-8.1
		C151.3,17.6,152,16.8,151.3,15.8z M200.5,17.3L200.5,17.3c0-0.5,0.1-1.1,0-1.6c-0.1-0.7-0.6-0.7-1-0.4c-0.2,0.2-0.4,0.6-0.4,0.9
		c0,1.8,0,3.6,0,5.4c0,0.4,0.3,0.8,0.5,1.2c0.4-0.4,0.8-0.7,1.1-1.1c0.1-0.2,0.1-0.5,0.1-0.8C200.6,19.7,200.6,18.5,200.5,17.3z
		 M205.6,42c0.6-1,1.1-1.8,1.6-2.8c0.8-1.5,1.4-3.1,2.2-4.5c1-1.6,2.2-3.1,3.2-4.7c0.3-0.4,0.4-0.9,0.5-1.4c-0.1,0-0.2-0.1-0.3-0.1
		c-0.1,0.1-0.3,0.2-0.4,0.3c-0.9,1.3-1.8,2.7-2.7,4c-0.7,1.1-1.2,2.4-1.9,3.5c-0.9,1.3-1.1,3-2.2,4.2c-0.5,0.5-0.7,1.3-1.1,2.3
		c0.7-0.2,1.2-0.3,1.6-0.4c0-0.1,0-0.2,0-0.2C206,42.1,205.8,42.1,205.6,42z M130.5,66.5c-0.5-0.1-1.1-0.4-1.6-0.4
		c-1,0-2,0.2-3.1,0.4c-0.8,0.1-1.7,0.2-2.5,0.4c-0.3,0.1-0.5,0.4-0.8,0.6c0.3,0.1,0.6,0.4,0.9,0.4c1.7,0,3.4,0.1,5,0
		C129.1,67.8,130.2,68.1,130.5,66.5z M103.3,45.1c0.1,0,0.2,0.1,0.3,0.1c0.6-0.6,1.1-1.2,1.7-1.7c1.1-0.8,1-2,1-3.1
		c0-0.3-0.9-0.7-1.4-1.1c-0.2,0.3-0.6,0.7-0.7,1c-0.3,1-0.5,2-0.7,3.1C103.5,44,103.4,44.5,103.3,45.1z M134.8,65.8
		c0.1,0,0.2-0.1,0.4-0.1c-1.6-5.1-3.3-10.2-4.9-15.3c-1.6-5.1-3.1-10.2-4.6-15.3c-0.1,0-0.3,0.1-0.4,0.1
		C128.5,45.5,131.6,55.7,134.8,65.8z M195.5,15.3c-0.1,0-0.3-0.1-0.4-0.1c-0.5,0.6-1,1.2-0.9,2.2c0.1,1.3,0,2.6,0.1,4
		c0,0.3-0.1,0.8,0.1,1c0.2,0.3,0.6,0.5,1,0.6c0.1,0,0.5-0.5,0.5-0.8c0-1.3-0.1-2.7-0.2-4C195.6,17.2,195.6,16.3,195.5,15.3z
		 M160.1,11.7c-0.1,0-0.2-0.1-0.3-0.1c-0.1,0.2-0.3,0.4-0.3,0.5c-0.2,0.6-0.3,1.2-0.6,1.8c-0.7,1.9-1.7,3.7-2.1,5.7
		c-0.5,2.2-1.3,4.3-2.4,6.3c-0.1,0.3,0.1,0.7,0.1,1.4c2.6-4.4,2.8-9.3,5.1-13.5C159.9,13.2,160,12.4,160.1,11.7z M135.8,63.3
		c0.1,0,0.2,0,0.4-0.1c-0.2-0.6-0.4-1.1-0.5-1.7c-0.5-2.2-0.8-4.4-2-6.3c-0.2-0.3-0.4-0.6-0.4-0.9c-0.4-3.4-1.6-6.6-2.7-9.8
		c-0.5-1.4-0.9-2.9-1.4-4.3c-0.6-1.6-1.2-3.1-1.8-4.7c-0.1,0.3-0.1,0.5-0.1,0.7c0.6,1.8,1.3,3.6,1.9,5.4c0.2,0.6,0.1,1.2,0.3,1.8
		c0.5,1.2,1.1,2.4,1.5,3.6c0.6,1.6,0.9,3.4,1.4,5c0.4,1.4,1,2.9,1.4,4.3c0.5,1.5,1,3,1.4,4.5C135.5,61.7,135.7,62.5,135.8,63.3z
		 M110.9,57.4c0-0.2,0-0.5,0-0.7c0-0.9-0.7-1.4-1.5-1.2c-0.7,0.2-1.7,3.2-1.1,3.6c0.5,0.3,1.2,0.4,1.8,0.3c0.4-0.1,0.7-0.7,0.9-1.1
		C111,58.1,110.9,57.7,110.9,57.4z M121,5.3c-0.1,0-0.2,0.1-0.3,0.1c0.1,0.8,0.1,1.6,0.3,2.4c0.5,1.8,1.1,3.5,1.6,5.3
		c0.2,0.6,0,1.4,0.2,2c0.6,2,1.3,4.1,1.9,6.1c0.3,0.8,0.5,1.7,0.8,2.5s0.5,1.6,0.8,2.4c0.2,0.5,0.4,1,0.6,1.5
		c-0.2-1.6-0.6-3.2-1.1-4.8c-0.7-2.3-1.6-4.5-2.2-6.8c-0.4-1.4-0.6-2.8-0.9-4.2c-0.5-2-1.7-3.8-1.4-5.9C121.3,5.7,121.1,5.5,121,5.3
		z M110,50.1c-0.4,1.4-0.3,1.5,1.1,1.5c1.5,0,3,0,4.5,0c0.9,0,1.8,0,2.9,0c-0.6-0.8-1.1-1.5-1.7-2.2c-0.4,1-1.1,1.2-2,1.2
		c-0.3,0-0.6,0-0.9,0C112.5,51,111.2,50.9,110,50.1z M210.3,62.1c0-0.7,0.1-1.1,0-1.4c-0.6-1.6-1.2-3.2-1.8-4.8
		c-0.4-1-1.1-1.2-2.3-1.3c0.4,0.5,0.6,0.8,0.8,1.1c0.3,0.5,0.7,0.9,0.9,1.4c0.5,1.4,0.9,2.8,1.5,4.2
		C209.4,61.6,209.8,61.7,210.3,62.1z M209.1,42.4c2.4-4.8,4.8-9.4,7.1-14C215,28.9,209,41,209.1,42.4z M129.5,35.6
		c0.2,0.4,0.4,0.8,0.6,1.2c0.2,0.4,0.4,0.8,0.5,1.3c0.4,1.6,0.6,3.2,1.1,4.8c0.6,1.9,1.4,3.8,2,5.7s1,3.9,1.6,5.9
		c0.4,1.2,1,2.4,1.4,3.7c0.1,0.3,0.2,0.7,0.3,1.1c0.1,0,0.3-0.1,0.4-0.1c-0.5-1.4-1.1-2.8-1.6-4.3c-0.3-0.9-0.7-1.7-0.9-2.6
		c-0.5-1.7-0.8-3.4-1.3-5.1c-0.7-2.3-1.7-4.6-2.4-6.9C130.8,38.6,131.1,36.8,129.5,35.6z M126.6-24.9c-0.7,0.8-0.4,1.4-0.2,2
		c0.5,1.4,1.1,2.8,1.5,4.3c0.5,1.7,0.8,3.5,1.2,5.2c0.1,0.6,0.4,0.8,1.2,0.6C129.1-16.8,127.9-20.8,126.6-24.9z M117.8-8.8
		c-0.1-0.2-0.2-0.3-0.3-0.5c-0.4,0.2-0.8,0.3-1.3,0.5c-0.3,0.1-0.5,0.2-0.8,0.3c-1.5,0.5-3,1-4.5,1.6c-0.3,0.1-0.5,0.6-0.9,1.1
		c0.6,0,0.7,0,0.9,0c2-0.6,4-1.2,5.9-1.9C117.3-7.9,117.5-8.4,117.8-8.8z M116.1,48.9c-0.1-0.7-0.9-1.4-1.6-1.3
		c-0.9,0.1-1.8,0.2-2.7,0.2c-0.5,0-1.2-0.3-1.4-0.1c-0.3,0.3-0.3,1-0.4,1.6c0,0.1,0,0.2,0,0.1C112.1,49.2,114.1,49.1,116.1,48.9z
		 M139.1-22.7c0.5-1.3-0.1-10.2-0.7-11C137.8-32.9,138.3-24.7,139.1-22.7z M99.2,54.4c1.3,0,2.5,0.1,3.8,0c0.3,0,0.6-0.6,0.8-0.9
		c-0.3-0.2-0.7-0.5-1-0.6c-0.8-0.2-1.6-0.2-2.5-0.3c-0.4,0-0.7-0.1-1.1-0.2c-0.1,0.5-0.1,1-0.2,1.5C99.1,54.1,99.2,54.3,99.2,54.4z
		 M152.9-67.6c-0.1,0-0.2,0-0.3,0c-0.1,0.3-0.3,0.6-0.2,0.9c0.6,2,1.1,4,1.8,5.9c0.1,0.3,0.5,0.5,0.7,0.7c0.2-0.4,0.5-0.8,0.4-1.1
		c-0.6-2-1.3-3.9-2-5.8C153.3-67.3,153.1-67.4,152.9-67.6z M124.7-29.4c-0.2,0-0.3,0-0.5-0.1c-1.1,4.6-2.2,9.1-3.3,13.7
		c0.2,0,0.3,0.1,0.5,0.1C123-20.1,123.4-24.8,124.7-29.4z M120.4,9.4c-0.1,0-0.3,0.1-0.4,0.1c0.1,0.4,0.1,0.8,0.2,1.2
		c0.6,2.3,1.1,4.5,1.8,6.8c1,3.3,2,6.5,3,9.8c0.1,0.2,0.3,0.3,0.4,0.5c0.1-0.1,0.2-0.1,0.3-0.2C123.1,21.7,122.1,15.4,120.4,9.4z
		 M203.7,45.7c0.1,0.7,0.1,1.2,0.3,1.7c0.5,1.5,1.1,3,1.7,4.5c0.1,0.2,0.6,0.3,1,0.2c0.1,0,0.3-0.5,0.2-0.8
		c-0.2-0.6-0.4-1.3-0.7-1.8c-0.7-1.3-1.4-2.5-2.1-3.7C204.1,45.8,204,45.8,203.7,45.7z M120.6,54.4c-0.7-0.8-1.4-0.8-2.2-0.6
		c-0.6,0.1-1.3,0-2,0c-1.1-0.1-2.3-0.4-3.7,0.5c2.4,1.3,4.8,0.2,7,0.4C120,54.7,120.3,54.5,120.6,54.4z M123.4,28.2
		c0.1-0.1,0.1-0.2,0.2-0.2c-0.3-0.8-0.7-1.6-1-2.4c-0.1-0.4,0.1-1.1-0.1-1.2c-0.8-0.5-0.6-1.3-0.8-2c-0.2-1.3-0.5-2.5-0.8-3.7
		c-0.3-1.5-0.7-2.9-1.1-4.4c-0.2-0.6-0.4-1.1-0.7-1.6c-0.1,0.1-0.3,0.1-0.4,0.2c0.4,1.5,0.6,3.1,1.2,4.4c0.9,2,1.2,4.1,1.6,6.2
		c0.2,1.3,0.8,2.6,1.2,3.9C122.9,27.6,123.2,27.9,123.4,28.2z M129.8-6.5c0-0.1,0-0.2,0-0.2c-0.1,0-0.2-0.1-0.2-0.1
		c-2.3,0-4.7,0-7,0c-0.7,0-0.8,0.5-0.6,0.9c0.1,0.2,0.6,0.5,0.9,0.5c0.4,0,0.9-0.3,1.3-0.3C126.1-6.1,127.9-6.3,129.8-6.5z M118-1.9
		c0.2,0,0.3,0.1,0.5,0.1c1-4.4,2.2-8.7,2.7-13.2c-0.1,0-0.3-0.1-0.4-0.1C119.8-10.6,118.9-6.3,118-1.9z M152.6-16.5
		c-0.5,1.3-0.9,2.3-1.4,3.3c-0.2,0.5,0,0.8,0.5,0.8c0.7,0,1.5,0,2.3,0C153.9-13.9,153.7-15.2,152.6-16.5z M129.6,64.3
		c-0.3-0.8-0.5-1.4-0.7-2.1c-0.7,1-1.7,1.2-2.7,1.2c-0.8,0-1.6,0.2-2.4,0.4c-0.3,0.1-0.4,0.4-0.7,0.5c0.1,0.1,0.1,0.2,0.2,0.3
		C125.3,64.6,127.3,64.5,129.6,64.3z M203.4,51.8c-0.1,0-0.2,0.1-0.4,0.1c1.6,4.9,3.3,9.7,4.9,14.6c0.2-0.1,0.3-0.1,0.5-0.2
		C206.8,61.5,205.1,56.6,203.4,51.8z M202.9,40c0.8-0.6,6.1-10.8,6-11.7C208.3,28.7,202.8,39.3,202.9,40z M172.1-51.2
		c-0.2,0.1-0.4,0.2-0.6,0.2c1.2,3.1,2.1,6.3,3.5,9.3c0-0.8-0.1-1.6-0.3-2.4c-0.4-1.4-0.9-2.9-1.4-4.3
		C172.9-49.3,172.5-50.3,172.1-51.2z M128.8,62.1c0.6-0.7,0-1.2-0.2-1.9c-0.2-0.6-0.6-0.5-1-0.2c-0.4,0.2-0.8,0.4-1.3,0.4
		c-0.7,0.1-1.5,0-2.2,0c-0.4,0-0.8,0.3-1.4,0.5C124.8,62,127,60.7,128.8,62.1z M208.7,15.3c-0.1,0-0.2,0-0.3,0
		c-0.1,0.1-0.2,0.3-0.2,0.4c-0.2,1.5-0.3,2.9-0.4,4.4c0,0.5-0.2,0.9-0.2,1.4c0,0.3,0.3,0.8,0.5,0.8c0.6,0.1,0.6-0.4,0.7-0.8
		c0.1-1.6,0.2-3.3,0.2-4.9C209,16.2,208.8,15.7,208.7,15.3z M190.4,15.1c-0.1,1.3-0.2,2.4-0.2,3.5s0,2.2,0,3.2
		c0,0.2,0.4,0.3,0.6,0.5c0.1-0.2,0.2-0.4,0.3-0.7c0-0.2,0-0.4,0-0.6c0.1-1.7,0.1-3.5,0.2-5.2C191.2,15.2,190.9,15,190.4,15.1z
		 M128.2,58.1c-0.5-0.5-0.8-1.1-1.2-1.1c-1.2-0.1-2.3,0-3.5,0.2c-0.3,0-0.5,0.3-0.8,0.5c0.3,0.2,0.5,0.6,0.8,0.6
		c1.3,0.1,2.5,0.2,3.8,0.2C127.6,58.5,127.9,58.3,128.2,58.1z M187,22.4c0.1,0,0.3,0,0.4,0c0.1-0.4,0.2-0.9,0.2-1.3
		c-0.1-1.3-0.5-2.7,0.1-4c0.1-0.3,0-0.7-0.2-1c-0.1-0.2-0.5-0.3-0.7-0.5c-0.1,0.3-0.3,0.6-0.3,0.9c0,0.9,0.2,1.8,0,2.7
		C186.2,20.3,186.5,21.3,187,22.4z M143.4-35.7c-0.1-0.1-0.3-0.3-0.4-0.4c-0.8,0.4-1.7,0.6-2.3,1.2c-0.3,0.3,0,1.2,0.1,1.8
		c0,0.2,0,0.4,0,0.6c0.2,0.6,0.6,0.7,0.9,0.2C142.4-33.4,142.8-34.6,143.4-35.7z M99.5,58.2c0.6-0.1,1.2-0.2,1.7-0.2
		c0.3,0,0.7,0.1,0.9-0.1c0.4-0.4,0.9-1,0.9-1.5c0-0.6-0.6-0.4-1.1-0.3c-0.6,0.1-1.1,0-1.7,0c-1,0-1.2,0.3-1,1.2
		C99.3,57.7,99.4,57.9,99.5,58.2z M145-78.5c0,0.1,0,0.1,0.1,0.2c0.3,0.1,0.6,0,0.8,0.2c1.6,1.4,3.7,1.7,5.7,2.3
		c0.4,0.1,0.8-0.1,1.2-0.1c-0.1-0.4-0.2-0.5-0.3-0.5c-2.2-0.7-4.4-1.5-6.6-2.2C145.6-78.7,145.3-78.5,145-78.5z M204.4,15
		c-0.2,0.1-0.3,0.1-0.5,0.2c0,2.4,0,4.9,0,7.3c0.1,0,0.2,0.1,0.2,0.1c0.1-0.2,0.4-0.5,0.4-0.7c0.1-2,0.2-4,0.2-5.9
		C204.8,15.6,204.5,15.3,204.4,15z M216.5,15.3c-0.1,0-0.2,0.1-0.3,0.1c-0.1,2.1-0.2,4.3-0.3,6.4c0,0.2,0.2,0.4,0.3,0.6
		c0.2-0.1,0.6-0.2,0.6-0.4c0.1-0.5,0.2-1,0.2-1.5c0-1.2-0.1-2.5-0.2-3.7C216.8,16.2,216.6,15.7,216.5,15.3z M186.4,56.3
		c-0.2,0-0.3,0.1-0.5,0.1c1.1,3.4,1.8,6.9,3.7,10C188.6,63.1,187.5,59.7,186.4,56.3z M147.4-35c-0.4,0.1-0.6,0.1-0.6,0.2
		c-0.4,1.2-0.7,2.4-1.1,3.5c-0.1,0.3-0.3,0.6-0.5,1c-0.2,0.5-0.5,1.1-0.7,1.6c0.1,0.1,0.3,0.1,0.4,0.2
		C146.2-30.4,147.2-32.4,147.4-35z M187,69.1c0.1,0,0.2-0.1,0.4-0.1c-1.1-3.3-2.3-6.6-3.4-9.9c-0.1,0-0.2,0.1-0.4,0.1
		C184.8,62.5,185.4,66,187,69.1z M212.7,15.3c-0.1,0-0.2,0-0.3,0c-0.1,0.5-0.2,0.9-0.2,1.4c-0.1,1.6-0.2,3.1-0.3,4.7
		c0,0.3,0.4,0.5,0.5,0.8c0.1-0.3,0.4-0.5,0.4-0.8c0.1-0.7,0.1-1.4,0-2.1C212.9,18,212.8,16.7,212.7,15.3z M181.1,15.1
		c-0.1,0-0.1,0-0.2,0.1c-0.1,0.6-0.2,1.2-0.3,1.8c0,1.5,0,3.1,0,4.6c0,0.2,0.3,0.5,0.5,0.7c0.2-0.3,0.4-0.5,0.4-0.8
		c0.1-0.4,0-0.9,0-1.3c-0.2-1.4-0.8-2.9-0.2-4.4C181.4,15.6,181.2,15.3,181.1,15.1z M132-66.5c0.1,0,0.2,0.1,0.4,0.1
		c0.2-0.3,0.6-0.6,0.7-0.9c0.4-1.8,0.7-3.5,1-5.3c0.1-0.7,0.2-1.4,0.2-2.1c-0.1,0-0.1,0-0.2,0C133.4-72,132.7-69.2,132-66.5z
		 M103.8,76c0.2-1.6-0.2-2.1-1.5-2.2c-0.7,0-1.1,0.2-1,1C101.2,75.9,101.7,76.1,103.8,76z M171-53.1c0.1-0.1,0.2-0.1,0.3-0.2
		c-0.2-0.7-0.5-1.3-0.7-2c-0.5-1.6-1-3.3-1.5-4.9c0-0.2-0.3-0.3-0.5-0.4c0,0.2-0.2,0.4-0.1,0.6c0.7,2.1,1.4,4.3,2.1,6.4
		C170.8-53.5,170.9-53.3,171-53.1z M99.2,61.1c0.9-0.1,1.5-0.1,2-0.4c0.4-0.2,0.7-0.7,1-1c-0.3-0.2-0.6-0.4-1-0.5
		c-0.3-0.1-0.7-0.1-1-0.1c-0.3,0.1-0.8,0.2-0.9,0.4C99.2,60,99.2,60.6,99.2,61.1z M158.1,27.5c0.3-0.1,0.5-0.2,0.7-0.3
		c1.8-1.1,3.6-2.3,5.4-3.4c0.1-0.1,0.1-0.3,0.1-0.4c-0.2,0-0.5-0.1-0.6,0c-1,0.7-2,1.4-3,2c-0.5,0.3-1.1,0.6-1.6,0.9
		C158.6,26.5,158,26.6,158.1,27.5z M144.6-27.1c-0.1,0-0.2-0.1-0.3-0.1c-1.3,1-2.7,4.6-2.1,5.9C143.1-23.4,143.9-25.2,144.6-27.1z
		 M186.2,33.7c1.4-1.3,3.3-4.8,3-5.5C187.3,29.6,187.1,31.8,186.2,33.7z M99.3,62.4c-0.1,0.7-0.2,1.5-0.3,2.5
		c0.8-0.4,1.4-0.5,1.9-0.9c0.3-0.2,0.6-0.7,0.6-0.9c-0.1-0.3-0.6-0.5-0.9-0.7C100.2,62.3,99.9,62.4,99.3,62.4z M179.1,63.4
		c0.1,0,0.2,0,0.3,0c0-0.2,0-0.4,0-0.6c-0.5-1.8-1-3.6-1.6-5.4c-0.1-0.3-0.1-0.6-0.3-0.8c-0.1-0.2-0.4-0.2-0.6-0.3
		c0,0.2,0,0.4,0,0.6c0.2,0.6,0.4,1.1,0.6,1.7C178.1,60.1,178.6,61.8,179.1,63.4z M184.3,78c-0.6-0.5-1.1-1-1.6-1.1
		c-0.4-0.1-1,0.3-1.4,0.6c-0.1,0.1,0,0.6,0.1,0.9c0.3,0.6,0.8,0.5,1.3,0.3C183.1,78.7,183.6,78.4,184.3,78z M201.7,33
		c0-0.1,0-0.1,0-0.2c-0.2-0.1-0.4-0.2-0.6-0.2c-1.2-0.2-2.3-0.4-3.5-0.6c-0.3,0-0.7,0.1-0.9,0.3c-0.1,0.2-0.1,0.7,0,0.8
		c0.3,0.2,0.7,0.3,1.1,0.3c1,0,1.9-0.1,2.9-0.2C201.1,33.1,201.4,33,201.7,33z M187.1,51.4c-0.1,0-0.2,0.1-0.4,0.1
		c0.9,2.8,1.8,5.5,2.7,8.3c0.1,0,0.2-0.1,0.3-0.1c-0.7-2.5-1.3-5.1-2-7.6c0-0.1-0.1-0.3-0.1-0.4C187.4,51.7,187.3,51.6,187.1,51.4z
		 M183.9,15.6c-0.1,0-0.2,0-0.3,0c0,0.2-0.1,0.4-0.1,0.6c0,1.5,0,2.9,0,4.4c0,0.4,0,0.7,0,1.1c0,0.2,0.3,0.3,0.4,0.5
		c0.1-0.2,0.3-0.3,0.4-0.5c0.1-0.2,0-0.4,0-0.6c0-1.6-0.1-3.1-0.1-4.7C184.1,16.1,184,15.8,183.9,15.6z M101,51c1,0,1.8,0,2.7,0
		c0.2,0,0.5-0.4,0.5-0.6c0-0.2-0.2-0.6-0.4-0.7C102.5,49,101.7,49.4,101,51z M138.6-19.8c0.3,0.5,0.7,1,0.8,1.5
		c0.2,1.7,0.2,3.3,0.2,5c0,0.3,0.2,0.5,0.3,0.8c0.1,0,0.3-0.1,0.4-0.1c-0.1-0.8-0.2-1.5-0.3-2.3c-0.1-0.5-0.3-0.9-0.4-1.4
		c-0.1-1.5-0.1-2.9-0.1-4.6C139-20.3,138.7-20,138.6-19.8z M127.1-29.4c0.1,0.1,0.3,0.2,0.4,0.2c0.2-0.3,0.4-0.5,0.5-0.8
		c0.4-1.3,0.7-2.5,1-3.8c0.1-0.3,0-0.7,0-1c-0.1,0-0.3,0-0.4,0C128.1-32.9,127.6-31.1,127.1-29.4z M110.3,23
		c-1.2,1.4-1.8,3.5-1.4,4.8C109.6,27.3,110.4,24.6,110.3,23z M136.3,80.1c0.8,0,1.5,0,2.1,0s0.8-0.3,0.8-0.8c0-0.2-0.4-0.6-0.7-0.6
		c-0.6-0.1-1.2,0-1.8,0C136.5,79.1,136.4,79.5,136.3,80.1z M86.5,72.2c0.4-0.4,1.1-0.7,1.2-1.2c0.2-0.6-0.4-0.9-1-0.8
		c-0.6,0-1.3,0-1.3,0.8C85.4,71.5,85.6,72,86.5,72.2z M134.8-47.4c-0.3,0.8-0.7,1.5-0.9,2.2c-0.1,0.2,0.3,0.7,0.5,0.8
		c0.3,0.1,0.7-0.1,0.9-0.3C135.8-45,135.5-46.8,134.8-47.4z M105.3,34.1c0,0.1-0.1,0.2-0.1,0.3c0.6,0.3,1.2,0.7,1.9,1
		c0.2,0.1,0.6-0.2,0.7-0.3c0.1-0.4,0.2-0.8,0.1-1.2c0-0.1-0.5-0.3-0.8-0.3C106.5,33.7,105.9,33.9,105.3,34.1z M142.3-38.4
		c-1.7,1.1-3.6,1.2-5.5,1.3C138.5-36.3,141.3-36.7,142.3-38.4z M171.5-68.6c0.9,0.4,1.8,0.8,2.8,1.1c0.2,0.1,0.6-0.2,0.8-0.4
		c0.1-0.1-0.1-0.6-0.2-0.6C173.8-69,172.7-69.1,171.5-68.6z M219.9,21.8c0.2-0.3,0.3-0.4,0.3-0.5c0.1-1.8,0.3-3.7,0.4-5.5
		c0-0.2-0.2-0.5-0.4-0.7c-0.1,0.2-0.4,0.5-0.4,0.7c0,1.2,0,2.4,0,3.5C219.8,20.1,219.9,20.8,219.9,21.8z M154,21.4
		c0.3-0.3,0.9-0.6,0.9-0.9c0-0.8-0.7-1-1.4-1.1c-0.5-0.1-0.8,0.2-0.8,0.7C152.8,20.9,153.1,21.2,154,21.4z M221,71.5
		c0.3-0.4,0.7-0.8,1-1.1c-0.4-0.3-0.7-0.7-1.2-0.9c-0.6-0.2-1,0.2-1,0.9S220.2,71.4,221,71.5z M203.7,75.1c-0.3-0.3-0.5-0.9-0.8-0.9
		c-0.6,0-1.2,0.1-1.8,0.3c-0.1,0-0.2,0.5-0.1,0.7c0.3,0.6,1.1,0.8,1.7,0.4C203,75.6,203.3,75.4,203.7,75.1z M110.5,20.2
		c0.2,0,0.3,0.1,0.5,0.1c0.6-2.4,1.1-4.9,1.7-7.3c-0.1,0-0.2-0.1-0.3-0.1C111.8,15.3,111.2,17.8,110.5,20.2z M139.9,20.6
		c0.1,0,0.3,0,0.4-0.1c-0.2-0.6-0.3-1.1-0.5-1.7c-0.1-0.4-0.3-0.8-0.4-1.2c-0.4-1.1-0.8-2.3-1.2-3.4c-0.1,0-0.2,0.1-0.4,0.1
		C138.1,16.6,139.4,18.5,139.9,20.6z M178.1-31.9c0.1,0,0.2-0.1,0.3-0.1c-0.8-2.4-1.6-4.9-2.4-7.3c-0.1,0-0.3,0.1-0.4,0.1
		C176.5-36.8,177.3-34.4,178.1-31.9z M138.2,42.1c0-0.1,0-0.2-0.1-0.2c-1.2,0.1-2.4,0.2-3.5,0.3c0,1,0.4,1.4,1.3,1.1
		C136.6,43,137.4,42.5,138.2,42.1z M160.1-73.1c-0.3-0.2-0.4-0.3-0.5-0.4c-0.6-0.3-1.3-0.6-1.9-0.8c-0.3-0.1-0.6,0.1-0.9,0.2
		c0.2,0.3,0.3,0.7,0.6,0.8c0.7,0.3,1.4,0.4,2.1,0.6C159.6-72.7,159.8-72.9,160.1-73.1z M137.8,14c0.1,0,0.2-0.1,0.4-0.1
		c-0.8-2.2-1.5-4.5-2.3-6.7c-0.1,0-0.3,0.1-0.4,0.1C136.2,9.5,137,11.8,137.8,14z M146.2,2.3c-1.8,0.2-3.5,0.4-5.2,0.6
		C142.2,3.8,144.5,3.6,146.2,2.3z M132.8-39.6c0.9,0.7,6.2,0.6,6.8,0C137.2-39.6,135-39.6,132.8-39.6z M150.6,26.2
		c0,0.3-0.1,0.5-0.1,0.6c0,1,0.9,1.5,1.7,1c0.2-0.1,0.2-0.9,0-1C151.8,26.5,151.2,26.4,150.6,26.2z M113.8,45.8
		c-0.7-1-1.2-1.3-2.4-0.9c-0.5,0.2-0.8,0.6-0.6,1.1C111.8,46,112.8,45.9,113.8,45.8z M178-24.3c0.1,0,0.2-0.1,0.4-0.1
		c-0.7-2.2-1.5-4.3-2.2-6.5c-0.1,0-0.2,0.1-0.3,0.1C176.6-28.6,177.3-26.4,178-24.3z M155.7,17.9c0.1-0.1,0.2-0.2,0.3-0.2
		c-0.3-0.4-0.5-0.9-0.9-1.3c-0.1-0.1-0.8-0.1-0.8,0c-0.2,0.4-0.3,0.9-0.4,1.5C154.7,17.9,155.2,17.9,155.7,17.9z M142.5-1.5
		c1.2-0.5,1.5-1.2,1.4-2c0-0.1-0.8-0.2-1.2-0.3C142.7-3.1,142.6-2.4,142.5-1.5z M167.1-66c-0.1,0.1-0.2,0.1-0.3,0.2
		c0.8,3.2,0.8,3.2,1.8,3.3C168-63.8,167.5-64.9,167.1-66z M121.5-42.9c0.2,0.1,0.3,0.1,0.5,0.2c0.5-1.7,1-3.3,1.5-5
		c-0.1,0-0.2-0.1-0.3-0.1C122.6-46.2,122-44.6,121.5-42.9z M162.2-67.5c-0.9,1-0.5,2.1-0.7,3.4C162.7-65.3,162.7-66.3,162.2-67.5z
		 M151.8,24.5c0.7,0.1,1.5,0.7,2-0.2c0.4-0.6-0.4-0.8-0.8-1C152,23,152.1,23.9,151.8,24.5z M193,32.9c0.1,0.1,0.2,0.1,0.3,0.2
		c0.8-1.3,1.6-2.5,2.4-3.8c-0.2-0.1-0.3-0.2-0.5-0.3C194.5,30.4,193.8,31.6,193,32.9z M157.5,8.9c0.8,0.1,1.5,0.2,1.6-0.8
		c0-0.3-0.5-0.8-0.8-0.8C157.4,7.5,157.5,8.2,157.5,8.9z M128.7,3.3c-0.3,1.2-1.4,1.9-1,3.2C128.7,5.8,129.3,4.2,128.7,3.3z
		 M160.7-70c0.1,0,0.3,0.1,0.4,0.1c0.2-1.2,1.8-2,0.9-3.7C161.5-72.3,161.1-71.1,160.7-70z M116.3,38.7c0,0.1,0,0.2,0,0.4
		c1.8-0.1,3.6-0.2,5.4-0.3c0-0.1,0-0.2,0-0.4C119.9,38.5,118.1,38.6,116.3,38.7z M124.9-41c-0.1-0.1-0.1-0.3-0.2-0.4
		c-0.9,0.4-1.8,0.8-2.7,1.3C123.2-39.9,124.2-40,124.9-41z M181.1,69.6c0.2,0,0.3-0.1,0.5-0.1c-0.6-1.6-1.1-3.2-1.7-4.7
		c-0.1,0-0.2,0.1-0.3,0.1C180.1,66.5,180.6,68.1,181.1,69.6z M165.5,54.2c0.1,0,0.2,0,0.3,0c0-1.6,0-3.2,0-4.7c-0.1,0-0.2,0-0.3,0
		C165.5,51,165.5,52.6,165.5,54.2z M143.7,34.9c-0.9,0.5-1.7,0.9-2.7,1.3C142.8,36.6,143.8,36.1,143.7,34.9z M145.4-36
		c-0.2-0.1-0.3-0.1-0.5-0.2c-0.4,1-0.8,2.1-1.2,3.1c0.2,0.1,0.3,0.1,0.5,0.2C144.6-33.9,145-34.9,145.4-36z M202.1,36.5
		c-0.1-0.1-0.2-0.2-0.3-0.3c-0.6,0-1.3-0.2-1.5,0.6c-0.1,0.3,0.3,0.7,0.5,1C201.3,37.4,201.7,37,202.1,36.5z M113.4-0.9
		c0.1,0,0.2-0.1,0.3-0.1c0-1.5-0.5-3.1-1.3-3.2C112.8-3,113.1-1.9,113.4-0.9z M103.7,26.7c0.4-0.8,0.7-1.3,0.9-1.8
		c0-0.1-0.3-0.3-0.5-0.4c-0.3,0.5-0.6,1-0.8,1.6C103.2,26.1,103.4,26.3,103.7,26.7z M129.8-37.3c0,0.1,0,0.2,0,0.3c1.3,0,2.7,0,4,0
		c0-0.1,0-0.2,0-0.3C132.5-37.3,131.1-37.3,129.8-37.3z M208,49.1c0.4,1,0.7,2.1,1.1,3.1c0.1,0,0.2-0.1,0.3-0.1
		C209,51.1,209.5,49.8,208,49.1z M183.4,41.6c0.4-0.5,0.3-0.9-0.3-1c-0.9-0.1-1.8-0.1-2.6-0.2C181.4,40.8,182.3,41.2,183.4,41.6z
		 M173.4-63.5c-0.1,0-0.3,0.1-0.4,0.1c0.5,1.3,1,2.6,1.6,3.9c0.1,0,0.2-0.1,0.3-0.1C174.4-60.8,173.9-62.2,173.4-63.5z M179.8,28.5
		c0.1,0,0.2-0.1,0.3-0.1c-0.3-1.3-0.7-2.5-1-3.8c-0.1,0-0.3,0.1-0.4,0.1C179.1,26,179.4,27.3,179.8,28.5z M148.5,37.8
		c0.9,0.2,1.2-0.3,1.3-0.9c0-0.2-0.6-0.4-1-0.7C148.7,36.9,148.6,37.3,148.5,37.8z M100.6,40.3c-0.4-0.3-0.7-0.6-0.8-0.6
		c-0.3,0.1-0.6,0.4-0.6,0.7c0,0.2,0.4,0.5,0.6,0.7C100,40.9,100.3,40.6,100.6,40.3z M146.8,45.2c0.3-0.4,0.7-0.7,0.6-1
		c0-0.2-0.4-0.6-0.7-0.6c-0.2,0-0.6,0.4-0.6,0.6C146.1,44.5,146.5,44.8,146.8,45.2z M146.5,47.9c-0.4-0.3-0.7-0.7-1-0.6
		c-0.2,0-0.6,0.4-0.6,0.7c0,0.2,0.4,0.6,0.6,0.6C145.8,48.5,146.1,48.2,146.5,47.9z M141.7,59.8c-0.3,0.5-0.7,0.8-0.6,1
		c0.1,0.2,0.4,0.5,0.7,0.6c0.2,0,0.6-0.3,0.6-0.5C142.4,60.6,142,60.3,141.7,59.8z M139,8.3c0.1,0,0.1-0.1,0.2-0.1
		c-0.2-0.7-0.4-1.5-0.6-2.2c-0.1-0.2-0.3-0.3-0.4-0.4C138.1,5.8,138,6,138,6.2C138.3,6.9,138.7,7.6,139,8.3z M176.2,44
		c-0.1,0-0.2,0-0.3,0c0,1.1,0,2.2,0,3.3c0.1,0,0.2,0,0.3,0C176.2,46.2,176.2,45.1,176.2,44z M155,14.4c0,0.1,0,0.3,0,0.4
		c0.5,0,1-0.1,1.5-0.1c-0.1-0.3,0-0.6-0.2-0.7C155.7,13.4,155.4,14,155,14.4z M118.2,16.9c0.3,1.1,0.6,2.2,0.9,3.4
		C120,18.8,118.5,18,118.2,16.9z M138.2,70.2c-0.3,0.5-0.6,0.7-0.6,0.9c0,0.3,0.4,0.5,0.6,0.7c0.2-0.2,0.6-0.4,0.6-0.6
		C138.7,71,138.5,70.7,138.2,70.2z M140.1,68c-0.4-0.3-0.7-0.6-0.9-0.6s-0.6,0.4-0.5,0.6c0,0.3,0.3,0.6,0.6,0.7
		C139.4,68.7,139.7,68.3,140.1,68z M140.3,65.7c0.2-0.5,0.5-0.8,0.5-1.1c0-0.2-0.4-0.4-0.6-0.6c-0.2,0.3-0.5,0.5-0.5,0.8
		C139.6,65.1,139.9,65.3,140.3,65.7z M145.6,51.8c-0.5-0.3-0.8-0.5-1.1-0.5c-0.2,0-0.4,0.4-0.6,0.6c0.3,0.2,0.5,0.5,0.8,0.5
		C144.9,52.4,145.1,52.1,145.6,51.8z M192.7,34.5c-0.1-0.1-0.3-0.2-0.4-0.2c-0.5,1-1,2-1.5,3c0.1,0,0.2,0.1,0.3,0.1
		C191.6,36.5,192.1,35.5,192.7,34.5z M168.3-67.9c0.2-1.5,0.1-2-0.6-2.5c-0.1,0-0.2,0.1-0.3,0.1C167.7-69.4,168-68.6,168.3-67.9z
		 M140.4,3.4c-1.2-0.8-2.6-1.1-3.2-0.6C138.3,3,139.3,3.2,140.4,3.4z M144.3,56.2c-0.4-0.3-0.7-0.7-0.9-0.7s-0.5,0.3-0.7,0.5
		c0.2,0.2,0.4,0.6,0.6,0.6C143.5,56.7,143.8,56.5,144.3,56.2z M131.9-84c-0.3,0.3-0.5,0.4-0.7,0.6c0.3,0.2,0.5,0.5,0.9,0.7
		c0.1,0,0.6-0.4,0.5-0.5C132.5-83.4,132.2-83.6,131.9-84z M181.6-39.5c0.1,0,0.2-0.1,0.3-0.1c-0.5-1.3-0.9-2.6-1.4-3.9
		c-0.1,0-0.1,0-0.2,0.1C180.8-42.1,181.2-40.8,181.6-39.5z M185,36.4c-0.1-0.1-0.2-0.1-0.3-0.2c-0.4,0.6-1,1.2-0.9,2
		c0.1,0,0.2,0.1,0.3,0.1C184.4,37.8,184.7,37.1,185,36.4z M105.5,22.2c0-0.6-0.1-1.1-0.1-1.6c-0.2,0.1-0.5,0.1-0.6,0.2
		C104.5,21.4,104.4,21.9,105.5,22.2z M190.7,63.5c0.1-0.1,0.2-0.1,0.3-0.2c-0.3-1.1-0.7-2.2-1-3.3c-0.1,0-0.2,0.1-0.4,0.1
		C190,61.3,190.4,62.4,190.7,63.5z M211.3,66.3c0.1,0,0.3-0.1,0.4-0.1c0-0.4,0-0.9-0.1-1.3c-0.1-0.2-0.5-0.1-1.1-0.3
		C210.8,65.3,211,65.8,211.3,66.3z M201.8,28.4c-0.1-0.1-0.3-0.2-0.4-0.3c-0.4,0.6-0.8,1.2-1.2,1.8c0.1,0.1,0.3,0.2,0.4,0.3
		C201.1,29.6,201.4,29,201.8,28.4z M214.4,51.7c0.1,0,0.2-0.1,0.3-0.1c-0.4-1.1-0.8-2.3-1.3-3.4c-0.1,0-0.2,0.1-0.3,0.1
		C213.5,49.5,214,50.6,214.4,51.7z M102.5,29.1c0.2,0.1,0.3,0.2,0.5,0.4c0.2-0.3,0.6-0.5,0.7-0.8c0-0.2-0.3-0.5-0.5-0.7
		C102.9,28.3,102.7,28.7,102.5,29.1z M174.3-35.4c0.1,0,0.2-0.1,0.3-0.1c-0.3-1-0.6-1.9-0.8-2.9c-0.1,0-0.2,0.1-0.4,0.1
		C173.7-37.3,174-36.4,174.3-35.4z M210.4,55.1c-0.1,0-0.2,0.1-0.3,0.1c0.4,1.1,0.9,2.1,1.3,3.2c0.1,0,0.1-0.1,0.2-0.1
		C211.2,57.3,210.8,56.2,210.4,55.1z M107.6,14.1c-0.1-0.1-0.2-0.2-0.4-0.3c-0.3,0.2-0.6,0.4-0.7,0.7c0,0.1,0.3,0.4,0.5,0.6
		C107.2,14.7,107.4,14.4,107.6,14.1z M157.2-55c-0.8,0.8-0.8,1.3-0.2,1.8c0.1,0,0.2,0,0.4,0C157.3-53.7,157.2-54.2,157.2-55z
		 M178.5,24.3c0.1,0,0.2-0.1,0.4-0.1c-0.2-0.8-0.5-1.5-0.7-2.3c-0.1,0-0.2,0.1-0.3,0.1C178.1,22.8,178.3,23.6,178.5,24.3z"/>
	<path d="M245.8,26.5c1.8,1.4,3.4,2.7,5,4c0.2,0.1,0.4,0.4,0.4,0.6c-0.3,1.4-0.7,2.8-1,4.4c-2.7-2.3-5.8-2.7-9-2.9
		c-0.6,0-1.2,0.3-1.8,0.4c-0.3,0-0.6,0.1-0.8,0c-0.1-0.1-0.1-0.5-0.1-0.7c0.3-1,0.6-2.1,0.9-3.1c0.3-1.1,0.8-1.3,1.7-0.6
		c1.2,0.9,2.6,0.9,4.2,1.1c-0.3-0.4-0.4-0.7-0.6-0.9c-1.1-1-2.3-2-3.5-3.1c-0.3-0.3-0.4-0.8-0.4-1.1c0-0.2,0.4-0.5,0.7-0.6
		c1.9-0.5,3.9-0.9,5.8-1.4c0.3-0.1,0.6-0.3,0.9-0.5c0-0.1,0-0.2,0-0.3c-0.6-0.2-1.1-0.5-1.7-0.5c-1.5-0.1-3.1-0.5-4.5,0.6
		c-0.3,0.2-0.7,0.1-1.1,0.2c0-0.4-0.2-0.8-0.1-1.1c0.2-0.9,0.5-1.8,0.7-2.7c0.1-0.3-0.1-0.6,0-0.9c0.1-0.3,0.3-0.7,0.6-0.8
		c0.2-0.1,0.8-0.1,0.9,0c0.9,1.5,2.3,1.8,3.8,1.8c1,0.1,2,0.6,3,0.7c0.9,0.1,1.9,0,2.8-0.3c0.7-0.2,0.9,0,0.9,0.6
		c-0.2,1.2-0.3,2.5-0.6,3.7c-0.1,0.3-0.6,0.7-1,0.8c-1.9,0.6-3.9,1-5.7,2.3C246.3,26.2,246.1,26.3,245.8,26.5z"/>
	<path d="M212.1-76c-1,1-1.9,2-2.8,3.1c-0.3,0.4-0.5,1-0.6,1.5c-0.2,0.7-0.8,0.7-1.1,0.5c-1-0.7-2-1.6-3-2.4c0-0.1,0.1-0.3,0.1-0.4
		c0.6-0.3,1.2-0.4,1.7-0.8c1-0.8,1.9-1.6,2.8-2.5c0.6-0.6,1.2-1.3,1.6-2c0.5-0.8,0.8-1.6,1.1-2.5s0.7-1.1,1.5-0.5
		c0.3,0.2,0.5,0.4,0.8,0.6c2.1,1.4,1.6,3.5,1.5,5.5c0,0.5,0,0.9,0,1.4c-0.1,0.7-0.2,1.4-0.2,2.2c0,0.4,0.1,0.8,0.2,1.2
		c0.3-0.2,0.6-0.3,0.8-0.5c0.4-0.3,0.9-0.7,1.3-1c1-0.9,1.4-2,1.2-3.4c1.1-0.1,2,0,2.7,0.9c0.4,0.5,1,0.8,1.6,1.2
		c0.7,0.6,0.6,1.3-0.2,1.4c-1.9,0.3-3,1.4-4,2.9c-1,1.3-2.2,2.5-3.2,3.7c-0.3,0.3-0.5,0.7-0.7,1.1c-0.3,0.8-0.6,0.7-1.1,0.2
		c-0.4-0.4-0.7-0.8-1.1-1.1c-1.2-0.9-0.8-2.2-0.8-3.4c0.1-2.2,0.2-4.4,0.3-6.6C212.3-76,212.2-76,212.1-76z"/>
	<path d="M155.6-100.5c-0.1,0.2-0.1,0.2-0.1,0.2c0,1.8-0.6,2.8,2.3,1.8c0.8-0.3,1.1,0.1,1.2,0.8c0,0.8,0.1,1.6,0,2.4
		c-0.1,0.4-0.5,0.9-0.9,1.1c-0.2,0.1-0.6-0.3-1-0.5c-0.1-0.1-0.1-0.3-0.2-0.3c-0.4-0.2-0.8-0.4-1.2-0.6c-0.2,0.5-0.6,1.1-0.6,1.6
		c0,0.2,0.7,0.7,1.1,0.8c1.2,0.2,2.4,0.4,3.7,0.4c0.5,0,1-0.3,1.4-0.4c0.2-0.1,0.4-0.3,0.6-0.4c0.4-0.2,1.2-0.5,1.3-0.4
		c0.3,0.5,0.5,1.1,0.6,1.7c0.1,0.5-0.2,1.1-0.2,1.7c0,0.8-0.5,0.9-1.1,0.9c-1.8-0.2-3.6-0.5-5.4-0.5c-1.8-0.1-3.6,0.1-5.3,0.1
		c-0.4,0-0.8-0.2-1.1-0.4c-0.5-0.4-0.5-0.8,0.1-1.2c0.8-0.6,1.2-1.5,1.2-2.5c0.1-1,0.3-1.9,0.4-2.9c0.1-1.5,0.1-3.1-0.6-4.5
		c-0.3-0.5-0.5-1-0.8-1.6c0.6-0.1,1.2-0.4,1.8-0.4c1.5,0,3,0.1,4.4,0.2c1.4,0.1,2.8,0.4,4.2,0.6c0.3,0,0.6,0,0.9-0.1
		c0.7-0.2,1.5,0.4,1.4,1.1c-0.1,0.8-0.4,1.5-0.7,2.2c-0.1,0.1-0.7,0.3-0.8,0.2C160.1-101.2,157.8-100.3,155.6-100.5z"/>
	<path d="M63.1-33.2c0.9-0.4,1.5-0.8,2.2-1.1c0.3-0.1,0.8-0.4,0.9-0.3c0.3,0.4,0.6,0.8,0.6,1.3c0,1.1-1.1,2.4-2.2,2.7
		c-0.7,0.2-1.1,0.5-1.2,1.3c-0.5,2.5-2.1,4.4-4.3,5.5c-2.1,1-5.2,0.9-6.9-1.7c-0.5-0.8-1.5-1.2-1.7-2.3c-0.7-3.6,0.3-6.4,3.4-8.7
		c1.6-1.1,3.3-1.5,5.2-1.4c0.5,0,0.9,0.4,1.4,0.7C61.8-36.4,62.9-35.3,63.1-33.2z M57-26.8c0.4,0,0.8,0,1.2,0
		c0.9-0.1,2.3-1.2,2.1-1.9c-0.4-1.2,0.3-2,0.8-2.9c0.1-0.2,0.1-0.6-0.1-0.8c-1.2-2-2.9-2.7-5.2-2.1c-1.8,0.5-3.2,2.1-3.3,3.7
		C52.6-28.2,54.2-26.8,57-26.8z"/>
	<path d="M71.2-66.6c0.3-0.4,0.5-0.8,0.7-1c1.7-1.8,3.4-3.6,5.1-5.3c1.3-1.3,2.7-2.4,4.7-2.3c1.5,0,2.7,0.4,3.8,1.8
		c1.4,1.8,2.1,3.8,1.8,6c-0.1,1-0.9,2-1.5,2.8c-1.4,1.8-3,3.5-4.4,5.3c-0.7,0.9-1.5,0.8-1.8-0.2c-0.6-2-2.3-3.3-3.7-4.6
		c-0.3-0.3-0.6-0.5-0.9-0.8c-0.7-0.6-1.4-1.2-2.5-1.1C72.1-66.2,71.7-66.4,71.2-66.6z M84.7-68.2c0-1.3-1.4-3.1-2.5-3.6
		c-0.9-0.4-1.8-0.7-2.6,0c-1.1,0.9-2,2.1-3,3.2c-0.1,0.1,0,0.7,0.2,0.9c1.2,1.2,2.5,2.5,3.9,3.6c0.2,0.2,0.7,0,1.1-0.1
		c0.3-0.1,0.6-0.4,0.9-0.7C83.8-65.9,84.5-67,84.7-68.2z"/>
	<path d="M249-1.5c-1.6,0.2-3.2-0.5-4.3-1.4c-1.3-1-1.9-2.7-2.1-4.5c-0.1-1-0.2-2-0.3-3c-0.1-1.3-0.3-2.5-0.3-3.8
		c0-0.7,0.9-1.1,1.4-0.4c1.1,1.5,2.5,0.6,3.7,0.6c1.1,0,2.3-0.5,3.4-0.5c1.1,0,1.8-0.6,2.5-1.3c0.1-0.1,0.7-0.1,0.8,0
		c0.4,0.9,0.8,1.9,1,2.8c0.3,1.5,0.5,3,0.4,4.5c-0.1,2.1-0.3,4.1-2.1,5.7C251.7-1.8,250.4-1.8,249-1.5z M248.2-4.8
		c0.9-0.2,2-0.2,2.6-0.8c1.4-1.3,1.8-3,1.3-4.9c-0.2-0.7-0.6-1.1-1.3-1c-1.7,0.2-3.3,0.5-5,0.8c-0.7,0.1-0.9,0.5-0.8,1.1
		c0.1,0.8,0.2,1.5,0.4,2.2C245.9-5.1,246-5,248.2-4.8z"/>
	<path d="M46.9,24.9c0-2.2,0.7-4.2,2-5.8c0.6-0.7,1.7-1,2.7-1.4c2-0.7,3.8-0.3,5.6,0.8c0.8,0.5,1.4,0.3,1.9-0.5
		c0.2-0.4,0.5-0.7,0.8-1c0.4,0.4,0.8,0.7,1.1,1.1c0.6,1.2,0.2,2.5-1.3,3.5c-0.5,0.4-0.5,0.6-0.3,1.1c0.5,2.1,0.6,4.1-0.5,6.1
		c-2.1,3.7-7.6,4.2-9.7,0.8c-0.7-1.1-1.4-2.1-1.9-3.2C46.9,25.9,47,25.4,46.9,24.9z M53.7,28.7c1-0.3,1.9-0.6,2.9-1
		c0.3-0.1,0.7-0.6,0.7-0.9c0-0.8-0.1-1.5-0.2-2.3c-0.1-0.8-0.8-1.5-0.4-2.4c0.1-0.1-0.1-0.4-0.2-0.6c-0.8-0.9-3.8-1.3-4.8-0.7
		c-1.4,0.9-2.5,2.9-2.2,4.1C50.2,27.3,51.4,28.5,53.7,28.7z"/>
	<path d="M119.6-91.6c0.9-1.3,0.6-1.8-2.4-6c1.1-0.4,2.1-0.9,3.2-1.2c0.8-0.2,1.1,0.3,1.2,1.1c0.3,1.7,0.6,3.4,1.1,5.1
		c0.4,1.5,1.1,3,1.5,4.5c0.1,0.3-0.2,1.1-0.5,1.2c-1.1,0.5-2.1,0.2-3.1-0.3c-1.4-0.8-2.7-1.8-4.1-2.6c-1-0.6-2-1-3-1.5
		c-0.1,0.1-0.2,0.1-0.3,0.2c0.4,1.1,0.5,2.2,1.1,3.1s1.5,1.7,2.2,2.5c0.5,0.5,0.3,1.2-0.3,1.3c-1,0.3-1.9,0.5-2.9,0.7
		c-0.6,0.2-0.9-0.1-0.8-0.7c0.2-2.1-0.8-4-1.6-5.8c-0.2-0.4-0.3-0.8-0.4-1.2c-0.2-0.8-0.7-1.4-1.4-1.8c-0.3-0.1-0.5-0.6-0.5-0.9
		c0-0.2,0.4-0.4,0.7-0.5c0.6-0.3,1.4-0.6,2-0.9c1.3-0.8,2.4-0.5,3.6,0.4C116.2-93.8,117.9-92.7,119.6-91.6z"/>
	<path d="M218.4-61.5c-0.1-3.8,1.3-5.7,3.7-7.1c1.1-0.6,2.1-1.2,3.5-0.9c2.2,0.4,4,1.3,5.4,3.1c2.1,2.8,1.7,5.6,0.1,8
		c-0.9,1.4-2.2,3.1-4.4,3.2c-1.4,0.1-2.8,0.2-4-1c-0.4-0.4-1-0.5-1.5-0.8C219.1-58.3,218.5-60.2,218.4-61.5z M225.2-58.4
		c0.6-0.3,1.7-0.8,2.8-1.3c1.3-0.6,2.2-3.2,1.3-4.5c-0.8-1-1.6-2-3.1-2.1c-1.9-0.1-4.5,1.2-4.9,3c-0.2,0.7,0,1.5,0.2,2.3
		C221.7-59.8,223.4-58.4,225.2-58.4z"/>
	<path d="M245.6-22.2c1.2,0.7,2.3,0.1,3.3-0.3s1.9-1.1,2.9-1.8c0.8,0.8,1,2.1,1.2,3.4c0.1,0.5-0.4,1-1,0.8c-1.6-0.5-3,0.1-4.5,0.4
		c-1.5,0.3-2.9,0.7-4.4,1.2c-0.6,0.2-1.2,0.6-1.9,1c-0.3-0.9-0.6-1.7-0.7-2.6c0-0.6,0.2-1.3,0.6-1.8c1.3-1.8,2.8-3.5,4.1-5.2
		c0.2-0.2,0.1-0.6,0.2-1c-0.3,0-0.6-0.1-0.9,0c-0.8,0.3-1.6,0.5-2.4,0.9c-0.5,0.3-1,0.8-1.5,1.1c-0.3,0.2-0.6,0.6-0.9,0.5
		c-0.3-0.1-0.6-0.5-0.8-0.8c-0.3-0.6-0.6-1.2-0.9-1.8c-0.4-0.7,0-1.6,0.7-1.4c1.2,0.3,2.2-0.3,3.2-0.7c1.5-0.5,2.9-1,4.4-1.6
		c0.5-0.2,1-0.6,1.4-1.1c0.7-0.8,1-0.9,1.5,0.1c0.3,0.7,0.7,1.3,0.9,2c0.4,1.5,0.7,1.7-0.7,2.9c-0.9,0.7-1.5,1.7-2.2,2.7
		C246.7-24.2,246.2-23.2,245.6-22.2z"/>
	<path d="M233.6-43.8c0,0,0.4,0.1,0.7,0.1c2.7,0.3,5.5,0.6,8.3,0.1c0.2,0,0.5-0.2,0.7-0.4c0.8-0.6,1.2-0.6,1.7,0.2
		c0.7,1.2,1.4,2.5,2,3.8c0.3,0.7,0.2,1.3-0.7,1.4c-1.3,0.2-1.9,1.1-2.7,2c-0.7,0.9-1.5,1.7-2.2,2.5c-0.6,0.7-1.1,1.4-1.6,2.2
		c-0.4,0.5-0.7,1.1-1.2,1.6s-1,0.3-1.2-0.2c-0.5-1.1-1.1-2.2-1.5-3.3c-0.3-0.9,0.5-1,1.1-1.1c2.1-0.4,2.2-0.6,0.9-2.4
		c-0.2-0.3-0.2-0.8-0.4-1.2c-0.5-0.7-1-1.5-1.7-2.1c-0.2-0.2-1,0-1.3,0.3c-0.6,0.5-1,0.7-1.3-0.2c-0.3-0.6-0.6-1.2-0.9-1.8
		C231.6-43.5,231.8-43.8,233.6-43.8z M239.1-40.6c0.5,1.1,0.9,1.9,1.3,2.9c0.9-1,1.7-1.9,2.6-2.9C241.6-40.6,240.5-40.6,239.1-40.6z
		"/>
	<path d="M255.1,5c-2.2-0.1-4.2-0.2-6.2-0.3c-0.7,0-1.5,0.1-2.2,0.2c-2,0.5-2.7,3.1-1.3,4.6c0.8,0.9,1.7,1.3,2.9,1.2
		c1.2,0,2.4,0.2,3.6,0.2c0.5,0,1-0.2,1.4-0.4s0.7-0.4,1.2-0.8c0.5,1.8,0.4,3.4-0.2,5c-0.2,0-0.3,0-0.3,0c-1.7-1.4-3.8-1-5.8-1.2
		c-1.8-0.2-3.5-0.8-4.6-2.1c-0.8-0.9-1.2-2.3-1.4-3.5c-0.4-2.5,0.3-4.7,2.6-6c1-0.6,2.3-0.6,3.5-0.8c1.5-0.2,3.1-0.2,4.6-0.5
		c0.6-0.1,1.2-0.7,2-1.2C255.6,1.5,255.4,3.3,255.1,5z"/>
	<path d="M71-46.3c-0.1,2.8-2.1,5.8-4.6,6.6c-1.1,0.4-2.2,0.2-3.3-0.3c-1.1-0.6-2.2-1.3-3.4-1.7c-0.9-0.4-2-0.5-3-0.6
		c-0.5-0.1-0.9-0.2-0.7-0.8c0.6-1.1,1.2-2.3,1.9-3.4c0.3-0.6,0.8-0.6,1.1,0c0.5,1.1,1.4,1.6,2.3,2c1.3,0.6,2.7,1,4.1,1.4
		c1.1,0.4,2.8-1.1,2.9-2.5s-0.5-2.3-1.7-3c-0.9-0.5-1.5-1.4-2.4-1.9c-0.7-0.4-1.5-0.6-2.3-0.8c-0.4-0.2-0.8-0.3-1.3-0.5
		c0.2-0.4,0.3-0.8,0.6-1.1c0.3-0.5,0.7-1,1-1.5c0.5-0.8,1-0.7,1.6-0.1c1,1,2.1,1.9,3.3,2.7c1.6,1,2.8,2.3,3.7,3.9
		C71-47.4,70.9-46.8,71-46.3z"/>
	<path d="M52.4,4.9c-1.9,0.4-3.7,0.8-5.6,1.3c-0.7,0.2-0.9-0.1-1-0.5c-0.2-0.8-0.4-1.7-0.5-2.5c-0.1-0.5,0.1-0.9,0.7-0.9
		c0.7,0,1.3,0.2,2,0.2c1.3,0,2.7-0.1,4-0.3c2-0.3,3.7,0,5,1.8c1.9,2.5,2.1,5,0.9,7.8c-0.6,1.5-2,2.2-3.5,2.4s-3,0.2-4.5,0.5
		c-0.6,0.1-1.2,0.6-1.8,0.9c-0.7,0.4-1.4,0.1-1.5-0.7s-0.2-1.6-0.2-2.4c0-0.9,0.4-1.1,1.2-1.1c1.7,0,3.5,0,5.2-0.1
		c0.8,0,1.7-0.3,2.5-0.5c0.9-0.2,1.1-0.8,1.1-1.8c0-1.1-0.3-2-0.8-2.9c-0.6-1.2-1.7-0.6-2.5-1c-0.2-0.1-0.4,0-0.6,0
		C52.5,5.1,52.5,5,52.4,4.9z"/>
	<path d="M53.6-9.3c-2.3,0.1-4.3-0.5-5.7-2.3c-1.3-1.6-1.7-3.4-1.4-5.5c0.3-1.8,0.9-3.4,2.2-4.6c0.7-0.7,1.9-1,2.5,0.3
		c0.2,0.4,0.5,0.7,0.6,1.1c0.3,0.7,0,1.2-0.7,1.2c-1.7,0.1-2.5,1.2-2.4,2.9c0.1,2,1.5,2.8,2.8,3.2c2.1,0.7,3.7,0.3,5.3-1.1
		c0.9-0.8,1.1-2.5,0.4-3.5c-0.5-0.7-1.2-1.3-1.9-2c-0.5-0.5-0.4-0.9,0.1-1.3c0.7-0.5,1.5-0.6,2.4-0.2c1,0.6,1.6,1.4,1.9,2.6
		c0.8,2.8,0,5.2-1.7,7.3C56.9-9.7,55.3-9.1,53.6-9.3z"/>
	<path d="M147.1-99.2c-1-1.5-2.1-1.7-3.5-1.3c-0.8,0.2-0.9,0.5-0.8,1.1c0.1,1.1,0.3,2.2,0.5,3.4c0.1,0.6,0.2,1.2,0.3,1.8
		c0.2,0.8,0.5,1.7,0.9,2.5c0.4,1,0.3,1.4-0.7,1.5c-1.1,0.1-2.2,0.2-3.3,0.2c-0.7,0-0.9-0.4-0.6-1c1-1.9,0.4-3.8,0.2-5.7
		c-0.1-0.6-0.3-1.2-0.3-1.7c-0.2-0.9-0.6-1.3-1.6-1.2s-1.9,0.1-2.5,1.2c-0.1,0.2-0.5,0.4-0.8,0.4c-0.1,0-0.3-0.4-0.4-0.7
		c-0.2-0.6-0.2-1.3-0.5-1.9c-0.3-0.8,0-1.2,0.7-1.5c0.5-0.2,1.1-0.2,1.6-0.3c1.5-0.3,3-0.5,4.5-0.7c1-0.2,2.1-0.3,3.2-0.5
		c0.5-0.1,1-0.1,1.5-0.2c1.2-0.2,1.8,0.3,1.8,1.5c0,0.6,0.2,1.3,0.2,1.9C147.5-100.2,147.3-99.9,147.1-99.2z"/>
	<path d="M170-98.3c-0.3,0-0.9,0.1-1.5,0.2c-0.6,0.1-0.9-0.2-0.8-0.8c0.1-0.5,0.2-1,0.3-1.4c0.1-0.3,0.2-0.5,0.2-0.7
		c0.1-1.3,0.1-1.2,1.4-0.9c2.8,0.7,5.7,1.4,8.6,2.1c0.6,0.1,1.3,0.1,2,0.2c0.5,0.1,0.8,0.3,0.6,1c-0.2,0.7-0.3,1.4-0.5,2.1
		c-0.2,0.7-0.8,1-1.4,0.5c-0.8-0.7-1.7-1.4-2.8-1.3c-0.4,0-0.9,0.2-1,0.5c-0.3,0.6-0.3,1.3-0.5,2c-0.2,1.2-0.4,2.3-0.5,3.5
		c-0.1,0.7,0,1.4,0.2,2.2c0.2,0.9-0.1,1.4-1,1.3c-1-0.2-1.9-0.4-2.9-0.6c-0.8-0.2-0.9-0.8-0.4-1.3c0.8-0.9,1.1-1.9,1.2-3
		c0.1-1.2,0.4-2.4,0.6-3.6C172-97.9,171.7-98.3,170-98.3z"/>
	<path d="M239.8-47.7c-0.8-0.1-1.1-0.4-1.1-1.1c0-0.8,0.2-1.6-0.5-2.3c-0.4-0.4-0.8-0.6-1.4-0.2c-0.7,0.5-1.5,1-2.1,1.6
		c-1.1,1-2,2-3,3.1c-0.5,0.6-1.1,0.6-1.5,0c-0.5-0.8-1-1.6-1.5-2.3c-0.5-0.7-0.1-1,0.5-1.1c1.4-0.1,2.4-0.7,3.3-1.8
		c0.5-0.6,1.3-0.9,2.1-1.3c0.6-0.4,1.5-0.8,1.2-1.5c-0.3-0.8-1-1.6-1.8-1.9c-2-0.8-2.1-0.8-0.5-2.3c1.3-1.2,2.1-1.1,3.4,0.6
		c1.1,1.4,2.1,2.9,3.1,4.4c0.7,1,1.4,1.9,2,2.9c0.8,1.1,0.7,1.8-0.5,2.5C240.7-48,240.2-47.8,239.8-47.7z"/>
	<path d="M68.3-62.8c0.5,0.7,0.7,1.3,1.1,1.7c1.7,1.7,3.6,3.2,5.9,4.1c0.5,0.2,1.1,0.3,1.6,0.5c0.7,0.3,0.6,0.8,0.3,1.3
		c-0.6,1-1.3,1.9-2.1,2.8c-0.5,0.6-0.9,0-1.2-0.4c-0.6-0.8-1.1-1.8-1.8-2.5c-1.1-1.1-2.4-2-3.7-2.8c-0.5-0.3-1.2-0.2-1.8-0.3
		c-0.5-0.1-1-0.2-1.8-0.3C66.1-60.3,66.5-62.2,68.3-62.8z"/>
	<path d="M45.3-3.8c0-0.3,0-0.6,0-0.9c0.1-1.7,0.7-2,2.3-1.6c0.9,0.2,1.8,0.4,2.7,0.4c1.6,0.1,3.2,0.2,4.8,0.2
		c0.4,0,0.9-0.1,1.3-0.2c0.9-0.2,1.4,0.3,1.2,1.2c-0.1,0.6-0.2,1.3-0.4,1.9C57-2.2,56.6-1.9,56-2.3c-1.4-0.9-3-0.4-4.6-0.5
		c-0.5,0-1,0-1.5,0c-1.1,0.1-2.2,0.2-3.2,0.4c-1.3,0.2-1.4,0.2-1.4-1.1C45.3-3.4,45.3-3.6,45.3-3.8z"/>
	<path d="M125.5-100.1c1.6-0.3,3.1-0.7,4.6-1c0.7-0.1,1,0.3,0.7,1c-0.3,0.8-0.3,1.6,0,2.5c0.6,1.8,0.9,3.7,1.4,5.5
		c0.1,0.4,0.5,0.8,0.7,1.2c0.3,0.4,0.5,0.7,0.8,1.1c-0.5,0.3-0.9,0.7-1.4,0.8c-0.9,0.1-1.8,0.1-2.6,0c-0.2,0-0.5-0.3-0.5-0.5
		c0.2-2.4-0.3-4.6-1.2-6.8c-0.3-0.8-0.3-1.7-0.8-2.4C126.8-99.2,126.1-99.6,125.5-100.1z"/>
	<path d="M155.6,89c1.1-0.2,2-0.4,2.9-0.5c0.6-0.1,1.2,0,1.8,0c0.2,0,0.4,0.2,0.5,0.4c0,0.1-0.1,0.4-0.2,0.4c-1.5,0.5-3,1-4.6,0.3
		C155.9,89.5,155.9,89.3,155.6,89z"/>
	<path d="M183,86.9c0.6-1,1.6-0.8,2.4-1.1c0.4-0.2,0.9-0.1,1.4,0c0.2,0,0.4,0.2,0.6,0.4c-0.2,0.2-0.3,0.6-0.5,0.6
		c-0.9,0.2-1.8,0.3-2.7,0.4C183.9,87.2,183.5,87,183,86.9z"/>
	<path d="M143.2,88.2c0.8-0.6,3-0.5,3.8,0.2C146.3,89.3,144.4,89.2,143.2,88.2z"/>
	<path d="M144.7,89.8c0.4,0.3,0.7,0.6,1,0.9c-0.2,0.2-0.5,0.6-0.6,0.5c-0.5-0.1-0.9-0.4-1.4-0.7C143.9,90.3,144.2,90.1,144.7,89.8z"
		/>
	<path d="M113.1,86.6c0.9-0.5,1.6-0.4,2.3,0.5C114.6,87.2,113.8,87.5,113.1,86.6z"/>
	<path d="M125.4,90c0,0.1,0,0.1,0,0.1c-0.6,0-1.1,0-1.7,0c0-0.2,0-0.6,0.2-0.7C124.4,89.2,125,89.3,125.4,90z"/>
	<path d="M152,91.1c-0.6,0.7-1.1,0.2-1.6,0c0,0,0-0.4,0.1-0.4C151,90.5,151.6,90.2,152,91.1z"/>
	<path d="M177.4,89c0.2-0.3,0.4-0.6,0.6-0.7c0.1-0.1,0.4,0.3,0.7,0.5c-0.3,0.2-0.6,0.4-1,0.6C177.7,89.2,177.6,89.1,177.4,89z"/>
	<path d="M185.8,3.9c1.3-0.8,2.6-1.7,4-2.5c0.1-0.1,0.5,0,0.7,0.2c0.1,0.1,0.1,0.5,0,0.7c-0.2,0.3-0.4,0.6-0.7,0.8
		c-1,0.5-2.1,0.9-3.1,1.3c-0.2,0.1-0.5-0.1-0.7-0.1C185.9,4.1,185.9,4,185.8,3.9z"/>
	<path d="M114.6,43.5c0.2-0.3,0.3-0.8,0.5-0.9c0.4-0.2,1-0.1,1.4,0c0.1,0,0.2,0.6,0.2,0.9c-0.4,0.1-0.9,0.3-1.3,0.3
		C115.2,43.7,114.8,43.5,114.6,43.5C114.5,43.4,114.6,43.5,114.6,43.5z"/>
</g>
</svg>
